<?xml version="1.0" encoding="UTF-8"?>
<svg width="108" height="108" version="1.1" viewBox="0 0 28.575 28.575" xmlns="http://www.w3.org/2000/svg">
  <g>
    <path d="m7.1438 9.4392c3.8566 0.39435 6.8881 1.8064 9.0945 4.2362 0.08612 0.09484 0.32527 0.36301 0.50802 0.2966 0.18275-0.06642 0.40577-0.48208 0.50332-0.6268 0.15318-0.22726 0.62639-1.0336 1.6564-1.3657 1.03-0.33208 2.3352 0.03746 2.3826 0.05381 0.08907 0.03072 0.17898 0.07105 0.12765 0.14303-0.05133 0.07199-0.48739 0.24526-0.78365 0.81112-0.31695 0.60538-0.50323 1.7766-0.54894 2.0347-0.18002 1.063-0.6117 2.0486-1.236 2.8863-1.0985 1.4738-2.7933 2.4895-4.7632 2.6625-1.0769 0.0946-2.1164-0.07316-3.0559-0.45051 1.1385-0.1116 2.5165-0.65146 3.6234-1.944 1.3966-1.6309-0.13181-0.78409-1.4443-0.99994-0.91953-0.15123-1.668-0.62322-2.9241-2.2195 0.40296-0.11252 1.1973-0.24978 1.8381-0.27715-1.1852-0.27184-2.7575-1.0206-3.4532-2.1741 0.55907-0.19371 1.2947-0.12337 1.8825-0.097887-2.2387-1.3458-3.2042-2.0707-3.4072-2.9687zm5.3495-1.4611c0.1323 0.064418 2.1268 0.92943 3.0901 2.2249 1.3457 1.8098 1.3955 3.5532 1.03 3.1547-0.85886-0.9364-1.6485-1.536-2.6249-2.2083-0.7476-0.51472-1.2472-1.9817-1.4952-3.1713zm6.9451 4.5204c-0.18168 0.01592-0.31608 0.17607-0.30019 0.35775 0.01592 0.18169 0.17607 0.31609 0.35775 0.30019 0.18168-0.01591 0.31608-0.17606 0.30019-0.35775-0.01591-0.18168-0.17607-0.31608-0.35775-0.30019z" fill="#fff"/>
  </g>
</svg>
