<?xml version="1.0" encoding="UTF-8" standalone="no"?>
<svg width="24" height="24" viewBox="0 0 24 24" version="1.1">
  <path d="m 1.9600564,10.324146 c 0,-4.5023756 4.3442743,-8.4041605 10.0399016,-8.4041605 5.695637,0 10.039988,3.9017849 10.039988,8.4041605 0,4.50227 -4.344351,8.404064 -10.039988,8.404064 -0.82569,0 -1.626804,-0.08352 -2.3924939,-0.240478 L 9.0050015,18.364181 8.6409242,18.859825 C 7.1804297,20.848354 5.5055687,21.848187 3.7004752,22.042489 4.8861814,20.612196 5.6690171,19.181711 5.9608549,17.75257 L 6.0869691,17.135006 5.570445,16.773761 C 3.327854,15.205421 1.9600564,12.875807 1.9600564,10.324146 Z M 11.999958,0 C 5.5454564,0 0.040068,4.4831373 0.040068,10.324146 c 0,3.050281 1.5249417,5.754196 3.8860727,7.618694 -0.3096457,0.942233 -0.9278522,1.983153 -1.9151087,3.123721 -0.076972,0.0889 -0.1439797,0.156766 -0.2266255,0.240478 -0.062812,0.06365 -0.1346582,0.136319 -0.2267887,0.23443 -0.086198,0.09187 -0.1871218,0.204383 -0.2766219,0.326398 -0.082329,0.112223 -0.2018385,0.294237 -0.2655052,0.524732 -0.0718132,0.260062 -0.0802736,0.627451 0.1516597,0.97036 0.2041712,0.301822 0.4993114,0.437949 0.6978475,0.503708 0.3866083,0.128159 0.9015676,0.147935 1.4879983,0.125184 2.4902788,-0.09648 4.6827678,-1.306743 6.4653783,-3.514822 0.7080905,0.112511 1.4373015,0.171167 2.1815835,0.171167 6.454511,0 11.959974,-4.48307 11.959974,-10.32405 C 23.959932,4.4831373 18.454469,0 11.999958,0 Z M 10.92851,7.1999455 c 0,-0.5301848 0.447741,-0.9599927 1.000025,-0.9599927 0.552283,0 1.000024,0.4298079 1.000024,0.9599927 v 2.4685254 h 2.571437 c 0.552283,0 0.999928,0.4297891 0.999928,0.9599931 0,0.530204 -0.447645,0.959992 -0.999928,0.959992 h -2.571437 v 2.331439 c 0,0.530204 -0.447741,0.959992 -1.000024,0.959992 -0.552284,0 -1.000025,-0.429788 -1.000025,-0.959992 V 11.588456 H 8.5000069 c -0.5522838,0 -0.9999957,-0.429788 -0.9999957,-0.959992 0,-0.530204 0.4477119,-0.9599931 0.9999957,-0.9599931 H 10.92851 Z"/>
</svg>
