<?xml version="1.0" encoding="UTF-8"?>
<svg version="1.1" width="24px" height="24px" viewBox="0 0 24 24">
  <!-- Generator: Adobe Illustrator 29.3.1, SVG Export Plug-In . SVG Version: 2.1.0 Build 151)  -->
  <path class="st0" d="M22,5.9c-.8-.4-1.5-1.4-1.7-2.6,0-.1-.2-.1-.2,0-.3,1.2-.9,2.2-1.7,2.6s0,.2,0,.3c.6.3,1.2,1,1.5,1.9,0,.2.1.4.2.7,0,0,0,0,0,0,0,0,0,0,0,0,0,0,0,0,0,0,0,0,0,0,0,0h0s0,0,0,0c.3-1.3.9-2.2,1.7-2.6,0,0,0-.2,0-.3,0,0,0,0,0,0Z"/>
  <path class="st0" d="M24,10c-.5-.3-1-.9-1.2-1.7,0,0-.1,0-.1,0-.2.8-.6,1.5-1.2,1.7,0,0,0,.2,0,.2.5.3,1,.9,1.2,1.7,0,0,.1,0,.1,0,.2-.8.6-1.5,1.2-1.7,0,0,0-.2,0-.2Z"/>
  <path class="st0" d="M5.3,17.6c0,0-.2-.1-.2-.2,0,0,0,0,0,0,0,0-.2-.2-.3-.3,0,0,0,0,0-.1,0-.1-.2-.3-.3-.4,0,0,0-.1,0-.2,0,0,0-.2-.1-.2,0,0,0,0,0-.1,0-.2-.1-.4-.2-.6,0,0,0,0,0,0s0,0,0,0c0,0,0,0,0,0,0,0,0,0,0,0h0s0,0,0,.1c-.3,1.2-.9,2.2-1.7,2.6,0,0,0,.2,0,.3.8.4,1.5,1.4,1.7,2.6,0,.1.2.1.2,0,.3-1.3.9-2.2,1.7-2.6,0,0,0-.2,0-.3-.1,0-.2-.1-.4-.2h0Z"/>
  <path class="st0" d="M2.5,14c0,0,0-.2,0-.2-.5-.3-1-.9-1.2-1.7,0,0-.1,0-.1,0-.2.8-.6,1.5-1.2,1.7,0,0,0,.2,0,.2.5.3,1,.9,1.2,1.7,0,0,.1,0,.1,0,.2-.8.6-1.5,1.2-1.7Z"/>
  <path class="st0" d="M12,9.3h0c-1.5,0-2.7,1.2-2.7,2.7h0c0,1.5,1.2,2.7,2.7,2.7h0c1.5,0,2.6-1.2,2.6-2.6h0c0-1.5-1.2-2.7-2.6-2.7Z"/>
  <path class="st0" d="M19.2,8.9c-.2-.8-.5-1.4-.9-1.7h-.3c-1,0-1.9-.4-2.5-1.2l-.2-.3c-.3-.4-.8-.7-1.3-.7h-3.5c-.5,0-1,.2-1.3.7l-.2.3c-.6.8-1.5,1.2-2.5,1.2h-.9c-.9,0-1.7.8-1.7,1.8v5.2h0c.6,0,.9.5,1,.8.2,1,.8,1.7,1.2,2,.3.2.5.4.5.7h11.9c.9,0,1.7-.8,1.7-1.8v-6.1h0c-.7,0-.9-.5-1-.8ZM15.7,12.8c-.3,1.5-1.5,2.6-2.9,2.9l-.7.7-.7-.7c-1.5-.3-2.7-1.5-3-2.9l-.7-.7.7-.7c.3-1.5,1.5-2.7,3-3l.7-.7.7.7c1.5.3,2.7,1.5,2.9,3l.7.7-.7.7h0Z"/>
</svg>
