<?xml version="1.0" encoding="UTF-8"?>
<svg viewBox="0 0 24 24" width="24" height="24">
  <path d="M20.11,3.26c.03-.14.16-.13.19,0,.27,1.22.92,2.19,1.73,2.6.09.04.09.23,0,.27-.84.38-1.49,1.36-1.74,2.61-.03.13-.15.13-.18,0-.27-1.22-.92-2.19-1.73-2.6-.09-.04-.09-.24,0-.28.82-.41,1.46-1.37,1.73-2.6h0Z"/>
  <path d="M22.67,8.28c.02-.09.1-.09.13,0,.18.81.62,1.46,1.16,1.73.06.03.06.16,0,.18-.56.25-.99.91-1.16,1.74-.02.09-.1.09-.12,0-.18-.81-.62-1.46-1.16-1.73-.06-.03-.06-.16,0-.19.55-.27.97-.92,1.16-1.73h0Z"/>
  <path d="M3.7,15.26c.03-.14.16-.13.19,0,.27,1.22.92,2.19,1.73,2.6.09.04.09.23,0,.27-.84.38-1.49,1.36-1.74,2.61-.03.13-.15.13-.18,0-.27-1.22-.92-2.19-1.73-2.6-.09-.04-.09-.24,0-.28.82-.41,1.46-1.37,1.73-2.6h0Z"/>
  <path d="M1.2,12.07c.02-.09.1-.09.13,0,.18.81.62,1.46,1.16,1.73.06.03.06.16,0,.18-.56.25-.99.91-1.16,1.74-.02.09-.1.09-.12,0-.18-.81-.62-1.46-1.16-1.73-.06-.03-.06-.16,0-.19.55-.27.97-.92,1.16-1.73h0Z"/>
  <path d="M12,14.65h.02c1.45-.01,2.63-1.18,2.64-2.64v-.02c0-1.46-1.18-2.64-2.64-2.65h-.02c-1.46,0-2.65,1.19-2.65,2.65v.02c.01,1.46,1.19,2.64,2.65,2.64Z"/>
  <path d="M20.21,9.79v6.09c0,1-.77,1.8-1.71,1.8H6.59c-.06-.23-.21-.5-.54-.67-.47-.24-1-.91-1.23-1.96-.07-.3-.35-.83-1-.84h-.02v-5.19c0-1,.77-1.8,1.71-1.8h.89c.98,0,1.91-.46,2.5-1.23l.2-.26c.32-.42.81-.67,1.33-.67h3.51c.51,0,1,.24,1.32.66l.22.28c.6.77,1.52,1.22,2.49,1.22h.32c.37.33.73.92.91,1.73.07.3.36.84,1.01.84h0ZM8.3,11.29s-.72.72-.72.72l.73.73c.3,1.49,1.48,2.66,2.98,2.95l.72.72.73-.73c1.48-.3,2.64-1.46,2.94-2.94l.73-.73-.72-.72c-.28-1.5-1.46-2.68-2.95-2.98l-.73-.73-.72.72c-1.51.29-2.7,1.48-2.99,2.99Z"/>
</svg>
