<?xml version="1.0" encoding="UTF-8"?>
<svg width="24px" height="24px" viewBox="0 0 38 28">
  <path class="b" d="M34.9,4.28c-1.28-.64-2.32-2.19-2.74-4.11-.05-.22-.25-.22-.3,0-.43,1.95-1.45,3.47-2.75,4.12-.14.07-.14.38,0,.45,1.01.51,1.86,1.58,2.39,2.96.13.33.23.68.32,1.04,0,.04.02.08.03.12.01.05.03.09.06.11,0,0,.02,0,.03.02.02.01.03.02.05.03,0,0,0,0,0,0,.06,0,.13-.04.15-.15.4-1.99,1.43-3.54,2.76-4.14.14-.06.14-.36,0-.43Z"/>
  <path class="b" d="M37.93,10.85c-.86-.43-1.54-1.46-1.83-2.74-.03-.14-.17-.15-.2,0-.29,1.3-.97,2.31-1.83,2.75-.1.05-.09.25,0,.3.86.43,1.54,1.46,1.83,2.74.03.14.16.14.19,0,.26-1.32.96-2.36,1.84-2.76.09-.04.09-.24,0-.29Z"/>
  <path class="b" d="M8.32,22.91c-.13-.1-.25-.2-.37-.31-.05-.05-.1-.1-.14-.15-.14-.15-.28-.31-.41-.49-.04-.05-.08-.1-.12-.16-.15-.22-.3-.46-.43-.71-.04-.08-.08-.17-.12-.25-.06-.12-.12-.25-.17-.38-.02-.05-.04-.1-.06-.16-.12-.32-.23-.66-.31-1.01-.01-.04-.02-.08-.03-.13-.01-.05-.03-.09-.06-.12,0,0-.02,0-.03-.01-.02-.01-.04-.03-.06-.03,0,0,0,0,0,0h0c-.06,0-.12.05-.15.16-.43,1.95-1.45,3.47-2.75,4.12-.14.07-.14.38,0,.45,1.28.64,2.31,2.19,2.74,4.11.05.21.24.21.29,0,.4-1.99,1.43-3.54,2.76-4.14.14-.06.14-.36,0-.43-.2-.1-.39-.23-.58-.37Z"/>
  <path class="b" d="M3.93,17.14c.09-.04.09-.24,0-.29-.86-.43-1.54-1.46-1.83-2.74-.03-.14-.17-.15-.2,0-.29,1.3-.97,2.31-1.83,2.75-.1.05-.09.25,0,.3.86.43,1.54,1.46,1.83,2.74.03.14.16.14.19,0,.26-1.32.96-2.36,1.84-2.76Z"/>
  <path class="b" d="M19.03,9.8h-.03c-2.32,0-4.2,1.88-4.2,4.2v.03c.01,2.31,1.89,4.17,4.2,4.17h.03c2.3-.01,4.16-1.88,4.17-4.17v-.03c0-2.31-1.87-4.19-4.17-4.2Z"/>
  <path class="b" d="M30.39,9.17c-.29-1.29-.85-2.21-1.44-2.74h-.51c-1.55,0-3-.71-3.95-1.94l-.34-.44c-.51-.66-1.28-1.05-2.1-1.05h-5.55c-.82,0-1.59.39-2.1,1.06l-.32.42c-.95,1.23-2.41,1.95-3.96,1.95h-1.4c-1.5,0-2.71,1.28-2.71,2.86v8.21s.02,0,.03,0c1.02.02,1.48.86,1.58,1.34.37,1.66,1.21,2.73,1.95,3.1.53.26.76.7.86,1.06h18.86c1.5,0,2.71-1.28,2.71-2.86v-9.64h0c-1.04,0-1.5-.85-1.61-1.33ZM24.84,15.19c-.47,2.34-2.31,4.18-4.65,4.65l-1.16,1.16-1.15-1.15c-2.37-.45-4.24-2.3-4.72-4.66l-1.16-1.16,1.15-1.15c.45-2.39,2.34-4.28,4.74-4.74l1.15-1.15,1.16,1.16c2.36.48,4.21,2.35,4.66,4.72l1.15,1.15-1.16,1.16Z"/>
</svg>
