<?xml version="1.0" encoding="UTF-8"?>
<svg width="24px" height="24px" viewBox="0 0 24 24" version="1.1">
  <path d="M 12.09375 8.734375 C 12.453125 8.734375 12.898438 8.488281 13.164062 8.15625 C 13.40625 7.855469 13.582031 7.4375 13.582031 7.019531 C 13.582031 6.960938 13.578125 6.902344 13.566406 6.855469 C 13.171875 6.871094 12.691406 7.132812 12.40625 7.476562 C 12.179688 7.742188 11.976562 8.15625 11.976562 8.582031 C 11.976562 8.644531 11.984375 8.707031 11.988281 8.726562 C 12.015625 8.730469 12.054688 8.734375 12.09375 8.734375 Z M 10.839844 15 C 11.328125 15 11.542969 14.664062 12.152344 14.664062 C 12.769531 14.664062 12.902344 14.988281 13.445312 14.988281 C 13.980469 14.988281 14.335938 14.480469 14.671875 13.984375 C 15.046875 13.414062 15.203125 12.855469 15.214844 12.832031 C 15.179688 12.820312 14.160156 12.390625 14.160156 11.183594 C 14.160156 10.140625 14.964844 9.667969 15.007812 9.632812 C 14.476562 8.84375 13.667969 8.824219 13.445312 8.824219 C 12.847656 8.824219 12.363281 9.195312 12.054688 9.195312 C 11.722656 9.195312 11.285156 8.84375 10.769531 8.84375 C 9.785156 8.84375 8.785156 9.683594 8.785156 11.269531 C 8.785156 12.25 9.15625 13.292969 9.613281 13.964844 C 10.007812 14.535156 10.347656 15 10.839844 15 Z M 10.839844 15 "/>
</svg>
