<?xml version="1.0" encoding="UTF-8" standalone="no"?>
<svg width="24" height="24" viewBox="0 0 24 24" version="1.1">
  <path d="m 6.346152,0.8 c 0,-0.441828 -0.358168,-0.8 -0.8,-0.8 H 2.769232 C 1.239824,0 0,1.239824 0,2.769232 v 2.77692 c 0,0.441832 0.358172,0.8 0.8,0.8 h 0.246152 c 0.441832,0 0.8,-0.358168 0.8,-0.8 v -2.77692 c 0,-0.5098 0.41328,-0.92308 0.92308,-0.92308 h 2.77692 c 0.441832,0 0.8,-0.358168 0.8,-0.8 z M 18.45384,1.846152 c -0.44184,0 -0.8,-0.358168 -0.8,-0.8 V 0.8 c 0,-0.441828 0.35816,-0.8 0.8,-0.8 H 21.2308 C 22.76016,0 24,1.239824 24,2.769232 v 2.77692 c 0,0.441832 -0.35816,0.8 -0.8,0.8 h -0.24616 c -0.44184,0 -0.8,-0.358168 -0.8,-0.8 v -2.77692 c 0,-0.5098 -0.41328,-0.92308 -0.92304,-0.92308 z m -0.8,21.107688 c 0,-0.44184 0.35816,-0.8 0.8,-0.8 h 2.77696 c 0.50976,0 0.92304,-0.41328 0.92304,-0.92304 v -2.77696 c 0,-0.44184 0.35816,-0.8 0.8,-0.8 H 23.2 c 0.44184,0 0.8,0.35816 0.8,0.8 V 21.2308 C 24,22.76016 22.76016,24 21.2308,24 h -2.77696 c -0.44184,0 -0.8,-0.35816 -0.8,-0.8 z m -16.607688,-5.3 c 0.441832,0 0.8,0.35816 0.8,0.8 v 2.77696 c 0,0.50976 0.41328,0.92304 0.92308,0.92304 h 2.77692 c 0.441832,0 0.8,0.35816 0.8,0.8 V 23.2 c 0,0.44184 -0.358168,0.8 -0.8,0.8 H 2.769232 C 1.239824,24 0,22.76016 0,21.2308 v -2.77696 c 0,-0.44184 0.358172,-0.8 0.8,-0.8 z"/>
  <path d="m 3.2,6.021232 c 4.703176,0.48088 8.41024,2.190368 11.1212,5.128528 l 0.08184,0.08944 c 0.10608,0.1168 0.40072,0.44712 0.62576,0.36536 0.2204,-0.08008 0.48824,-0.57224 0.61216,-0.76024 l 0.01968,-0.02944 c 0.20048,-0.30184 0.7852,-1.26368 2.02864,-1.66456 1.25616,-0.40496 2.84448,0.03712 2.9328,0.0656 l 0.01232,0.00424 c 0.10624,0.03744 0.2084,0.08672 0.14712,0.17264 -0.0632,0.08864 -0.6004,0.30208 -0.96528,0.99912 -0.39048,0.74568 -0.61992,2.18832 -0.67624,2.50624 -0.22176,1.30928 -0.75352,2.52336 -1.52264,3.55512 -1.35312,1.81536 -3.44096,3.0664 -5.86752,3.2796 -1.32656,0.11648 -2.60704,-0.09016 -3.764448,-0.55496 1.402528,-0.13744 3.099968,-0.8024 4.463488,-2.39456 1.7204,-2.0088 -0.1624,-0.96576 -1.77912,-1.23168 C 9.53704,15.36544 8.61512,14.78408 7.06772,12.81784 7.564104,12.6792 8.54264,12.51016 9.332,12.47648 7.871992,12.1416 5.935144,11.21928 5.078192,9.79848 5.766888,9.55984 6.673112,9.64648 7.39716,9.67784 4.639448,8.02024 3.450104,7.127304 3.2,6.021232 Z m 6.6,-1.78588 0.01248,0.00594 C 10.06032,4.357648 12.43912,5.413232 13.6,6.978528 15.2548,9.20992 15.31616,11.35944 14.86664,10.86808 13.81048,9.7136 12.83952,8.97432 11.63872,8.14544 10.71936,7.510792 10.10496,5.702032 9.8,4.235352 Z M 18.34504,9.8016 c -0.22072,0.01928 -0.384,0.21392 -0.36464,0.43456 0.01928,0.22072 0.21384,0.384 0.43456,0.36472 0.22072,-0.01936 0.384,-0.21392 0.36464,-0.43464 C 18.76032,9.9456 18.56576,9.78232 18.34504,9.8016 Z"/>
</svg>
