<?xml version="1.0" encoding="UTF-8" standalone="no"?>
<svg width="24" height="24" viewBox="0 0 24 24" version="1.1">
  <path d="m 13.364095,23.5656 c -0.246981,-0.289527 -0.37632,-0.627491 -0.387992,-1.013673 -0.01078,-0.385963 0.118538,-0.723927 0.387992,-1.013476 l 3.873382,-4.162887 H 3.5290917 c -0.3817309,0 -0.7019345,-0.139004 -0.9606109,-0.417011 C 2.310699,16.681505 2.181819,16.337847 2.181819,15.9276 V 1.4479636 c 0,-0.410256 0.12888,-0.75438978 0.3866618,-1.03239705 C 2.8271572,0.13852211 3.1473608,0 3.5290917,0 3.9108008,0 4.2310045,0.13852211 4.4896808,0.41556655 4.7474626,0.69357382 4.8763426,1.0377076 4.8763426,1.4479636 V 14.479636 H 17.237477 L 13.33043,10.280553 C 13.083426,10.015091 12.954546,9.6830182 12.943768,9.2843345 12.932074,8.8866327 13.060975,8.5429964 13.33043,8.2534036 c 0.269454,-0.2895927 0.589636,-0.4286181 0.960589,-0.4170327 0.370058,0.012567 0.689804,0.1515709 0.959258,0.4170327 l 6.197411,6.6606324 c 0.134727,0.144786 0.230378,0.301659 0.286953,0.470575 0.0557,0.168938 0.08354,0.34992 0.08354,0.542989 0,0.193069 -0.02784,0.374051 -0.08354,0.542989 -0.05657,0.168916 -0.152226,0.325789 -0.286953,0.470596 l -6.197411,6.660633 C 15.003274,23.867345 14.694743,24 14.324706,24 13.953754,24 13.63355,23.855127 13.364095,23.5656 Z"/>
</svg>
