<?xml version="1.0" encoding="UTF-8" standalone="no"?>
<svg width="24" height="24" viewBox="0 0 24 24" version="1.1">
  <path d="M 12,0 A 12,12 0 0 0 0,12 12,12 0 0 0 12,24 12,12 0 0 0 24,12 12,12 0 0 0 12,0 Z m 0,5.0909091 c 0.226691,0 0.453177,0.081492 0.599432,0.2457386 l 6.142045,6.9161933 c 0.09004,0.101745 0.147135,0.224312 0.163353,0.353693 0.01622,0.129309 -0.0084,0.260532 -0.07103,0.377841 -0.06262,0.117381 -0.161763,0.21613 -0.284091,0.285512 -0.122253,0.06945 -0.263161,0.106315 -0.40767,0.106533 h -2.34375 c -0.401672,0 -0.727273,0.325601 -0.727273,0.727273 v 4.113636 c 0,0.183419 -0.0805,0.358964 -0.224432,0.488637 -0.143993,0.129673 -0.340391,0.203125 -0.544027,0.203125 H 9.6974429 c -0.2036356,0 -0.4000342,-0.07345 -0.5440334,-0.203125 -0.1439273,-0.129673 -0.224432,-0.305218 -0.224432,-0.488637 v -4.113636 c 0,-0.401672 -0.3256008,-0.727273 -0.7272728,-0.727273 H 5.8579545 C 5.7134165,13.376202 5.5725749,13.339344 5.4502841,13.269887 5.3279933,13.200505 5.228804,13.101756 5.1661932,12.984375 5.1035822,12.867066 5.0789452,12.735843 5.0951702,12.606534 5.1114032,12.477153 5.1684212,12.354586 5.2585225,12.252841 L 11.400568,5.3366477 C 11.546823,5.1724007 11.773309,5.0909091 12,5.0909091 Z"/>
</svg>
