<?xml version="1.0" encoding="UTF-8" standalone="no"?>
<svg width="24" height="24" viewBox="0 0 24 24" version="1.1">
  <path d="M 12,0 C 5.3812105,0 0,5.3812105 0,12 0,18.61879 5.3812105,24 12,24 18.61879,24 24,18.61879 24,12 24,5.3812105 18.61879,0 12,0 Z m 0,1.4545455 C 17.832696,1.4545455 22.545455,6.1673036 22.545455,12 22.545455,17.832696 17.832696,22.545455 12,22.545455 6.1673036,22.545455 1.4545455,17.832696 1.4545455,12 1.4545455,6.1673036 6.1673036,1.4545455 12,1.4545455 Z m 0,2.9090909 c -0.402337,0 -0.829072,0.1369852 -1.143466,0.4900568 L 4.7144887,11.769887 v 0.0015 c -0.1826195,0.206219 -0.305843,0.464826 -0.3409091,0.744318 -0.035082,0.279588 0.020817,0.565313 0.1519885,0.81108 0.1310833,0.245752 0.329811,0.441657 0.565341,0.575284 0.2355313,0.133769 0.4978721,0.2013 0.765625,0.201704 h 0.00142 2.3437502 v 4.113637 c 0,0.397389 0.1796982,0.771965 0.4659091,1.029829 0.2862717,0.257719 0.6526877,0.389171 1.0298295,0.389171 h 4.6051141 c 0.377142,0 0.74356,-0.131418 1.029829,-0.389205 0.286211,-0.257864 0.465909,-0.63244 0.465909,-1.02983 v -4.113636 h 2.34375 0.0015 c 0.267714,-4.04e-4 0.529972,-0.06782 0.765624,-0.201705 0.235666,-0.133664 0.434323,-0.329683 0.565341,-0.575283 0.131227,-0.245842 0.187043,-0.531595 0.151989,-0.81108 -0.03505,-0.279682 -0.158538,-0.538229 -0.340909,-0.744318 v -0.0015 L 13.143466,4.8536932 C 12.829072,4.5006216 12.402337,4.3636364 12,4.3636364 Z m 0,1.4545454 c 0.05105,0 0.0787,0.027416 0.05682,0.00284 l 6.063921,6.8281252 h -2.322444 c -0.794694,0 -1.454546,0.65985 -1.454546,1.454545 v 4.066761 c -0.0094,0.0047 -0.01934,0.01136 -0.04119,0.01136 H 9.6974429 c -0.021847,0 -0.031833,-0.0067 -0.041193,-0.01137 v -4.066762 c 0,-0.794694 -0.6598517,-1.454545 -1.4545455,-1.454545 H 5.8792614 L 11.943182,5.8210227 c -0.02189,0.024578 0.0058,-0.00284 0.05682,-0.00284 z"/>
</svg>
