<?xml version="1.0" encoding="UTF-8" standalone="no"?>
<svg width="24" height="24" viewBox="0 0 24 24" version="1.1">
  <path d="M 13.263211,0.55416 C 12.915781,0.199314 12.444826,0 11.953801,0 11.462761,0 10.991806,0.199314 10.644391,0.55416 L 2.6149809,8.76525 c -0.327315,0.359205 -0.5055,0.834315 -0.497025,1.325205 0.00848,0.490905 0.202935,0.95928 0.54243,1.306455 0.33948,0.34716 0.79749,0.54603 1.277535,0.5547 0.48003,0.0087 0.944625,-0.173565 1.29588,-0.508275 L 10.100851,6.466155 V 22.1052 c 0,0.5025 0.195225,0.98445 0.542715,1.3398 0.347505,0.35535 0.818805,0.555 1.310235,0.555 0.49143,0 0.96273,-0.19965 1.31022,-0.555 0.34749,-0.35535 0.542715,-0.8373 0.542715,-1.3398 V 6.466155 l 4.867095,4.97718 c 0.16965,0.186165 0.3741,0.33549 0.6015,0.439065 0.22725,0.10356 0.47265,0.159255 0.72135,0.16374 0.24885,0.0045 0.49605,-0.04231 0.72675,-0.137625 0.2307,-0.0953 0.44025,-0.23715 0.6162,-0.417075 0.17595,-0.17994 0.3147,-0.39426 0.40785,-0.63021 0.0933,-0.23595 0.13905,-0.48867 0.13455,-0.7431 -0.0043,-0.254415 -0.0588,-0.505335 -0.16005,-0.737775 -0.10125,-0.232425 -0.24735,-0.44163 -0.4293,-0.615105 z"/>
</svg>
