<?xml version="1.0" encoding="UTF-8" standalone="no"?>
<svg width="24" height="24" viewBox="0 0 24 24" version="1.1">
  <path d="M 12,0 A 12,12 0 0 0 0,12 12,12 0 0 0 12,24 12,12 0 0 0 24,12 12,12 0 0 0 12,0 Z M 9.6974429,5.0909091 h 4.6051141 c 0.203636,0 0.400034,0.073431 0.544034,0.203125 0.143927,0.1296944 0.224432,0.3052256 0.224432,0.4886364 v 4.1136364 c 0,0.4016721 0.3256,0.7272731 0.727272,0.7272731 h 2.34375 c 0.144509,2.18e-4 0.285417,0.03708 0.407671,0.106533 0.122327,0.06938 0.221472,0.168131 0.284091,0.285512 0.06262,0.117309 0.08724,0.248532 0.07102,0.377841 -0.01622,0.129381 -0.07332,0.251948 -0.163353,0.353693 l -6.142045,6.916193 c -0.292509,0.328509 -0.906355,0.328509 -1.198864,0 L 5.2585228,11.747159 C 5.168421,11.645341 5.1114032,11.522847 5.0951705,11.393466 c -0.016226,-0.129309 0.00841,-0.260532 0.071022,-0.377841 0.062611,-0.117381 0.1618002,-0.21613 0.2840909,-0.285512 0.1222909,-0.06945 0.2631325,-0.106315 0.4076705,-0.106533 h 2.3437503 c 0.401672,0 0.7272728,-0.325601 0.7272728,-0.7272731 V 5.7826705 c 0,-0.1834108 0.080505,-0.358942 0.224432,-0.4886364 0.1439992,-0.1296944 0.3403978,-0.203125 0.5440339,-0.203125 z"/>
</svg>
