<?xml version="1.0" encoding="UTF-8" standalone="no"?>
<svg width="24" height="24" viewBox="0 0 24 24" version="1.1">
  <path d="M 12,0 C 5.3812105,0 0,5.3812105 0,12 0,18.61879 5.3812105,24 12,24 18.61879,24 24,18.61879 24,12 24,5.3812105 18.61879,0 12,0 Z m 0,1.4545455 C 17.832696,1.4545455 22.545455,6.1673036 22.545455,12 22.545455,17.832696 17.832696,22.545455 12,22.545455 6.1673036,22.545455 1.4545455,17.832696 1.4545455,12 1.4545455,6.1673036 6.1673036,1.4545455 12,1.4545455 Z M 9.6974429,4.3636364 c -0.3771069,0 -0.7435309,0.1313477 -1.0298291,0.3892045 -0.2861214,0.257827 -0.4659091,0.6324393 -0.4659091,1.0298296 v 4.1136364 h -2.3437502 -0.00142 c -0.2677529,4.044e-4 -0.5300937,0.067935 -0.765625,0.2017051 -0.23553,0.133627 -0.4342577,0.329531 -0.565341,0.575283 -0.1311718,0.245767 -0.1870708,0.531492 -0.1519885,0.81108 0.03507,0.279525 0.1585859,0.538287 0.3409091,0.744318 v 0.0014 l 6.1420449,6.916194 c 0.314389,0.353047 0.741122,0.490057 1.143466,0.490057 0.402344,0 0.829077,-0.136976 1.143466,-0.490057 l 6.142045,-6.916194 v -0.0014 c 0.182372,-0.206089 0.305851,-0.464636 0.340909,-0.744318 0.03505,-0.279485 -0.02076,-0.565238 -0.151988,-0.81108 C 19.343414,10.427729 19.144756,10.231676 18.909091,10.098012 18.673439,9.9641338 18.411214,9.8967113 18.143466,9.8963069 h -0.0014 -2.34375 V 5.7826705 c 0,-0.3973903 -0.179787,-0.7720026 -0.465909,-1.0298296 -0.286286,-0.2578568 -0.652743,-0.3892045 -1.02985,-0.3892045 z m 0,1.4545454 h 4.6051141 c 0.02188,0 0.03186,0.00669 0.04119,0.011364 v 4.0667614 c 0,0.7946938 0.659851,1.4545448 1.454545,1.4545448 h 2.322444 l -6.063921,6.828125 c 0.02188,-0.02457 -0.0058,0.0028 -0.05682,0.0028 -0.05103,0 -0.07869,-0.02742 -0.05682,-0.0028 L 5.8792614,11.350852 h 2.3224433 c 0.7946938,0 1.4545455,-0.659851 1.4545455,-1.4545451 V 5.8295455 c 0.00933,-0.00467 0.019319,-0.011364 0.041193,-0.011364 z"/>
</svg>
