<?xml version="1.0" encoding="UTF-8" standalone="no"?>
<svg width="24" height="24" viewBox="0 0 24 24" version="1.1">
  <path d="m 12.315927,6.25352 c 0.235128,0 0.460655,0.095447 0.626982,0.2653745 L 16.788,10.450982 c 0.0872,0.08305 0.157091,0.1832 0.2056,0.294545 0.04851,0.111273 0.07462,0.231491 0.07665,0.353309 0.0021,0.121819 -0.01978,0.242837 -0.06444,0.355855 -0.04458,0.112945 -0.111054,0.215636 -0.195273,0.301745 -0.08429,0.08618 -0.184654,0.154109 -0.295127,0.199782 -0.110473,0.0456 -0.2288,0.068 -0.348,0.06589 -0.119127,-0.0022 -0.236582,-0.0288 -0.345454,-0.0784 -0.108873,-0.0496 -0.206837,-0.121164 -0.288073,-0.210254 L 13.2032,9.3499636 v 7.4890914 c 0,0.240654 -0.09346,0.47149 -0.259855,0.641672 -0.1664,0.170182 -0.392145,0.265746 -0.627418,0.265746 -0.235345,0 -0.461091,-0.09556 -0.627491,-0.265746 -0.1664,-0.170182 -0.259854,-0.401018 -0.259854,-0.641672 V 9.3499636 L 9.0978909,11.733455 C 8.9296727,11.893745 8.7072,11.980945 8.4773091,11.9768 8.2474182,11.972655 8.0280727,11.877455 7.8655273,11.7112 7.7029818,11.544945 7.6098182,11.320655 7.6057455,11.0856 c -0.004,-0.235127 0.081309,-0.462618 0.2380363,-0.634618 L 11.688873,6.5188945 C 11.8552,6.3489673 12.080727,6.25352 12.315927,6.25352 Z"/>
</svg>
