<?xml version="1.0" encoding="UTF-8" standalone="no"?>
<svg width="24" height="24" viewBox="0 0 24 24" version="1.1">
  <path d="M 12,0 11.96531,4.9080655e-5 C 11.498618,0.00137071 11.121309,0.38079127 11.122691,0.84751273 11.124,1.3142255 11.503418,1.6915055 11.970109,1.6901818 L 12,1.6901382 l 0.02989,4.36e-5 C 12.496582,1.6915055 12.876,1.3142255 12.877309,0.84750545 12.878691,0.38079127 12.501382,0.00137063 12.034691,4.9080655e-5 Z m 5.971636,1.5892073 C 17.566982,1.35664 17.050473,1.4961309 16.817891,1.9007782 16.585309,2.3054182 16.7248,2.8219855 17.129455,3.05456 l 0.05135,0.029702 c 0.403273,0.2349018 0.920655,0.098386 1.155564,-0.3049163 0.234909,-0.4032946 0.09833,-0.9206619 -0.304946,-1.1555564 z M 6.8705527,3.05456 C 7.2752,2.8219855 7.4146909,2.3054182 7.1821236,1.9007782 6.9495491,1.4961309 6.4329818,1.35664 6.0283418,1.5892073 l -0.059767,0.034582 C 5.5652727,1.8586909 5.4287564,2.3760509 5.6636582,2.7793455 5.8985527,3.1826473 6.4159127,3.3191636 6.8192145,3.0842618 Z M 22.376218,5.9685745 C 22.141309,5.5652727 21.623927,5.4287564 21.220655,5.6636582 20.817382,5.8985527 20.680873,6.4159127 20.915709,6.8192145 l 0.02975,0.051338 C 21.178036,7.2752 21.694545,7.4146909 22.0992,7.1821236 22.503855,6.9495491 22.643345,6.4329818 22.410764,6.0283418 Z M 3.0842618,6.8192145 C 3.3191636,6.41592 3.1826473,5.8985527 2.7793455,5.6636582 2.3760509,5.4287564 1.8586836,5.5652727 1.6237891,5.9685745 l -0.034582,0.059767 C 1.35664,6.4329891 1.4961309,6.9495491 1.9007782,7.1821236 2.3054182,7.4146909 2.8219855,7.2752 3.05456,6.8705527 Z M 23.999927,11.965309 c -0.0013,-0.466691 -0.380727,-0.844 -0.847418,-0.842618 -0.466764,0.0013 -0.844,0.380727 -0.842691,0.847418 l 7.3e-5,0.02989 -7.3e-5,0.02989 c -0.0013,0.466691 0.375927,0.846109 0.842691,0.847418 0.466691,0.0014 0.846109,-0.375927 0.847418,-0.842618 L 24,12 Z m -22.3097452,0.0048 C 1.6915055,11.503418 1.3142255,11.124 0.84750545,11.122691 0.38079127,11.121309 0.00137063,11.498618 4.9080655e-5,11.965309 L 0,12 4.9080655e-5,12.034691 C 0.00137071,12.501382 0.38079127,12.878691 0.84751273,12.877309 1.3142255,12.876 1.6915055,12.496582 1.6901818,12.029891 L 1.6901382,12 Z m 20.7205822,6.001527 c 0.232581,-0.404654 0.09309,-0.921163 -0.311564,-1.153745 -0.404655,-0.232582 -0.921164,-0.09309 -1.153745,0.311564 l -0.02975,0.05135 c -0.234836,0.403273 -0.09833,0.920655 0.304946,1.155564 0.403272,0.234909 0.920654,0.09833 1.155563,-0.304946 z M 3.05456,17.129455 C 2.8219855,16.7248 2.3054182,16.585309 1.9007782,16.817891 1.4961309,17.050473 1.35664,17.566982 1.5892073,17.971636 l 0.034582,0.05978 c 0.2349018,0.403273 0.7522618,0.539855 1.1555564,0.304946 0.4033018,-0.234909 0.5398181,-0.752291 0.3049163,-1.155564 z m 14.976858,5.246763 c 0.403273,-0.234909 0.539855,-0.752291 0.304946,-1.155563 -0.234909,-0.403273 -0.752291,-0.539782 -1.155564,-0.304946 l -0.05135,0.02975 c -0.404655,0.232581 -0.544146,0.74909 -0.311564,1.153745 0.232582,0.404655 0.749091,0.544145 1.153745,0.311564 z M 6.8192145,20.915709 C 6.41592,20.680873 5.8985527,20.817382 5.6636582,21.220655 c -0.2349018,0.403272 -0.098386,0.920654 0.3049163,1.155563 l 0.059767,0.03455 C 6.4329891,22.643345 6.9495491,22.503855 7.1821236,22.0992 7.4146909,21.694545 7.2752,21.178036 6.8705527,20.945455 Z m 5.1508945,1.394109 c -0.466691,-0.0013 -0.846109,0.375927 -0.847418,0.842691 -0.0014,0.466691 0.375927,0.846109 0.842618,0.847418 L 12,24 l 0.03469,-7.3e-5 c 0.466691,-0.0013 0.844,-0.380727 0.842618,-0.847418 -0.0013,-0.466764 -0.380727,-0.844 -0.847418,-0.842691 L 12,22.309891 Z M 12.315927,6.25352 c 0.235128,0 0.460655,0.095447 0.626982,0.2653745 L 16.788,10.450982 c 0.0872,0.08305 0.157091,0.1832 0.2056,0.294545 0.04851,0.111273 0.07462,0.231491 0.07665,0.353309 0.0021,0.121819 -0.01978,0.242837 -0.06444,0.355855 -0.04458,0.112945 -0.111054,0.215636 -0.195273,0.301745 -0.08429,0.08618 -0.184654,0.154109 -0.295127,0.199782 -0.110473,0.0456 -0.2288,0.068 -0.348,0.06589 -0.119127,-0.0022 -0.236582,-0.0288 -0.345454,-0.0784 -0.108873,-0.0496 -0.206837,-0.121164 -0.288073,-0.210254 L 13.2032,9.3499636 v 7.4890914 c 0,0.240654 -0.09346,0.47149 -0.259855,0.641672 -0.1664,0.170182 -0.392145,0.265746 -0.627418,0.265746 -0.235345,0 -0.461091,-0.09556 -0.627491,-0.265746 -0.1664,-0.170182 -0.259854,-0.401018 -0.259854,-0.641672 V 9.3499636 L 9.0978909,11.733455 C 8.9296727,11.893745 8.7072,11.980945 8.4773091,11.9768 8.2474182,11.972655 8.0280727,11.877455 7.8655273,11.7112 7.7029818,11.544945 7.6098182,11.320655 7.6057455,11.0856 c -0.004,-0.235127 0.081309,-0.462618 0.2380363,-0.634618 L 11.688873,6.5188945 C 11.8552,6.3489673 12.080727,6.25352 12.315927,6.25352 Z"/>
</svg>
