<?xml version="1.0" encoding="utf-8"?>
<!-- Generator: Adobe Illustrator 27.7.0, SVG Export Plug-In . SVG Version: 6.00 Build 0)  -->
<svg version="1.1" x="0px" y="0px" width="24" height="24" viewBox="0 0 24 24" space="preserve">
  <style type="text/css">
	.st0{fill:#454545;}
</style>
  <path class="st0" d="M20.5,3.5L20.5,3.5L20.5,3.5C18.2,1.3,15.2,0,12,0S5.8,1.3,3.5,3.5C1.3,5.8,0,8.8,0,12s1.3,6.2,3.5,8.5  C5.8,22.7,8.8,24,12,24s6.2-1.3,8.5-3.5c2.3-2.3,3.5-5.3,3.5-8.5S22.7,5.8,20.5,3.5z M4.4,16.7c-0.9-1.4-1.3-3.1-1.3-4.7  c0-2.4,1-4.7,2.6-6.3S9.6,3.1,12,3.1c1.6,0,3.3,0.4,4.7,1.3C17,4.6,17,4.9,16.8,5.1L5.1,16.8C4.9,17,4.5,17,4.4,16.7z M18.3,18.3  c-1.6,1.6-3.9,2.6-6.3,2.6c-1.6,0-3.3-0.4-4.7-1.3C7,19.4,7,19.1,7.2,18.9L18.9,7.2C19.1,7,19.5,7,19.6,7.3c0.9,1.4,1.3,3.1,1.3,4.7  C20.9,14.4,20.1,16.7,18.3,18.3z"/>
</svg>
