<?xml version="1.0" encoding="UTF-8" standalone="no"?>
<svg width="24" height="24" viewBox="0 0 24 24" version="1.1">
  <path d="m 17.9998,0 c 0.631193,0 1.142787,0.51167165 1.142787,1.1428513 V 3.4285486 H 13.999978 V 1.1428513 C 13.999978,0.51167165 14.511572,0 15.142765,0 Z M 9.4281219,4.5715225 V 14.857168 l -0.8570971,0.571461 v 7.42845 c 0,0.602527 -0.4661949,1.096122 -1.0575216,1.139721 L 7.4282241,24 H 1.1428033 C 0.54033933,24 0.04676055,23.533739 0.00313455,22.942412 L 0,22.857079 v -6.85699 L 3.4284019,4.5715225 Z m 11.1432491,0 3.428496,11.4285665 v 6.85699 C 23.999867,23.488272 23.488139,24 22.856946,24 h -6.285397 c -0.631059,0 -1.142787,-0.511728 -1.142787,-1.142921 v -7.42845 L 14.571705,14.857168 V 4.5715225 Z m -6.85739,9.7141855 V 4.5715225 H 10.285606 V 14.285708 Z M 9.9964223,1.0575589 C 9.9527961,0.46621349 9.4592149,0 8.8567549,0 H 5.9997467 L 5.9144676,0.00313469 C 5.3231409,0.04676255 4.856946,0.540362 4.856946,1.1428513 V 3.4285486 H 9.9995556 V 1.1428513 Z"/>
</svg>
