<?xml version="1.0" encoding="UTF-8" standalone="no"?>
<svg width="24" height="24" viewBox="0 0 24 24" version="1.1">
  <path d="M 1.6579202,3.1311067 4.3334135,0.338768 C 4.5412535,0.12185853 4.8231335,0 5.1170535,0 H 21.5584 c 0.612133,0 1.108266,0.51783867 1.108266,1.1566267 V 19.524 c 0,0.276 -0.09467,0.543067 -0.266799,0.752667 l -1.395601,1.6992 V 2.0240933 H 6.0432935 l -1.9394,2.0240934 H 17.6796 c 0.612133,0 1.108266,0.51784 1.108266,1.1566266 V 22.843333 C 18.787866,23.482133 18.291733,24 17.6796,24 H 2.4415602 C 1.8295068,24 1.3333335,23.482133 1.3333335,22.843333 V 3.9489733 c 0,-0.30676 0.11676,-0.6009466 0.3245867,-0.8178666 z"/>
</svg>
