<?xml version="1.0"?>
<svg width="24" height="24" viewBox="0 0 22 22">
  <path d="M21.5 15.5C21.7761 15.5 22 15.7239 22 16V17C22 18.6569 20.5929 20 18.8571 20H3.14286C1.4071 20 0 18.6569 0 17V16C0 15.7239 0.223858 15.5 0.5 15.5H21.5ZM14.6584 2.9938L14.6667 3.125L14.6663 4.87488C14.6662 5.15107 14.8901 5.375 15.1663 5.375H18.8571C20.5929 5.375 22 6.71815 22 8.375V12.75C22 13.0261 21.7761 13.25 21.5 13.25H13.9444C13.6683 13.25 13.4444 13.0261 13.4444 12.75V12.5C13.4444 11.6716 12.7409 11 11.873 11H10.127C9.25911 11 8.55555 11.6716 8.55555 12.5V12.75C8.55555 13.0261 8.3317 13.25 8.05555 13.25H0.500001C0.223858 13.25 0 13.0261 0 12.75V8.375C0 6.71815 1.4071 5.375 3.14286 5.375H6.83252C7.10857 5.375 7.33239 5.15128 7.33252 4.87523L7.33333 3.125C7.33333 2.54806 7.80516 2.07256 8.41302 2.00757L8.55555 2H13.4444C14.0712 2 14.5878 2.43429 14.6584 2.9938ZM12.833 4.18781C12.8332 3.91155 12.6093 3.6875 12.333 3.6875H9.66651C9.39043 3.6875 9.1666 3.91126 9.16651 4.18735L9.1663 4.87485C9.16621 5.15105 9.3901 5.375 9.6663 5.375H12.3326C12.6086 5.375 12.8324 5.15133 12.8326 4.87531L12.833 4.18781Z"/>
</svg>
