<?xml version="1.0"?>
<svg width="24" height="24" viewBox="0 0 22 18">
  <path d="M21.5 13.5C21.7761 13.5 22 13.7239 22 14V15C22 16.6569 20.5929 18 18.8571 18H3.14286C1.4071 18 0 16.6569 0 15V14C0 13.7239 0.223858 13.5 0.5 13.5H21.5ZM14.6584 0.9938L14.6667 1.125L14.6663 2.87488C14.6662 3.15107 14.8901 3.375 15.1663 3.375H18.8571C20.5929 3.375 22 4.71815 22 6.375V10.75C22 11.0261 21.7761 11.25 21.5 11.25H13.9444C13.6683 11.25 13.4444 11.0261 13.4444 10.75V10.5C13.4444 9.67157 12.7409 9 11.873 9H10.127C9.25911 9 8.55555 9.67157 8.55555 10.5V10.75C8.55555 11.0261 8.3317 11.25 8.05555 11.25H0.500001C0.223858 11.25 0 11.0261 0 10.75V6.375C0 4.71815 1.4071 3.375 3.14286 3.375H6.83252C7.10857 3.375 7.33239 3.15128 7.33252 2.87523L7.33333 1.125C7.33333 0.548059 7.80516 0.0725605 8.41302 0.00757478L8.55555 0H13.4444C14.0712 0 14.5878 0.434295 14.6584 0.9938ZM12.833 2.18781C12.8332 1.91155 12.6093 1.6875 12.333 1.6875H9.66651C9.39043 1.6875 9.1666 1.91126 9.16651 2.18735L9.1663 2.87485C9.16621 3.15105 9.3901 3.375 9.6663 3.375H12.3326C12.6086 3.375 12.8324 3.15133 12.8326 2.87531L12.833 2.18781Z"/>
</svg>
