<?xml version="1.0"?>
<svg width="24" height="24" viewBox="0 0 46 46">
  <circle cx="23" cy="23" r="23"/>
  <path d="M35.8528 9.159C35.9007 8.94348 36.1051 8.94881 36.153 9.16432C36.5812 11.0911 37.6117 12.6358 38.8962 13.278C39.0343 13.3471 39.0351 13.6437 38.8956 13.7063C37.5707 14.3013 36.5342 15.856 36.1375 17.8433C36.0958 18.0526 35.8981 18.0515 35.852 17.8443C35.4238 15.9175 34.394 14.3718 33.1095 13.7295C32.9659 13.6577 32.9623 13.3511 33.106 13.2793C34.4029 12.6308 35.4205 11.1043 35.8528 9.159Z"/>
  <path d="M39.9019 17.106C39.9338 16.9623 40.0701 16.9659 40.102 17.1095C40.3875 18.394 41.0745 19.4238 41.9308 19.852C42.0229 19.8981 42.0234 20.0958 41.9304 20.1375C41.0471 20.5342 40.3561 21.5707 40.0917 22.8956C40.0639 23.0351 39.932 23.0343 39.9013 22.8962C39.6159 21.6117 38.9294 20.5812 38.073 20.153C37.9772 20.1051 37.9749 19.9007 38.0707 19.8528C38.9353 19.4205 39.6137 18.4029 39.9019 17.106Z"/>
  <path d="M9.85283 28.159C9.90073 27.9435 10.1051 27.9488 10.153 28.1643C10.5812 30.091 11.6117 31.6358 12.8962 32.278C13.0343 32.3471 13.0351 32.6437 12.8956 32.7063C11.5707 33.3013 10.5342 34.856 10.1375 36.8433C10.0958 37.0526 9.89805 37.0515 9.852 36.8443C9.42384 34.9175 8.39403 33.3718 7.10955 32.7295C6.96587 32.6577 6.96232 32.3511 7.106 32.2793C8.40288 31.6308 9.42054 30.1043 9.85283 28.159Z"/>
  <path d="M5.90189 23.106C5.93382 22.9623 6.07009 22.9659 6.10202 23.1095C6.38746 24.394 7.07447 25.4238 7.93079 25.852C8.02289 25.8981 8.02338 26.0958 7.93037 26.1375C7.04711 26.5342 6.35611 27.5707 6.0917 28.8956C6.06385 29.0351 5.93204 29.0343 5.90133 28.8962C5.61589 27.6117 4.92936 26.5812 4.07303 26.153C3.97725 26.1051 3.97488 25.9007 4.07067 25.8528C4.93525 25.4205 5.61369 24.4029 5.90189 23.106Z"/>
  <path d="M35.9866 17.9995C35.9295 17.9942 35.8738 17.9423 35.852 17.8443L35.8383 17.7836C35.7427 17.3675 35.619 16.9695 35.4706 16.5951C35.4687 16.5901 35.4667 16.5852 35.4647 16.5802C35.7502 16.9843 35.9367 17.4707 35.9866 17.9995Z"/>
  <path d="M23 27.2003L23.026 27.2002C25.3251 27.186 27.1857 25.3253 27.1999 23.0267L27.2 23.0003C27.2 20.6895 25.3339 18.8146 23.0265 18.8003L23 18.8003C20.6804 18.8003 18.8 20.6807 18.8 23.0003L18.8001 23.0263C18.8143 25.3342 20.6892 27.2003 23 27.2003Z"/>
  <path d="M36 19.5V29.1429C36 30.7209 34.7875 32.0001 33.2917 32.0001H14.4303C14.3303 31.6373 14.0959 31.2008 13.567 30.9364C12.8228 30.5643 11.9862 29.4988 11.6173 27.8389C11.5104 27.3577 11.0556 26.5219 10.0346 26.5004C10.023 26.5001 10.0115 26.5 10 26.4999V18.2858C10 16.7078 11.2126 15.4286 12.7084 15.4286H14.1099C15.6629 15.4286 17.1277 14.707 18.0741 13.4757L18.3954 13.0577C18.9097 12.3887 19.6826 12.0001 20.4991 12.0001H26.0499C26.8622 12.0001 27.6317 12.3847 28.1461 13.048L28.4909 13.4927C29.438 14.714 30.8966 15.4286 32.442 15.4286H32.9508C33.5366 15.9553 34.1021 16.8844 34.3877 18.1697C34.4947 18.6511 34.9592 19.4996 35.9959 19.5C35.9972 19.5 35.9986 19.5 36 19.5ZM17.1462 21.8828C17.6005 19.488 19.488 17.6006 21.8827 17.1463L23.0289 16.0001L24.1893 17.1604C26.5498 17.6385 28.4041 19.5121 28.8538 21.8828L30 23.029L28.8397 24.1893C28.3664 26.5259 26.5259 28.3664 24.1893 28.8397L23.0289 30.0001L21.8827 28.8539C19.512 28.4041 17.6385 26.5499 17.1603 24.1893L16 23.029L17.1462 21.8828Z"/>
  <path d="M12.4087 31.9828C11.0539 31.8254 10 30.614 10 29.1429V28C10.0641 27.9997 10.1287 28.0549 10.153 28.1643L10.1677 28.229C10.2622 28.6398 10.3843 29.0329 10.5304 29.403C10.6205 29.6313 10.7198 29.851 10.8274 30.0607C11.1226 30.6361 11.4807 31.1369 11.885 31.5381L11.9211 31.5736C12.0772 31.7252 12.24 31.862 12.4087 31.9828Z"/>
</svg>
