<?xml version="1.0" encoding="UTF-8" standalone="no"?>
<svg width="24" height="24" viewBox="0 0 24 24" version="1.1">
  <path d="m 9.6923077,1.8031292 c -0.7537185,0 -1.4688183,0.35958 -1.9435097,0.9771635 L 7.453125,3.1661099 C 6.5795082,4.3027108 5.226814,4.9671917 3.7932692,4.9671917 H 2.500601 C 1.119893,4.9671917 0,6.1482455 0,7.6048118 V 17.627048 c 0,1.456521 1.119893,2.63762 2.500601,2.63762 H 21.499399 C 22.880042,20.264668 24,19.083569 24,17.627048 V 7.6048118 C 24,6.1482455 22.880042,4.9671917 21.499399,4.9671917 h -0.784255 c -1.426519,0 -2.772991,-0.6593624 -3.647236,-1.7866587 L 16.750601,2.7712782 C 16.275864,2.1590026 15.564209,1.8031292 14.814303,1.8031292 Z m 2.3347353,3.6923077 1.070914,1.0709134 c 2.179011,0.44135 3.890089,2.1710421 4.305289,4.3593747 l 1.058292,1.058294 -1.070913,1.070914 c -0.436892,2.15695 -2.135718,3.855775 -4.292668,4.292668 L 12.027043,18.418514 10.96875,17.360221 C 8.7804072,16.945021 7.0507342,15.233943 6.609375,13.054933 L 5.5384615,11.984019 6.5967548,10.925725 C 7.016117,8.7152384 8.7582257,6.9730923 10.96875,6.5537302 Z M 12,8.0807734 c -2.1411674,0 -3.876202,1.7350349 -3.876202,3.8762026 v 0.02344 C 8.1369519,14.11078 9.8669557,15.834981 12,15.834981 l 0.02344,-0.0018 c 2.122243,-0.01311 3.839656,-1.72918 3.852764,-3.850961 v -0.02524 c 0,-2.1330447 -1.721056,-3.8630396 -3.850961,-3.8762026 z"/>
</svg>
