<?xml version="1.0" encoding="UTF-8" standalone="no"?>
<svg width="24" height="24" viewBox="0 0 24 24" version="1.1">
  <path d="M 12,0 A 12,12 0 0 0 0,12 12,12 0 0 0 12,24 12,12 0 0 0 24,12 12,12 0 0 0 12,0 Z m 5.921053,7.5789474 c 0.266667,0.00413 0.53233,0.1135844 0.73273,0.3281249 0.4008,0.4290944 0.390722,1.1156097 -0.02221,1.5320724 l -7.874997,7.9391443 c -0.404311,0.407747 -1.0463467,0.407747 -1.4506579,0 l -3.9375,-3.969572 C 4.9554193,12.992255 4.945367,12.305726 5.3462171,11.876645 c 0.4008376,-0.429082 1.06234,-0.438667 1.4753289,-0.0222 l 3.209704,3.239309 7.147203,-7.2088816 c 0.206527,-0.2082313 0.475932,-0.3100562 0.7426,-0.305921 z"/>
</svg>
