<?xml version="1.0" encoding="UTF-8" standalone="no"?>
<svg width="24" height="24" viewBox="0 0 24 24" version="1.1">
  <path d="M 12,0 C 5.3725884,0 0,5.3725884 0,12 0,18.627412 5.3725884,24 12,24 18.627412,24 24,18.627412 24,12 24,5.3725884 18.627412,0 12,0 Z m 0,1.4545455 C 17.824067,1.4545455 22.545455,6.1759113 22.545455,12 22.545455,17.824067 17.824067,22.545455 12,22.545455 6.1759113,22.545455 1.4545455,17.824067 1.4545455,12 1.4545455,6.1759113 6.1759113,1.4545455 12,1.4545455 Z M 17.268466,8 C 17.031184,7.99644 16.79312,8.084386 16.609375,8.2642044 L 10.24858,14.488636 7.3906247,11.693182 c -0.367483,-0.359709 -0.9544032,-0.350659 -1.3110792,0.01989 -0.3566833,0.370618 -0.3475969,0.961387 0.019886,1.321023 l 3.5028408,3.428977 c 0.3597091,0.352072 0.9328327,0.352072 1.2926147,0 L 17.900568,9.6065338 C 18.268059,9.2468982 18.277109,8.6547084 17.920455,8.2840909 17.742127,8.0988182 17.505748,8.0035636 17.268466,8 Z"/>
</svg>
