<?xml version="1.0" encoding="UTF-8" standalone="no"?>
<svg width="24" height="24" viewBox="0 0 24 24" version="1.1">
  <path d="M 12,24 C 18.627415,24 24,18.627415 24,12 24,5.3725846 18.627415,0 12,0 5.3725846,0 0,5.3725846 0,12 0,18.627415 5.3725846,24 12,24 Z M 10.124123,7.1091692 C 9.7889538,6.7618431 9.8040923,6.2135262 10.157813,5.8844677 10.511629,5.5554185 11.07009,5.5702431 11.40526,5.9175687 l 5.29403,5.4866773 c 0.322431,0.334061 0.322431,0.857446 0,1.191599 l -5.29403,5.486585 c -0.33517,0.347354 -0.893631,0.362124 -1.247447,0.03314 -0.3537227,-0.329077 -0.3688612,-0.877384 -0.03369,-1.224737 L 14.843354,12 Z"/>
</svg>
