<?xml version="1.0" encoding="UTF-8" standalone="no"?>
<svg width="24" height="24" viewBox="0 0 24 24" version="1.1">
  <path d="M 12,-5e-8 C 5.3725912,-5e-8 1.5e-7,5.3725913 1.5e-7,12 1.5e-7,18.627409 5.3725912,24 12,24 18.627409,24 24,18.627409 24,12 24,5.3725912 18.627409,-5.0000001e-8 12,-5e-8 Z m 1.211538,5.64663465 c 0.225739,-0.00599 0.454103,0.073457 0.63101,0.2379808 0.353722,0.3290487 0.369424,0.8768236 0.03426,1.2241587 L 9.1568521,12 13.876804,16.891226 c 0.335169,0.347354 0.319467,0.895082 -0.03426,1.224159 -0.353815,0.328984 -0.912427,0.314901 -1.247596,-0.03246 L 7.3016826,12.594948 c -0.3224022,-0.334061 -0.3224022,-0.85575 0,-1.189903 L 12.594952,5.9170635 C 12.762536,5.743396 12.9858,5.6526204 13.211538,5.6466308 Z"/>
</svg>
