<?xml version="1.0"?>
<svg width="24" height="24" viewBox="0 0 24 24">
  <path d="M12.0298 22.3097C12.4965 22.3083 12.8758 22.686 12.8771 23.1527C12.8783 23.6193 12.5014 23.9986 12.0348 24H11.9652C11.4986 23.9986 11.1217 23.6193 11.1229 23.1527C11.1242 22.686 11.5035 22.3083 11.9702 22.3097H12.0298ZM5.66335 21.2209C5.89818 20.8177 6.41564 20.6809 6.81889 20.9155L6.87074 20.9453C7.27532 21.1779 7.41437 21.6948 7.18182 22.0994C6.94917 22.5039 6.43296 22.643 6.02841 22.4105L5.96875 22.3764C5.56555 22.1416 5.4287 21.6241 5.66335 21.2209ZM17.1811 20.9155C17.5844 20.6809 18.1018 20.8177 18.3366 21.2209C18.5713 21.6241 18.4344 22.1416 18.0312 22.3764L17.9716 22.4105C17.567 22.643 17.0508 22.5039 16.8182 22.0994C16.5856 21.6948 16.7247 21.1779 17.1293 20.9453L17.1811 20.9155ZM1.90057 16.8182C2.30519 16.5856 2.82209 16.7247 3.05469 17.1293L3.08452 17.1811C3.31913 17.5844 3.1823 18.1018 2.77912 18.3366C2.37586 18.5713 1.85842 18.4344 1.62358 18.0312L1.58949 17.9716C1.35697 17.567 1.49614 17.0508 1.90057 16.8182ZM20.9453 17.1293C21.1779 16.7247 21.6948 16.5856 22.0994 16.8182C22.5039 17.0508 22.643 17.567 22.4105 17.9716L22.3764 18.0312C22.1416 18.4344 21.6241 18.5713 21.2209 18.3366C20.8177 18.1018 20.6809 17.5844 20.9155 17.1811L20.9453 17.1293ZM13.0312 8.65483C13.1733 8.513 13.4035 8.51288 13.5455 8.65483L15.3452 10.4545C15.4871 10.5965 15.487 10.8267 15.3452 10.9688L9.69318 16.6207C9.62499 16.6889 9.5325 16.7273 9.43608 16.7273H7.63636C7.43553 16.7273 7.27273 16.5645 7.27273 16.3636V14.5639C7.27273 14.4675 7.31109 14.375 7.37926 14.3068L13.0312 8.65483ZM0.847301 11.1229C1.31402 11.1242 1.69166 11.5035 1.69034 11.9702V12.0298C1.69166 12.4965 1.31402 12.8758 0.847301 12.8771C0.380725 12.8783 0.00139612 12.5014 0 12.0348V11.9652C0.00139604 11.4986 0.380725 11.1217 0.847301 11.1229ZM23.1527 11.1229C23.6193 11.1217 23.9986 11.4986 24 11.9652V12.0348C23.9986 12.5014 23.6193 12.8783 23.1527 12.8771C22.686 12.8758 22.3083 12.4965 22.3097 12.0298V11.9702C22.3083 11.5035 22.686 11.1242 23.1527 11.1229ZM14.8835 6.80256C15.0255 6.66063 15.2557 6.66058 15.3977 6.80256L17.1974 8.60227C17.3394 8.74426 17.3394 8.97446 17.1974 9.11648L16.2557 10.0582C16.1137 10.2002 15.8835 10.2002 15.7415 10.0582L13.9418 8.25852C13.7998 8.11651 13.7998 7.88633 13.9418 7.74432L14.8835 6.80256ZM1.62358 5.96875C1.85842 5.56555 2.37586 5.4287 2.77912 5.66335C3.1823 5.89818 3.31913 6.41564 3.08452 6.81889L3.05469 6.87074C2.82209 7.27532 2.30519 7.41437 1.90057 7.18182C1.49614 6.94917 1.35697 6.43296 1.58949 6.02841L1.62358 5.96875ZM21.2209 5.66335C21.6241 5.4287 22.1416 5.56555 22.3764 5.96875L22.4105 6.02841C22.643 6.43296 22.5039 6.94917 22.0994 7.18182C21.6948 7.41437 21.1779 7.27532 20.9453 6.87074L20.9155 6.81889C20.6809 6.41564 20.8177 5.89818 21.2209 5.66335ZM6.02841 1.58949C6.43296 1.35697 6.94917 1.49614 7.18182 1.90057C7.41437 2.30519 7.27532 2.82209 6.87074 3.05469L6.81889 3.08452C6.41564 3.31913 5.89818 3.1823 5.66335 2.77912C5.4287 2.37586 5.56555 1.85842 5.96875 1.62358L6.02841 1.58949ZM16.8182 1.90057C17.0508 1.49614 17.567 1.35697 17.9716 1.58949L18.0312 1.62358C18.4344 1.85842 18.5713 2.37586 18.3366 2.77912C18.1018 3.1823 17.5844 3.31913 17.1811 3.08452L17.1293 3.05469C16.7247 2.82209 16.5856 2.30519 16.8182 1.90057ZM12.0348 0C12.5014 0.00139604 12.8783 0.380725 12.8771 0.847301C12.8758 1.31402 12.4965 1.69166 12.0298 1.69034H11.9702C11.5035 1.69166 11.1242 1.31402 11.1229 0.847301C11.1217 0.380725 11.4986 0.00139612 11.9652 0H12.0348Z"/>
</svg>
