<?xml version="1.0" encoding="UTF-8" standalone="no"?>
<svg width="24" height="24" viewBox="0 0 24 24" version="1.1">
  <path d="M 12,0 C 5.3725979,0 0,5.3725979 0,12 0,18.627492 5.3725979,24 12,24 18.627493,24 24,18.627492 24,12 24,5.3725979 18.627493,0 12,0 Z m 0,1.8461538 c 5.607866,0 10.153846,4.5460359 10.153846,10.1538462 0,5.607865 -4.54598,10.153846 -10.153846,10.153846 C 6.3921895,22.153846 1.8461538,17.607865 1.8461538,12 1.8461538,6.3921897 6.3921895,1.8461538 12,1.8461538 Z m 0,2.7692308 c -0.509796,0 -0.923077,0.4132806 -0.923077,0.9230769 v 8.6646635 l 5.877404,-1.957933 c 0.483691,-0.161243 0.745304,-0.684503 0.584135,-1.168269 -0.161354,-0.483581 -0.684541,-0.7451 -1.16827,-0.584134 l -3.447115,1.146634 V 5.5384615 C 12.923077,5.0286652 12.509796,4.6153846 12,4.6153846 Z"/>
</svg>
