<?xml version="1.0" encoding="UTF-8" standalone="no"?>
<svg width="24" height="24" viewBox="0 0 24 24" version="1.1">
  <path d="m 3.2352249,0.7019975 c -0.7401069,-0.74010323 -1.9400406,-0.74010323 -2.68014756,0 -0.74010313,0.7401068 -0.74010313,1.9400404 0,2.6801474 L 9.3198213,12.146951 0.55508238,20.911646 c -0.74010189,0.740119 -0.74010189,1.940002 0,2.680121 0.74010192,0.740121 1.94004812,0.740121 2.68014252,0 l 8.7647441,-8.764693 8.764691,8.764693 c 0.74012,0.740121 1.94013,0.740121 2.68025,0 0.739993,-0.740119 0.739993,-1.940002 0,-2.680121 L 14.680091,12.146951 23.44491,3.3821449 c 0.74012,-0.740107 0.74012,-1.9400406 0,-2.6801474 -0.74012,-0.74010323 -1.94013,-0.74010323 -2.68025,0 l -8.764691,8.7647438 z"/>
</svg>
