<?xml version="1.0" encoding="UTF-8" standalone="no"?>
<svg width="24" height="24" viewBox="0 0 24 24" version="1.1">
  <path d="m 3.6376932,0.62412883 c -0.8321654,-0.83217194 -2.1813922,-0.83217194 -3.01356412,0 -0.83217237,0.83216537 -0.83217237,2.18137687 0,3.01356407 L 8.9864083,11.999973 0.62413126,20.362208 c -0.83217128,0.832144 -0.83217128,2.181377 0,3.013521 0.83217194,0.832362 2.18139654,0.832362 3.01356194,0 l 8.3622798,-8.362192 8.362279,8.362192 c 0.832165,0.832362 2.181333,0.832362 3.013477,0 0.832362,-0.832144 0.832362,-2.181377 0,-3.013521 l -8.362192,-8.362235 8.362192,-8.3622801 c 0.832362,-0.8321872 0.832362,-2.1813987 0,-3.01356407 -0.832144,-0.83217194 -2.181312,-0.83217194 -3.013477,0 L 11.999973,8.9864082 Z"/>
</svg>
