<?xml version="1.0" encoding="UTF-8" standalone="no"?>
<svg width="24" height="24" viewBox="0 0 24 24" version="1.1">
  <path d="M 12,0 C 5.3155881,0 0,4.5952739 0,10.152344 c 0,3.141144 1.7031402,5.979916 4.3847656,7.84375 -0.2902614,1.412569 -1.1274653,2.917731 -2.4902344,4.482422 -0.00909,0.01034 -0.01627,0.01948 -0.021484,0.02539 l -1.33007815,1.507813 2.00976565,-0.08398 c 2.4746033,-0.103301 4.7778695,-1.404266 6.6269531,-3.90625 0.9045915,0.184311 1.8489085,0.28125 2.8203125,0.28125 6.684474,0 12,-4.593312 12,-10.15039 C 24,4.5952816 18.684476,0 12,0 Z m 0,1.7148437 c 5.905048,0 10.285156,3.9883774 10.285156,8.4375003 0,4.449142 -4.380107,8.435547 -10.285156,8.435547 -0.856528,0 -1.686723,-0.08672 -2.4785156,-0.248047 L 8.4511719,18.121094 7.8007812,19.001953 C 6.8068447,20.346842 5.741553,21.089501 4.6367187,21.582031 5.3047605,20.519157 5.8396382,19.445373 6.0664062,18.341797 L 6.2929687,17.232422 5.3652344,16.587891 C 3.0691276,14.992008 1.7148438,12.676538 1.7148437,10.152344 1.7148437,5.7032288 6.0950247,1.7148437 12,1.7148437 Z"/>
</svg>
