<?xml version="1.0" encoding="UTF-8" standalone="no"?>
<svg width="24" height="24" viewBox="0 0 24 24" version="1.1">
  <path d="M 12,0 C 18.62744,0 24,5.372584 24,12 24,18.62744 18.62744,24 12,24 5.372584,24 0,18.62744 0,12 0,5.372584 5.372584,0 12,0 Z m 3.2e-4,2.300032 c -5.357088,0 -9.69984,4.342752 -9.69984,9.699808 0,5.35704 4.342752,9.69984 9.69984,9.69984 5.35704,0 9.69976,-4.3428 9.69976,-9.69984 0,-5.357056 -4.34272,-9.699808 -9.69976,-9.699808 z m 0.3424,1.176448 C 12.31504,3.366736 12.22936,3.28104 12.11968,3.253352 11.95488,3.211784 11.7876,3.311656 11.746,3.476424 L 10.12464,9.90296 C 10.09696,10.01272 10.01128,10.09832 9.9016,10.126 l -6.42656,1.62144 c -0.109736,0.02768 -0.195416,0.11336 -0.22308,0.22312 -0.041544,0.1648 0.05836,0.332 0.223136,0.37352 l 6.449784,1.62608 c 0.10976,0.02768 0.19544,0.11336 0.2232,0.22312 l 1.598,6.33592 c 0.02768,0.10976 0.11336,0.19544 0.22312,0.22312 0.1648,0.0416 0.33208,-0.05832 0.3736,-0.22312 l 1.6032,-6.35872 c 0.02768,-0.10976 0.11336,-0.19544 0.22312,-0.22312 l 6.35872,-1.6032 c 0.10976,-0.02768 0.19544,-0.11336 0.22312,-0.22312 0.04152,-0.16472 -0.05832,-0.332 -0.22312,-0.3736 l -6.33592,-1.598 C 14.08216,10.12176 13.99648,10.03608 13.9688,9.92632 Z m 5.1972,13.59944 -1.67896,-2.79768 c -0.06984,-0.11632 -0.2076,-0.1732 -0.33912,-0.14 l -0.92752,0.234 c -0.10976,0.02768 -0.19544,0.11336 -0.22312,0.22312 l -0.21904,0.86816 c -0.0332,0.13152 0.02368,0.26928 0.14,0.33912 l 2.8256,1.69544 c 0.09744,0.05848 0.2192,0.05848 0.31664,0 0.14568,-0.08744 0.19296,-0.27648 0.10552,-0.42216 z M 8.37088,14.1112 9.50056,14.396 c 0.10976,0.02768 0.19552,0.11344 0.22312,0.2232 l 0.18488,0.73408 c 0.03312,0.13144 -0.02376,0.26912 -0.14,0.33896 L 6.759072,17.49848 C 6.61336,17.586 6.424352,17.53872 6.336904,17.39304 6.278416,17.2956 6.278408,17.17384 6.336872,17.0764 L 8.03176,14.2512 c 0.06984,-0.11632 0.2076,-0.1732 0.33912,-0.14 z M 9.79672,8.20352 6.759064,6.381072 C 6.661624,6.322608 6.539896,6.322616 6.442456,6.38108 6.296744,6.468512 6.249496,6.65752 6.336928,6.803232 L 8.14288,9.81304 c 0.06976,0.11632 0.20752,0.1732 0.33904,0.14 L 9.4776,9.702 C 9.58736,9.67432 9.67304,9.58864 9.70072,9.47888 L 9.9368,8.54256 C 9.97,8.41104 9.91312,8.27328 9.79672,8.20352 Z m 7.74216,-1.716824 c 0.0584,0.097448 0.0584,0.219176 -8e-5,0.316608 L 15.74928,9.78504 c -0.06976,0.11624 -0.20744,0.17312 -0.33888,0.14 L 14.6164,9.7252 C 14.50656,9.69752 14.4208,9.61184 14.39312,9.502 L 14.12328,8.43176 C 14.09016,8.30016 14.14704,8.1624 14.26336,8.09264 l 2.85336,-1.711536 c 0.14568,-0.087408 0.33472,-0.040136 0.42216,0.105592 z"/>
</svg>
