<?xml version="1.0" encoding="UTF-8"?>
<svg width="24" height="24" version="1.1" viewBox="0 0 24 24">
  <path d="m24 11.939c0 7.3088-5.6163 11.516-12.215 11.516-6.6292 0-11.785-4.2993-11.785-11.455 0-7.2781 5.7084-11.455 12.276-11.455 6.6291 0 11.724 4.2686 11.724 11.393zm-2.6087 0.27644c0-5.6505-3.4067-9.4585-9.4527-9.4585-5.4322 0-9.2378 3.3166-9.2378 8.9978 0 5.6812 3.376 9.4584 9.422 9.4584 5.4323 0 9.2686-3.2858 9.2686-8.9977zm-5.0639 5.1898c-1.4425 0.6756-2.7315 0.95204-3.9591 0.95204-4.266 0-6.8747-2.3953-6.8747-6.3875 0-4.2686 3.1304-6.2647 6.844-6.2647 1.2276 0 2.4552 0.15355 3.7136 0.61418l-0.21491 2.3953c-1.3811-0.49136-2.3325-0.61419-3.4373-0.61419-2.0869 0-3.7442 1.1055-3.7442 3.6851 0 2.5489 1.4425 4.1458 4.1739 4.1458 0.98204 0 2.2097-0.27633 3.6521-0.92127z" stroke-width="1.0909"/>
</svg>
