<?xml version="1.0"?>
<svg width="24" height="24" viewBox="0 0 24 24">
  <path d="M20.9688 7.07692L14.3822 0.270769C14.2148 0.0976093 13.9878 0.000215449 13.7509 0H10.809C9.94029 0 9.10717 0.356593 8.49291 0.991331C7.87864 1.62607 7.53356 2.48696 7.53356 3.38462V4.92308H6.04472C5.17602 4.92308 4.3429 5.27967 3.72864 5.91441C3.11438 6.54915 2.76929 7.41004 2.76929 8.30769V20.6154C2.76929 21.513 3.11438 22.3739 3.72864 23.0087C4.3429 23.6434 5.17602 24 6.04472 24H14.3822C15.2509 24 16.084 23.6434 16.6983 23.0087C17.3125 22.3739 17.6576 21.513 17.6576 20.6154V19.0769H17.9554C18.8241 19.0769 19.6572 18.7203 20.2715 18.0856C20.8857 17.4509 21.2308 16.59 21.2308 15.6923V7.69231C21.2214 7.46044 21.1279 7.24072 20.9688 7.07692ZM14.68 3.15077L18.1817 6.76923H14.68V3.15077ZM15.871 20.6154C15.871 21.0234 15.7142 21.4147 15.435 21.7032C15.1557 21.9918 14.7771 22.1538 14.3822 22.1538H6.04472C5.64986 22.1538 5.27117 21.9918 4.99196 21.7032C4.71275 21.4147 4.55589 21.0234 4.55589 20.6154V8.30769C4.55589 7.89967 4.71275 7.50835 4.99196 7.21984C5.27117 6.93132 5.64986 6.76923 6.04472 6.76923H7.53356V15.6923C7.53356 16.59 7.87864 17.4509 8.49291 18.0856C9.10717 18.7203 9.94029 19.0769 10.809 19.0769H15.871V20.6154ZM17.9554 17.2308H10.809C10.4141 17.2308 10.0354 17.0687 9.75622 16.7802C9.47701 16.4916 9.32016 16.1003 9.32016 15.6923V3.38462C9.32016 2.97659 9.47701 2.58528 9.75622 2.29676C9.75622 2.29676 10.4141 1.84615 10.809 1.84615H12.8934V7.69231C12.8964 7.93613 12.9915 8.16907 13.1584 8.3415C13.3253 8.51392 13.5507 8.6122 13.7867 8.61539H19.4442V15.6923C19.4442 16.1003 19.2874 16.4916 19.0082 16.7802C18.7289 17.0687 18.3503 17.2308 17.9554 17.2308Z"/>
</svg>
