<?xml version="1.0" encoding="UTF-8" standalone="no"?>
<svg width="24" height="24" viewBox="0 0 24 24" version="1.1">
  <path d="M 6.6000545,5.4545458 C 2.595774,5.4545458 0,7.9103111 0,12.034944 c 0,4.088739 2.5295328,6.51051 6.5170624,6.51051 1.1392862,0 2.395735,-0.215905 3.7695876,-0.825551 l 0.100464,-2.044227 C 8.8457092,16.339232 7.6052495,16.5187 6.7005185,16.5187 c -2.8147195,0 -4.4051322,-2.044593 -4.4051322,-4.662844 0,-2.7617052 1.5074408,-4.3942122 4.2719081,-4.3942122 0.988496,0 1.9603974,0.1802054 3.3174996,0.6464646 L 10.085722,6.0988265 C 8.8291469,5.6146335 7.6220742,5.4545458 6.6000545,5.4545458 Z m 13.6128855,0 c -4.004192,0 -6.600054,2.4557653 -6.600054,6.5803982 0,4.088739 2.529532,6.51051 6.517061,6.51051 1.139343,0 2.395758,-0.215905 3.769588,-0.825551 L 24,15.675676 c -1.541338,0.663556 -2.781854,0.843024 -3.686596,0.843024 -2.814642,0 -4.405133,-2.044593 -4.405133,-4.662844 0,-2.7617052 1.507362,-4.3942122 4.271909,-4.3942122 0.988496,0 1.960441,0.1802054 3.317499,0.6464646 L 23.698607,6.0988265 C 22.442076,5.6146335 21.234982,5.4545458 20.21294,5.4545458 Z"/>
</svg>
