<?xml version="1.0" encoding="UTF-8" standalone="no"?>
<svg width="24" height="24" viewBox="0 0 24 24" version="1.1">
  <path d="M 6.8574219 0 C 6.2262408 0 5.7148437 0.51139556 5.7148438 1.1425781 L 5.7148438 5.7148438 L 1.1425781 5.7148438 C 0.51140304 5.7148438 0 6.2262465 0 6.8574219 C 0 7.4886092 0.51140184 8 1.1425781 8 L 5.7148438 8 L 5.7148438 17.142578 C 5.7148438 17.445698 5.8345105 17.736852 6.0488281 17.951172 C 6.2631578 18.165612 6.5543173 18.285156 6.8574219 18.285156 L 16 18.285156 L 16 22.857422 C 16 23.488621 16.511385 24 17.142578 24 C 17.77377 24 18.285156 23.488621 18.285156 22.857422 L 18.285156 18.285156 L 22.857422 18.285156 C 23.488615 18.285156 24 17.773777 24 17.142578 C 24 16.511379 23.488615 16 22.857422 16 L 18.285156 16 L 18.285156 6.8574219 C 18.285156 6.5543142 18.16561 6.2631599 17.951172 6.0488281 C 17.736855 5.8344963 17.445695 5.7148437 17.142578 5.7148438 L 8 5.7148438 L 8 1.1425781 C 8 0.51139676 7.4885909 0 6.8574219 0 z M 8 8 L 16 8 L 16 16 L 8 16 L 8 8 z "/>
</svg>
