<?xml version="1.0"?>
<svg width="24" height="24" viewBox="0 0 24 24">
  <path d="M13 0C13.5523 0 14 0.447715 14 1V3.04938C18.7244 3.51844 22.4816 7.27558 22.9506 12H25C25.5523 12 26 12.4477 26 13C26 13.5523 25.5523 14 25 14H22.9506C22.4816 18.7244 18.7244 22.4816 14 22.9506V25C14 25.5523 13.5523 26 13 26C12.4477 26 12 25.5523 12 25V22.9506C7.27558 22.4816 3.51844 18.7244 3.04938 14H1C0.447715 14 0 13.5523 0 13C0 12.4477 0.447715 12 1 12H3.04938C3.51844 7.27558 7.27558 3.51844 12 3.04938V1C12 0.447715 12.4477 0 13 0ZM13 21C17.4183 21 21 17.4183 21 13C21 8.58172 17.4183 5 13 5C8.58172 5 5 8.58172 5 13C5 17.4183 8.58172 21 13 21ZM13 18C15.7614 18 18 15.7614 18 13C18 10.2386 15.7614 8 13 8C10.2386 8 8 10.2386 8 13C8 15.7614 10.2386 18 13 18Z"/>
</svg>
