<?xml version="1.0"?>
<svg width="24" height="24" viewBox="0 0 18 20">
  <path clip-rule="evenodd" d="M11 0H2C1.46957 0 0.960859 0.210714 0.585786 0.585786C0.210714 0.960859 0 1.46957 0 2V18C0 18.5304 0.210714 19.0391 0.585786 19.4142C0.960859 19.7893 1.46957 20 2 20H11C11.5304 20 12.0391 19.7893 12.4142 19.4142C12.7893 19.0391 13 18.5304 13 18V17C13 16.7348 12.8946 16.4804 12.7071 16.2929C12.5196 16.1054 12.2652 16 12 16C11.7348 16 11.4804 16.1054 11.2929 16.2929C11.1054 16.4804 11 16.7348 11 17V18H2V2H11V3C11 3.26522 11.1054 3.51957 11.2929 3.70711C11.4804 3.89464 11.7348 4 12 4C12.2652 4 12.5196 3.89464 12.7071 3.70711C12.8946 3.51957 13 3.26522 13 3V2C13 1.46957 12.7893 0.960859 12.4142 0.585786C12.0391 0.210714 11.5304 0 11 0ZM14.115 14.2951C13.725 14.6851 13.095 14.6851 12.705 14.2951C12.5181 14.108 12.413 13.8543 12.4128 13.5898C12.4126 13.3253 12.5173 13.0715 12.704 12.8841L14.58 11.0001H5.91C5.64478 11.0001 5.39043 10.8948 5.20289 10.7072C5.01536 10.5197 4.91 10.2653 4.91 10.0001C4.91 9.73491 5.01536 9.48056 5.20289 9.29302C5.39043 9.10548 5.64478 9.00013 5.91 9.00013H14.58L12.704 7.11613C12.5322 6.92604 12.44 6.6772 12.4465 6.42106C12.4529 6.16491 12.5576 5.92104 12.7387 5.73987C12.9199 5.55869 13.1638 5.45405 13.4199 5.44758C13.6761 5.44112 13.9249 5.53332 14.115 5.70513L17.703 9.29313C17.8905 9.48065 17.9958 9.73496 17.9958 10.0001C17.9958 10.2653 17.8905 10.5196 17.703 10.7071L14.115 14.2951Z"/>
</svg>
