<?xml version="1.0"?>
<svg width="24" height="24" viewBox="0 0 24 24">
  <path d="M9,24.02h10.8c.64,0,1.25-.25,1.7-.7.45-.45.7-1.06.7-1.7V2.42c0-.64-.25-1.25-.7-1.7-.45-.45-1.06-.7-1.7-.7h-10.8c-.64,0-1.25.25-1.7.7-.45.45-.7,1.06-.7,1.7v1.2c0,.32.13.62.35.85.23.23.53.35.85.35s.62-.13.85-.35c.23-.23.35-.53.35-.85v-1.2h10.8v19.2h-10.8v-1.2c0-.32-.13-.62-.35-.85-.23-.22-.53-.35-.85-.35s-.62.13-.85.35c-.23.23-.35.53-.35.85v1.2c0,.64.25,1.25.7,1.7.45.45,1.06.7,1.7.7ZM12.85,17.18c-.47.47-1.22.47-1.69,0-.22-.22-.35-.53-.35-.85s.13-.62.35-.85l2.25-2.26H3c-.32,0-.62-.13-.85-.35-.23-.23-.35-.53-.35-.85s.13-.62.35-.85c.23-.23.53-.35.85-.35h10.4l-2.25-2.26c-.21-.23-.32-.53-.31-.83,0-.31.13-.6.35-.82.22-.22.51-.34.82-.35.31,0,.61.1.83.31l4.31,4.31c.22.23.35.53.35.85s-.13.62-.35.85l-4.31,4.31Z"/>
</svg>
