<?xml version="1.0" encoding="UTF-8" standalone="no"?>
<svg width="24" height="24" viewBox="0 0 24 24" version="1.1">
  <path d="M0 12C0 5.3728 5.3728 0 12 0C18.6272 0 24 5.3728 24 12C24 18.6272 18.6272 24 12 24C5.3728 24 0 18.6272 0 12ZM12 1.6C10.9086 1.599 9.8238 1.7699 8.7856 2.1064L9.696 2.72C10.152 3.032 10.696 3.2 11.248 3.2H14.872C15.048 3.2 15.192 3.344 15.192 3.52C15.192 3.784 15.408 4 15.672 4H17.992C18.216 4 18.392 4.176 18.392 4.4C18.392 4.624 18.216 4.8 17.992 4.8H16.728C15.88 4.8 15.192 5.488 15.192 6.336V6.8C15.192 7.024 15.016 7.2 14.792 7.2C14.568 7.2 14.392 7.024 14.392 6.8V6.296C14.392 5.912 14.08 5.6 13.696 5.6H12.392C12.168 5.6 11.992 5.776 11.992 6C11.992 6.224 12.168 6.4 12.392 6.4H12.84C13.256 6.4 13.592 6.736 13.592 7.152V7.248C13.6 7.664 13.264 8 12.848 8C12.376 8 12 8.384 12 8.848V10C12 10.224 11.824 10.4 11.6 10.4C11.376 10.4 11.2 10.576 11.2 10.8V12.336C11.1992 12.4458 11.1595 12.5519 11.0879 12.6352C11.0163 12.7185 10.9175 12.7737 10.809 12.791C10.7005 12.8082 10.5894 12.7865 10.4955 12.7295C10.4016 12.6726 10.3309 12.5842 10.296 12.48L9.736 10.808C9.648 10.568 9.424 10.4 9.168 10.4C9.0573 10.4007 8.9488 10.4316 8.8543 10.4894C8.7599 10.5472 8.683 10.6297 8.632 10.728L7.336 13.328C7.2857 13.4284 7.203 13.5089 7.1012 13.5564C6.9994 13.6039 6.8846 13.6156 6.7753 13.5897C6.6661 13.5638 6.5688 13.5017 6.4992 13.4135C6.4296 13.3254 6.3918 13.2163 6.392 13.104V12.36C6.392 12.16 6.232 12 6.032 12C5.792 12 5.592 11.808 5.592 11.56V10.8C5.592 10.576 5.416 10.4 5.192 10.4C4.968 10.4 4.792 10.576 4.792 10.8V11.264C4.792 11.672 4.464 12 4.056 12H3.576C3.36 12 3.184 11.824 3.184 11.608C3.2 11.384 3.008 11.2 2.784 11.2C2.568 11.2 2.392 11.376 2.392 11.592V12C2.392 12.44 2.752 12.8 3.192 12.8C3.632 12.8 3.992 13.16 3.992 13.6V14.072C3.992 14.256 3.848 14.4 3.664 14.4C3.4 14.4 3.192 14.608 3.192 14.872V16.28C3.1912 16.5702 3.0982 16.8526 2.9264 17.0864C4.708 20.2576 8.104 22.4 12 22.4C17.744 22.4 22.4 17.744 22.4 12C22.4 6.256 17.744 1.6 12 1.6ZM13.6001 14.1118V13.3678C13.6001 13.0558 13.8481 12.7998 14.1681 12.7838C14.3184 12.7849 14.4621 12.8452 14.5681 12.9518L15.8401 14.2238C15.9521 14.3278 16.0082 14.4718 16.0082 14.6238C16.0082 14.9358 15.7521 15.1918 15.4401 15.1918H15.3281C15.2481 15.1918 15.1681 15.1758 15.0961 15.1438L13.9361 14.6238C13.7281 14.5358 13.6001 14.3358 13.6001 14.1118ZM11.5761 13.5998H10.8161C10.5841 13.5998 10.3921 13.7918 10.3921 14.0238V14.7838C10.3921 15.0158 10.5841 15.2078 10.8161 15.2078H11.5761C11.8081 15.2078 12.0001 15.0158 12.0001 14.7838V14.0238C12.0001 13.7918 11.8081 13.5998 11.5761 13.5998ZM8.8001 14.7998C8.8001 15.0238 8.9761 15.1998 9.2001 15.1998C9.4161 15.1998 9.6001 15.0238 9.6001 14.7998V13.9998C9.6001 13.7758 9.4241 13.5998 9.2001 13.5998C8.9761 13.5998 8.8001 13.7758 8.8001 13.9998V14.7998ZM14.2321 8.1678L12.9601 9.4398C12.8561 9.5438 12.7921 9.6878 12.7921 9.8398C12.7921 10.1518 13.0481 10.4078 13.3601 10.4078C13.5121 10.4078 13.6561 10.3518 13.7601 10.2398L15.0321 8.9678C15.1361 8.8638 15.2001 8.7198 15.2001 8.5678C15.2001 8.2558 14.9441 7.9998 14.6321 7.9998C14.4801 7.9998 14.3361 8.0558 14.2321 8.1678ZM16.9602 19.8398L18.2322 18.5678C18.3362 18.4558 18.4802 18.3998 18.6322 18.3998C18.9442 18.3998 19.2002 18.6558 19.2002 18.9678C19.2002 19.1198 19.1362 19.2638 19.0322 19.3678L17.7602 20.6398C17.6562 20.7518 17.5122 20.8078 17.3602 20.8078C17.0482 20.8078 16.7922 20.5518 16.7922 20.2398C16.7922 20.0878 16.8562 19.9438 16.9602 19.8398ZM11.2001 17.3918V18.3758C11.2001 18.8318 11.5681 19.1998 12.0241 19.1998H13.2481C13.4641 19.1998 13.6721 19.2878 13.8241 19.4398L14.1521 19.7678C14.3041 19.9198 14.5121 20.0078 14.7281 20.0078H15.4801C15.7921 20.0078 16.0802 19.8318 16.2162 19.5518L16.7042 18.5838C16.7602 18.4718 16.7922 18.3438 16.7922 18.2158V17.3198C16.7922 17.0078 16.6162 16.7198 16.3362 16.5838L15.3681 16.0958C15.2561 16.0398 15.1281 16.0078 15.0001 16.0078H13.7281C13.6401 16.0078 13.5521 16.0238 13.4641 16.0478L11.7521 16.6158C11.4241 16.7278 11.2001 17.0398 11.2001 17.3918Z"/>
</svg>
