<?xml version="1.0"?>
<svg width="24" height="24" viewBox="0 0 25 25">
  <path fill-rule="evenodd" clip-rule="evenodd" d="M12.5003 2C6.56731 2 2.04199 6.06439 2.04199 10.7544C2.04199 13.4124 3.4668 15.8391 5.80285 17.4728L6.34089 17.8491L6.20952 18.4924C5.90552 19.9811 5.09007 21.4712 3.85494 22.9611C5.73527 22.7587 7.47993 21.7172 9.00129 19.6458L9.38053 19.1295L10.0081 19.2582C10.8057 19.4217 11.6402 19.5087 12.5003 19.5087C18.4333 19.5087 22.9587 15.4443 22.9587 10.7544C22.9587 6.06439 18.4333 2 12.5003 2ZM0.0419922 10.7544C0.0419922 4.66997 5.77681 0 12.5003 0C19.2238 0 24.9587 4.66997 24.9587 10.7544C24.9587 16.8388 19.2238 21.5087 12.5003 21.5087C11.725 21.5087 10.9654 21.4476 10.2278 21.3304C8.3709 23.6305 6.08704 24.8912 3.49298 24.9917C2.88211 25.0154 2.34569 24.9948 1.94297 24.8613C1.73617 24.7928 1.42873 24.651 1.21604 24.3366C0.974446 23.9794 0.983259 23.5967 1.05807 23.3258C1.12439 23.0857 1.24887 22.8961 1.33463 22.7792C1.42786 22.6521 1.53299 22.5349 1.62279 22.4392C1.71875 22.337 1.79359 22.2613 1.85902 22.195C1.94512 22.1078 2.01492 22.0371 2.0951 21.9445C3.1235 20.7564 3.76747 19.6721 4.09001 18.6906C1.63049 16.7484 0.0419922 13.9318 0.0419922 10.7544Z"/>
  <circle cx="8.1" cy="11" r="1.1"/>
  <circle cx="12.5004" cy="11" r="1.1"/>
  <circle cx="16.8998" cy="11" r="1.1"/>
</svg>
