<?xml version="1.0"?>
<svg width="24" height="24" viewBox="0 0 24 24">
  <path d="M3 18L1.7 20.3C1.38334 20.6167 1.02067 20.6877 0.612002 20.513C0.203335 20.3383 -0.000665038 20.0257 1.62866e-06 19.575V2C1.62866e-06 1.45 0.196002 0.979333 0.588002 0.588C0.980002 0.196667 1.45067 0.000666667 2 0H18C18.55 0 19.021 0.196 19.413 0.588C19.805 0.98 20.0007 1.45067 20 2V16C20 16.55 19.8043 17.021 19.413 17.413C19.0217 17.805 18.5507 18.0007 18 18H3ZM10 15C10.2833 15 10.521 14.904 10.713 14.712C10.905 14.52 11.0007 14.2827 11 14C10.9993 13.7173 10.9033 13.48 10.712 13.288C10.5207 13.096 10.2833 13 10 13C9.71667 13 9.47934 13.096 9.288 13.288C9.09667 13.48 9.00067 13.7173 9 14C8.99934 14.2827 9.09534 14.5203 9.288 14.713C9.48067 14.9057 9.718 15.0013 10 15ZM10 11C10.2833 11 10.521 10.904 10.713 10.712C10.905 10.52 11.0007 10.2827 11 10V4C11 3.71667 10.904 3.47933 10.712 3.288C10.52 3.09667 10.2827 3.00067 10 3C9.71734 2.99933 9.48 3.09533 9.288 3.288C9.096 3.48067 9 3.718 9 4V10C9 10.2833 9.096 10.521 9.288 10.713C9.48 10.905 9.71734 11.0007 10 11Z"/>
</svg>
