<?xml version="1.0" encoding="UTF-8" standalone="no"?>
<svg width="24" height="24" viewBox="0 0 24 24" version="1.1">
  <path d="m 5.1948665,15.7176 c -0.4890933,0.2796 -0.901,0.56 -1.1948533,0.774533 v 6.174534 C 4.0000132,23.403067 3.4030532,24 2.6666798,24 1.9302932,24 1.3333465,23.403067 1.3333465,22.666667 v -6.818 -0.01613 V 4.19996 c 0,-0.57612 0.2505467,-1.15988 0.7511467,-1.54976 0.4214266,-0.32824 1.3090533,-0.97564 2.441,-1.546 C 5.6417465,0.541732 7.1011332,0 8.6400132,0 10.548027,0 11.774454,0.841536 12.704467,1.47968 l 0.04959,0.034013 C 13.684787,2.15188 14.315454,2.56 15.359987,2.56 c 1.426266,0 2.981999,-0.7771867 4.076533,-1.4902787 0.6892,-0.44899863 1.493066,-0.40581197 2.089067,-0.1068893 0.602533,0.302196 1.141067,0.9461547 1.141067,1.8199813 V 12.973373 c 0,0.576094 -0.250535,1.159827 -0.751067,1.549827 -0.421467,0.328133 -1.309067,0.9756 -2.441068,1.546 -1.116265,0.5624 -2.5756,1.104133 -4.114532,1.104133 -1.908,0 -3.134427,-0.8416 -4.06444,-1.479733 l -0.04957,-0.034 C 10.31528,15.021467 9.6845598,14.613333 8.6400132,14.613333 c -1.14864,0 -2.39872,0.5064 -3.4451467,1.104267 z"/>
</svg>
