<?xml version="1.0" encoding="UTF-8" standalone="no"?>
<svg width="24" height="24" viewBox="0 0 24 24" version="1.1">
  <path d="m 8.8200061,23.11703 c -0.132834,1.24e-4 -0.264063,-0.02715 -0.384503,-0.07998 -0.120446,-0.05282 -0.227156,-0.12994 -0.31262,-0.225741 -0.08548,-0.09592 -0.147649,-0.208296 -0.182146,-0.329139 -0.03434,-0.120343 -0.04044,-0.246293 -0.01797,-0.369005 2.38e-4,-0.0012 3.63e-4,-0.0025 3.63e-4,-0.0038 v 0 c 0,-0.0021 3.24e-4,-0.0042 9.47e-4,-0.0062 l 2.3854189,-7.645052 c 0.125132,-0.401087 -0.174523,-0.808585 -0.5946209,-0.808585 h -4.54556 c -0.149683,0 -0.296285,-0.03986 -0.422883,-0.115238 -0.126608,-0.07526 -0.227991,-0.182757 -0.292466,-0.310199 -0.06448,-0.127321 -0.08941,-0.269215 -0.07189,-0.409367 0.01765,-0.140152 0.07677,-0.272832 0.170864,-0.382459 L 14.166818,1.0213017 c 0.123591,-0.1479371 0.295258,-0.2536301 0.4886,-0.3009101 0.19333,-0.04729 0.39778,-0.03358 0.582034,0.03905 0.184376,0.07263 0.338356,0.2001631 0.438516,0.3631111 0.100035,0.162938 0.14089,0.352323 0.116114,0.5391914 0,0.014025 -0.0039,0.027568 -0.0064,0.041574 L 13.394875,9.3530418 C 13.269422,9.754149 13.569173,10.16176 13.989364,10.16176 h 4.544154 c 0.149619,1.3e-5 0.296253,0.03997 0.422819,0.11526 0.126704,0.07529 0.228119,0.18282 0.29253,0.310179 0.06454,0.127342 0.08944,0.269301 0.07189,0.409441 -0.01733,0.140151 -0.07674,0.272754 -0.1708,0.382482 L 9.5345491,22.790006 c -0.08534,0.101658 -0.193907,0.183878 -0.317627,0.240436 -0.12372,0.05668 -0.259378,0.08621 -0.396885,0.08658 z"/>
</svg>
