<?xml version="1.0" encoding="UTF-8" standalone="no"?>
<svg width="24" height="24" viewBox="0 0 24 24" version="1.1">
  <path d="M 5.2001465,0.40687979 C 4.9087152,-0.01905708 4.3271735,-0.12809646 3.9012404,0.16333475 3.4753072,0.45476472 3.3662604,1.0363126 3.6576916,1.4622458 L 18.799917,23.593076 c 0.291431,0.425996 0.872924,0.535018 1.298919,0.243587 0.425871,-0.291432 0.534892,-0.872923 0.243461,-1.298919 z M 4.5522197,12.431971 7.7840162,8.5960557 13.928568,17.576561 9.5344351,22.791173 C 9.4490871,22.892841 9.3405007,22.975077 9.2167763,23.03177 9.0930519,23.08834 8.9573788,23.11799 8.8198368,23.11824 8.686992,23.118366 8.5557296,23.09108 8.4352822,23.03824 8.3148347,22.985417 8.2081179,22.908291 8.1226197,22.812476 8.0371344,22.716534 7.974948,22.604275 7.940447,22.483292 7.9061212,22.362932 7.9000031,22.23709 7.9225298,22.114238 l 3.49e-4,-0.0039 c 0,-0.0022 3.238e-4,-0.0043 9.592e-4,-0.0063 l 2.385737,-7.646004 C 10.434732,14.056958 10.135053,13.649528 9.7148754,13.649528 H 5.1686983 c -0.1497026,0 -0.2963403,-0.04 -0.4229553,-0.115375 -0.1266149,-0.07526 -0.2280241,-0.182785 -0.2925152,-0.310121 -0.064491,-0.127463 -0.08941,-0.269379 -0.071892,-0.40955 0.017506,-0.140171 0.076764,-0.272741 0.1708839,-0.382511 z M 19.151154,11.378732 16.011448,15.10469 9.8668085,6.1239491 14.167419,1.0194548 c 0.1236,-0.14794601 0.295295,-0.25365361 0.488668,-0.30095041 0.193374,-0.047292 0.397837,-0.033571 0.582115,0.039061 0.184402,0.072639 0.338404,0.2002017 0.43858,0.36316131 0.100046,0.1629721 0.140918,0.3523839 0.116123,0.5392661 0,0.010098 -0.0022,0.019922 -0.0043,0.029878 v 1.25e-5 l -0.0023,0.011699 -2.39113,7.6507859 c -0.12547,0.4011632 0.17431,0.8088178 0.594573,0.8088178 h 4.544782 c 0.149641,2.5e-5 0.296291,0.03999 0.423006,0.115289 0.12659,0.07529 0.228011,0.182846 0.292427,0.310209 0.06454,0.127362 0.08946,0.269352 0.0719,0.40951 -0.01744,0.14016 -0.07675,0.272779 -0.170822,0.382537 z"/>
</svg>
