<?xml version="1.0" encoding="UTF-8" standalone="no"?>
<svg width="24" height="24" viewBox="0 0 24 24" version="1.1">
  <path d="m 7.1707882,11.502599 c -0.362506,0.392169 -0.9799458,0.416346 -1.3720853,0.05389 L 4.4369,10.297644 c -0.5913114,2.613519 0.1870447,5.461912 2.2903464,7.406248 2.4883143,2.300193 6.0751186,2.654106 8.9086556,1.147961 0.356827,-0.185744 0.799679,-0.106999 1.092033,0.163218 0.484798,0.448192 0.399742,1.255443 -0.178946,1.566732 C 13.001702,22.459532 8.5176676,22.003475 5.4090588,19.129838 3.0776022,16.974609 2.0441859,13.930082 2.348153,10.997994 L 1.6824664,11.718151 C 1.3199605,12.11032 0.70253038,12.134496 0.31039088,11.772041 -0.0817554,11.409486 -0.106005,10.792055 0.25649318,10.399984 L 2.8928781,7.5480069 c 0.362506,-0.3921396 0.979936,-0.4163844 1.3720755,-0.053888 l 2.851937,2.6364241 c 0.3921491,0.362457 0.4163938,0.979887 0.053898,1.372056 z m 9.6584168,0.994841 c 0.362556,-0.392169 0.979986,-0.416443 1.372154,-0.05389 l 1.361765,1.258844 C 20.154435,11.088876 19.376117,8.2404626 17.272739,6.2961257 14.784472,3.9958854 11.197668,3.64205 8.364111,5.1481466 8.1871254,5.2353577 7.9877204,5.2664574 7.792578,5.2372899 7.5974354,5.2081127 7.4158474,5.1200665 7.2720879,4.9849096 6.7872611,4.5367266 6.8723653,3.7294846 7.4510349,3.4181673 10.998332,1.5404962 15.482298,1.9965051 18.591003,4.8701622 c 2.331457,2.155238 3.364844,5.1996958 3.060838,8.1317858 l 0.665687,-0.720061 c 0.362554,-0.392168 0.979984,-0.416442 1.372056,-0.05389 0.392168,0.362458 0.416443,0.979888 0.05389,1.372056 l -2.636336,2.851986 c -0.362458,0.392072 -0.979888,0.416346 -1.372056,0.05389 L 16.883096,13.869496 C 16.491024,13.507038 16.46675,12.889609 16.829206,12.49744 Z"/>
</svg>
