<?xml version="1.0" encoding="UTF-8" standalone="no"?>
<svg width="24" height="24" viewBox="0 0 24 24" version="1.1">
  <path d="m 16.991473,1.9997381 c -0.03924,-3.135e-4 -0.07882,0.00213 -0.118985,0.00541 L 1.0222578,3.2544879 C 0.37970252,3.3061317 -0.0484966,3.8262021 0.00547773,4.3992669 L 1.1304258,16.685359 c 0.05397,0.572187 0.5887627,0.989885 1.2313134,0.937457 l 0.8040494,-0.05228 -0.108168,2.39412 c -0.053979,0.677231 0.4825025,1.14454 1.1790321,1.197061 L 21.90591,21.996412 c 0.696519,0.0516 1.285484,-0.41707 1.339481,-1.094301 L 23.995356,7.2098343 c 0.054,-0.6247175 -0.482512,-1.1968669 -1.179032,-1.2493414 L 18.372419,5.7531708 18.103801,2.9426033 C 18.053179,2.406134 17.579996,2.0044425 16.991473,1.9997381 Z m -0.867148,1.617113 c 0.256247,-0.018028 0.516754,0.1538812 0.560672,0.5029815 0.04392,0.3491004 0.162755,1.0640067 0.227153,1.5900709 L 5.0929834,5.1275987 c -0.6956711,0 -1.2296156,0.5200706 -1.2835947,1.1447789 L 3.4326033,13.24922 2.4699072,14.550842 1.6135766,5.2844424 v -0.052282 c 0,-0.2607107 0.2672634,-0.4687284 0.535432,-0.4687284 0,0 13.7190714,-1.1285538 13.9753164,-1.1465809 z M 6.0574822,6.9484282 16.980656,7.4171564 18.532868,7.521719 21.639094,7.6785627 c 0.321309,0 0.589517,0.2068433 0.589517,0.5192068 v 0.054084 L 21.693179,18.55847 19.178271,15.697423 17.732425,13.977551 c -0.107072,-0.156638 -0.375375,-0.259603 -0.589517,-0.259603 -0.214144,0 -0.37528,0.05078 -0.589516,0.207322 l -0.912218,0.625572 c -0.03951,0.0192 -0.07221,0.03659 -0.10276,0.05228 -0.135407,0.06941 -0.20395,0.104563 -0.378588,0.104563 -0.214236,0 -0.42836,-0.105007 -0.535432,-0.209125 l -0.160449,-0.156844 -2.30398,-2.550964 c -0.160239,-0.208236 -0.42875,-0.364166 -0.749966,-0.364166 -0.321308,0 -0.535821,0.103648 -0.749965,0.311885 C 8.7275299,13.746395 6.7714349,15.733208 4.87845,17.777856 4.964917,15.434191 5.131976,13.093268 5.2534327,10.750535 5.3079768,9.6397454 5.3953051,7.7978344 5.4138821,7.4171564 5.4324595,7.0364782 5.7527859,6.9347497 6.0574822,6.9484282 Z M 18.266053,8.6664979 c -1.017828,0 -1.874913,0.7814502 -1.874914,1.8226321 0,1.041182 0.803919,1.822633 1.874914,1.822633 1.017829,0 1.874914,-0.833049 1.874913,-1.822633 0,-0.989492 -0.80401,-1.8226321 -1.874913,-1.8226321 z"/>
</svg>
