<?xml version="1.0"?>
<svg width="24" height="24" viewBox="0 0 22 22">
  <path fill-rule="nonzero" clip-rule="evenodd" d="M13.0003 1L13.0008 2.8648C13.0008 3.09288 13.1558 3.29041 13.3736 3.35799C13.8443 3.50404 14.2965 3.69239 14.7255 3.9186C14.9274 4.02501 15.1767 3.99486 15.3381 3.83351L16.6569 2.51472C17.0173 2.15423 17.5846 2.1265 17.9769 2.43152L18.0711 2.51472L19.4853 3.92893C19.8458 4.28941 19.8735 4.85664 19.5685 5.24893L19.4853 5.34314L18.1665 6.6619C18.0051 6.82325 17.975 7.07262 18.0814 7.27447C18.3077 7.70367 18.4961 8.15594 18.6421 8.62683C18.7097 8.8447 18.9073 8.99966 19.1354 8.99968L21 8.99989C21.5522 9.00006 22 9.44776 22 10V12C22 12.5522 21.5522 12.9999 21 13.0001L19.1354 13.0003C18.9073 13.0003 18.7097 13.1553 18.6421 13.3732C18.4961 13.8441 18.3077 14.2963 18.0814 14.7255C17.975 14.9274 18.0051 15.1767 18.1665 15.3381L19.4853 16.6569C19.8458 17.0173 19.8735 17.5846 19.5685 17.9769L19.4853 18.0711L18.0711 19.4853C17.7106 19.8458 17.1434 19.8735 16.7511 19.5685L16.6569 19.4853L15.3381 18.1665C15.1767 18.0051 14.9274 17.975 14.7255 18.0814C14.2963 18.3077 13.8441 18.4961 13.3732 18.6421C13.1553 18.7097 13.0003 18.9073 13.0003 19.1354L13.0001 21C12.9999 21.5522 12.5522 22 12 22H10C9.48716 22 9.06449 21.6142 9.00673 21.1168L9.0002 21L9.00057 19.1358C9.00061 18.9077 8.84561 18.71 8.62766 18.6424C8.15647 18.4963 7.70392 18.3078 7.27447 18.0814C7.07262 17.975 6.82325 18.0051 6.6619 18.1665L5.34314 19.4853C4.98266 19.8458 4.41543 19.8735 4.02314 19.5685L3.92893 19.4853L2.51472 18.0711C2.15423 17.7106 2.1265 17.1434 2.43152 16.7511L2.51472 16.6569L3.83351 15.3381C3.99486 15.1767 4.02501 14.9274 3.9186 14.7255C3.69233 14.2963 3.50393 13.8441 3.35787 13.3732C3.29028 13.1553 3.0927 13.0003 2.86459 13.0003L1 13.0001C0.447758 12.9999 0 12.5522 0 12V10C0 9.44776 0.447758 9.00006 1 8.99989L2.86459 8.99968C3.0927 8.99966 3.29028 8.8447 3.35787 8.62683C3.50393 8.15594 3.69233 7.70367 3.9186 7.27447C4.02501 7.07262 3.99486 6.82325 3.83351 6.6619L2.51472 5.34314C2.15423 4.98266 2.1265 4.41543 2.43152 4.02314L2.51472 3.92893L3.92893 2.51472C4.28941 2.15423 4.85664 2.1265 5.24893 2.43152L5.34314 2.51472L6.6619 3.83351C6.82325 3.99486 7.07262 4.02501 7.27447 3.9186C7.7038 3.69226 8.15621 3.50382 8.62724 3.35774C8.84516 3.29016 9.00014 3.09252 9.00013 2.86437L9.00004 1C8.99998 0.487164 9.386 0.0644759 9.88334 0.00668893L10 0H12C12.5522 0.000265457 12.9999 0.447819 13.0003 1ZM11 6.41667C8.46869 6.41667 6.41667 8.46869 6.41667 11C6.41667 13.5313 8.46869 15.5833 11 15.5833C13.5313 15.5833 15.5833 13.5313 15.5833 11C15.5833 8.46869 13.5313 6.41667 11 6.41667Z"/>
</svg>
