<?xml version="1.0" encoding="UTF-8" standalone="no"?>
<svg width="24" height="24" viewBox="0 0 24 24" version="1.1">
  <path d="M 11.183221,0.02010049 C 5.1995249,0.4173112 0.41696043,5.203899 0.0200836,11.192629 c -0.02677814,0.80737 -0.02677814,0.80737 0,1.61474 0.39687683,5.988748 5.1794413,10.775278 11.1631374,11.172528 0.806691,0.0268 0.806691,0.0268 1.613383,-4e-6 5.983714,-0.397242 10.766221,-5.183772 11.163136,-11.17252 0.05347,-0.807374 0.05389,-0.807374 -4e-6,-1.614744 C 23.562825,5.203899 18.780318,0.4173112 12.796604,0.02010049 c -0.806692,-0.02680066 -0.806692,-0.02680066 -1.613383,0 z m 0,1.79564471 V 5.8224449 C 10.31441,5.7711934 9.4466348,5.6378932 8.5756992,5.4204349 9.2580313,4.2248948 10.125293,3.0226745 11.183221,1.8157452 Z m 1.613383,0 c 1.057911,1.2069293 1.925207,2.4091496 2.607522,3.6046897 -0.870936,0.2174583 -1.738729,0.3507585 -2.607522,0.40201 z M 8.8836478,2.0770518 C 8.1514099,3.0272781 7.5243867,3.9818447 7.0024836,4.9380229 6.3955758,4.7170483 5.7873242,4.4561917 5.1782227,4.1541033 6.2448742,3.2256606 7.5022399,2.5098413 8.8836478,2.0770518 Z m 6.2125292,0 c 1.381407,0.4327895 2.638927,1.1486088 3.705424,2.0770515 -0.609083,0.3020884 -1.217352,0.5629622 -1.82426,0.7839196 C 16.455437,3.9818618 15.828415,3.0272781 15.096177,2.0770518 Z M 3.9966374,5.3601333 C 4.7590553,5.7617742 5.5242186,6.1085551 6.2895155,6.3953091 5.6001569,7.9894368 5.2040174,9.5881578 5.104583,11.192629 H 1.6368138 C 1.8061064,8.9834839 2.6622904,6.9673656 3.9966374,5.3601333 Z m 15.9865486,0 c 1.334194,1.6072323 2.193849,3.6233506 2.363172,5.8324957 H 18.875242 C 18.77567,9.5881578 18.379598,7.9894368 17.690309,6.3953091 18.455519,6.1085551 19.220718,5.7617742 19.983186,5.3601333 Z M 7.8292585,6.8911216 c 1.1171058,0.3052099 2.2373245,0.486922 3.3573105,0.5460635 V 11.192629 H 6.7213129 C 6.8219302,9.7640043 7.1897715,8.3307404 7.8292585,6.8911216 Z m 8.3213065,0 c 0.639488,1.4396188 1.010694,2.8728827 1.111294,4.3015074 H 12.796604 V 7.4371851 c 1.119984,-0.059141 2.236838,-0.2408536 3.353961,-0.5460635 z M 1.6368138,12.804019 H 5.104583 c 0.096059,1.549737 0.468075,3.096229 1.11464,4.636515 -0.7781162,0.295194 -1.554564,0.651268 -2.3296982,1.065328 -1.2727702,-1.585056 -2.0880114,-3.552749 -2.252711,-5.701843 z m 5.0844991,0 h 4.4652561 v 3.567839 C 10.041921,16.432282 8.8972317,16.620582 7.7556188,16.938022 7.1615473,15.555247 6.8180056,14.176829 6.7213129,12.804019 Z m 6.0752911,0 h 4.465255 c -0.09666,1.37281 -0.443564,2.751228 -1.037653,4.134003 -1.141613,-0.31744 -2.282956,-0.505736 -3.427602,-0.566164 z m 6.078638,0 h 3.471116 c -0.164696,2.149094 -0.983219,4.116787 -2.256059,5.701843 -0.775151,-0.41406 -1.551633,-0.770134 -2.329697,-1.065328 0.646444,-1.540286 1.018667,-3.086778 1.11464,-4.636515 z m -7.688673,5.182578 v 4.194305 C 10.079797,20.918143 9.177744,19.662127 8.4819757,18.412058 9.3841197,18.180672 10.286738,18.039599 11.186569,17.986597 Z m 1.610035,0 c 0.899813,0.053 1.7991,0.194075 2.701245,0.425461 -0.695768,1.250069 -1.594474,2.506085 -2.701245,3.768844 z m -5.8811495,0.917924 c 0.5383729,1.009076 1.1956641,2.012517 1.9681933,3.015074 -1.4407568,-0.451452 -2.7474425,-1.20701 -3.842663,-2.194304 0.6262393,-0.316806 1.2505784,-0.589728 1.8744697,-0.82077 z m 10.1489155,0 c 0.62384,0.231042 1.248248,0.503964 1.874471,0.82077 -1.095119,0.987294 -2.401908,1.742852 -3.842664,2.194304 0.772529,-1.002557 1.42982,-2.005998 1.968193,-3.015074 z"/>
</svg>
