<?xml version="1.0"?>
<svg width="24" height="24" viewBox="0 0 30 31">
  <path d="M25.147 4.57279C25.1848 4.40265 25.3462 4.40685 25.384 4.57699C25.722 6.09809 26.5356 7.3176 27.5496 7.82464C27.6587 7.87917 27.6593 8.11332 27.5491 8.16278C26.5032 8.63246 25.6849 9.8599 25.3717 11.4289C25.3388 11.5941 25.1827 11.5932 25.1463 11.4296C24.8083 9.90849 23.9953 8.68815 22.9812 8.18111C22.8678 8.1244 22.865 7.88234 22.9784 7.82562C24.0023 7.3137 24.8057 6.10857 25.147 4.57279Z"/>
  <path d="M28.3436 10.8467C28.3688 10.7333 28.4764 10.7361 28.5016 10.8495C28.7269 11.8636 29.2693 12.6766 29.9454 13.0146C30.0181 13.051 30.0185 13.2071 29.945 13.2401C29.2477 13.5532 28.7022 14.3715 28.4934 15.4174C28.4715 15.5276 28.3674 15.527 28.3432 15.4179C28.1178 14.4039 27.5758 13.5903 26.8998 13.2523C26.8241 13.2145 26.8223 13.0531 26.8979 13.0153C27.5805 12.674 28.1161 11.8706 28.3436 10.8467Z"/>
  <path d="M4.62066 19.5728C4.65847 19.4026 4.81984 19.4068 4.85765 19.577C5.19568 21.0981 6.00924 22.3176 7.0233 22.8246C7.13238 22.8792 7.13296 23.1133 7.02281 23.1628C5.97684 23.6325 5.15855 24.8599 4.84543 26.4289C4.81246 26.5941 4.65636 26.5932 4.62 26.4296C4.28198 24.9085 3.46897 23.6881 2.45491 23.1811C2.34148 23.1244 2.33868 22.8823 2.45211 22.8256C3.47596 22.3137 4.27937 21.1086 4.62066 19.5728Z"/>
  <path d="M1.50149 15.5836C1.5267 15.4702 1.63428 15.473 1.65949 15.5864C1.88484 16.6004 2.42721 17.4135 3.10325 17.7515C3.17597 17.7878 3.17636 17.9439 3.10293 17.9769C2.40561 18.29 1.86009 19.1083 1.65134 20.1543C1.62936 20.2644 1.52529 20.2639 1.50105 20.1548C1.27571 19.1407 0.733702 18.3272 0.057657 17.9891C-0.0179627 17.9513 -0.0198299 17.7899 0.0557898 17.7521C0.738357 17.4109 1.27397 16.6074 1.50149 15.5836Z"/>
  <path d="M25.2526 11.5522C25.2075 11.548 25.1635 11.507 25.1463 11.4296L25.1355 11.3817C25.06 11.0532 24.9623 10.739 24.8452 10.4434C24.8437 10.4395 24.8421 10.4355 24.8406 10.4316C25.0659 10.7506 25.2132 11.1347 25.2526 11.5522Z"/>
  <path d="M15 18.8159L15.0205 18.8158C16.8356 18.8046 18.3045 17.3357 18.3157 15.521L18.3158 15.5001C18.3158 13.6758 16.8426 12.1956 15.0209 12.1844L15 12.1843C13.1687 12.1843 11.6842 13.6688 11.6842 15.5001L11.6843 15.5206C11.6955 17.3427 13.1757 18.8159 15 18.8159Z"/>
  <path fill-rule="evenodd" clip-rule="evenodd" d="M25.2632 12.7367V20.3496C25.2632 21.5953 24.3059 22.6052 23.125 22.6052H8.23448C8.15552 22.3188 7.97042 21.9742 7.5529 21.7654C6.96539 21.4717 6.30488 20.6306 6.01366 19.3201C5.92923 18.9402 5.57022 18.2803 4.76413 18.2633C4.75498 18.2631 4.74589 18.263 4.73686 18.263V11.7781C4.73686 10.5324 5.69414 9.5225 6.87502 9.5225H7.98148C9.20754 9.5225 10.364 8.95279 11.1112 7.9807L11.3648 7.65071C11.7708 7.12252 12.381 6.81573 13.0256 6.81573H17.4078C18.0491 6.81573 18.6566 7.11943 19.0627 7.64308L19.3349 7.99416C20.0826 8.9583 21.2342 9.5225 22.4542 9.5225H22.8559C23.3184 9.93832 23.7648 10.6718 23.9903 11.6865C24.0748 12.0666 24.4414 12.7365 25.2599 12.7367C25.261 12.7367 25.2621 12.7367 25.2632 12.7367ZM10.3786 14.6179C10.7373 12.7273 12.2273 11.2372 14.118 10.8785L15.0229 9.97363L15.9389 10.8897C17.8025 11.2671 19.2664 12.7463 19.6214 14.6179L20.5263 15.5228L19.6103 16.4388C19.2366 18.2835 17.7836 19.7366 15.9389 20.1102L15.0229 21.0263L14.118 20.1214C12.2463 19.7663 10.7672 18.3024 10.3897 16.4388L9.4737 15.5228L10.3786 14.6179Z"/>
  <path d="M6.63841 22.5915C5.56887 22.4673 4.73686 21.511 4.73686 20.3496V19.4473C4.78741 19.447 4.83846 19.4906 4.85765 19.577L4.8692 19.628C4.94388 19.9524 5.04023 20.2627 5.15556 20.5549C5.2267 20.7352 5.30507 20.9085 5.39002 21.0741C5.62313 21.5284 5.90585 21.9237 6.22504 22.2405L6.25352 22.2685C6.37676 22.3882 6.5053 22.4962 6.63841 22.5915Z"/>
</svg>
