<?xml version="1.0" encoding="UTF-8" standalone="no"?>
<svg width="24" height="24" viewBox="0 0 24 24" version="1.1">
  <path d="M 2.4,0 C 1.0745172,0 0,1.074516 0,2.4 v 5.866668 c 0,1.325484 1.0745172,2.4 2.4,2.4 h 5.866668 c 1.325484,0 2.4,-1.074516 2.4,-2.4 V 2.4 c 0,-1.3254828 -1.074516,-2.4 -2.4,-2.4 z m 13.33332,0 c -1.32552,0 -2.4,1.074516 -2.4,2.4 v 5.866668 c 0,1.325484 1.07448,2.4 2.4,2.4 H 21.6 c 1.3254,0 2.4,-1.074516 2.4,-2.4 V 2.4 C 24,1.0745172 22.9254,0 21.6,0 Z m -2.4,15.73332 c 0,-1.32552 1.07448,-2.4 2.4,-2.4 H 21.6 c 1.3254,0 2.4,1.07448 2.4,2.4 V 21.6 c 0,1.32552 -1.0746,2.4 -2.4,2.4 h -5.86668 c -1.32552,0 -2.4,-1.07448 -2.4,-2.4 z M 2.4,13.33332 c -1.3254828,0 -2.4,1.07448 -2.4,2.4 V 21.6 C 0,22.92552 1.0745172,24 2.4,24 h 5.866668 c 1.325484,0 2.4,-1.07448 2.4,-2.4 v -5.86668 c 0,-1.32552 -1.074516,-2.4 -2.4,-2.4 z"/>
</svg>
