<?xml version="1.0" encoding="UTF-8" standalone="no"?>
<svg width="24" height="24" viewBox="0 0 24 24" version="1.1">
  <path d="M 6.4,0 C 2.8653795,0 0,2.8653795 0,6.4 V 17.6 C 0,21.134637 2.8653795,24 6.4,24 H 17.6 C 21.134637,24 24,21.134637 24,17.6 V 6.4 C 24,2.8653795 21.134637,0 17.6,0 Z m 0,4.8 h 3.2 c 0.883679,0 1.6,0.7163449 1.6,1.6 v 3.2 c 0,0.883679 -0.716321,1.6 -1.6,1.6 H 6.4 C 5.5163449,11.2 4.8,10.483679 4.8,9.6 V 6.4 C 4.8,5.5163449 5.5163449,4.8 6.4,4.8 Z m 8,0 h 3.2 c 0.883679,0 1.6,0.7163449 1.6,1.6 v 3.2 c 0,0.883679 -0.716321,1.6 -1.6,1.6 h -3.2 c -0.883679,0 -1.6,-0.716321 -1.6,-1.6 V 6.4 c 0,-0.8836551 0.716321,-1.6 1.6,-1.6 z m -8,8 h 3.2 c 0.883679,0 1.6,0.716321 1.6,1.6 v 3.2 c 0,0.883679 -0.716321,1.6 -1.6,1.6 H 6.4 c -0.8836551,0 -1.6,-0.716321 -1.6,-1.6 v -3.2 c 0,-0.883679 0.7163449,-1.6 1.6,-1.6 z m 8,0 h 3.2 c 0.883679,0 1.6,0.716321 1.6,1.6 v 3.2 c 0,0.883679 -0.716321,1.6 -1.6,1.6 h -3.2 c -0.883679,0 -1.6,-0.716321 -1.6,-1.6 v -3.2 c 0,-0.883679 0.716321,-1.6 1.6,-1.6 z"/>
</svg>
