<?xml version="1.0" encoding="UTF-8" standalone="no"?>
<svg width="24" height="24" viewBox="0 0 24 24" version="1.1">
  <path d="M 0,3.5625 C 0,2.63052 0.75552,1.875 1.6875,1.875 h 20.625 C 23.24445,1.875 24,2.63052 24,3.5625 24,4.49448 23.24445,5.25 22.3125,5.25 H 1.6875 C 0.75552,5.25 0,4.49448 0,3.5625 Z M 0,12 c 0,-0.93195 0.75552,-1.6875 1.6875,-1.6875 h 20.625 C 23.24445,10.3125 24,11.06805 24,12 c 0,0.93195 -0.75555,1.6875 -1.6875,1.6875 H 1.6875 C 0.75552,13.6875 0,12.93195 0,12 Z m 1.6875,6.75 C 0.75552,18.75 0,19.50555 0,20.4375 0,21.36945 0.75552,22.125 1.6875,22.125 h 20.625 C 23.24445,22.125 24,21.36945 24,20.4375 24,19.50555 23.24445,18.75 22.3125,18.75 Z"/>
</svg>
