<svg width="22" height="22" viewBox="0 0 22 22" fill="none" xmlns="http://www.w3.org/2000/svg">
<path d="M21 7.81387C21 14.3779 11.733 19.691 11.3384 19.9105C11.2344 19.9692 11.1181 20 11 20C10.8819 20 10.7656 19.9692 10.6616 19.9105C10.267 19.691 1 14.3779 1 7.81387C1.00165 6.27247 1.58541 4.7947 2.6232 3.70476C3.66099 2.61483 5.06806 2.00174 6.53571 2C8.37946 2 9.99375 2.8327 11 4.24022C12.0063 2.8327 13.6205 2 15.4643 2C16.9319 2.00174 18.339 2.61483 19.3768 3.70476C20.4146 4.7947 20.9983 6.27247 21 7.81387Z" fill="#454545"/>
</svg>
