<?xml version="1.0" encoding="UTF-8" standalone="no"?>
<svg width="24" height="24" viewBox="0 0 40 40" version="1.1">
  <path d="M 20,0 C 8.954311,0 0,8.954311 0,20 0,31.045689 8.954311,40 20,40 31.045689,40 40,31.045689 40,20 40,8.954311 31.045689,0 20,0 Z m -0.784505,8.0013021 c 0.45872,1.461e-4 0.943373,0.029685 1.451823,0.094401 0.305387,0.038871 0.596619,0.089138 0.875651,0.1497396 0.279031,0.060601 0.543883,0.1311759 0.797526,0.2115885 0.253643,0.080413 0.496688,0.171877 0.725911,0.2701823 0.229223,0.098305 0.445271,0.2047314 0.651042,0.3190105 0.20577,0.114279 0.399396,0.2362494 0.582682,0.3645833 0.183286,0.1283339 0.355809,0.2631761 0.517578,0.4036458 0.161769,0.1404698 0.314509,0.2855109 0.455729,0.4361979 0.141221,0.150687 0.272242,0.30651 0.393881,0.465495 0.121639,0.158985 0.232261,0.319662 0.335286,0.485026 0.103026,0.165364 0.197823,0.334733 0.283203,0.504557 0.08538,0.169824 0.162418,0.341958 0.23112,0.514323 0.0687,0.172365 0.129299,0.344591 0.182292,0.517578 0.105985,0.345975 0.182167,0.691696 0.23112,1.028646 0.04895,0.336951 0.0687,0.663988 0.06836,0.976563 -3.25e-4,0.309337 -0.02298,0.606718 -0.0651,0.891927 -0.04212,0.285208 -0.101366,0.560052 -0.179037,0.823567 -0.07767,0.263516 -0.172979,0.517461 -0.279948,0.761719 -0.106969,0.244258 -0.228054,0.478943 -0.358073,0.70638 -0.130018,0.227438 -0.269847,0.447755 -0.416666,0.660808 -0.146819,0.213052 -0.298359,0.417386 -0.455729,0.618489 -0.314741,0.402206 -0.644092,0.783319 -0.963542,1.152344 -0.1257,0.1453 -0.250094,0.290743 -0.371094,0.432943 -0.1394,0.163699 -0.285187,0.32056 -0.429687,0.47526 l -0.286459,0.30599 c -0.179899,0.193374 -0.355518,0.384867 -0.514323,0.585937 -0.158804,0.20107 -0.302753,0.41036 -0.419921,0.634766 -0.05858,0.112203 -0.108671,0.230593 -0.152995,0.351562 -0.04432,0.12097 -0.07993,0.245913 -0.107422,0.377604 -0.0275,0.131692 -0.04724,0.269044 -0.05534,0.413412 -0.0081,0.144368 -0.0074,0.296729 0.0065,0.455729 0.01,0.113925 0.0075,0.227297 -0.0098,0.338542 -0.01725,0.111245 -0.04856,0.217724 -0.0944,0.315755 -0.04584,0.09803 -0.106488,0.189389 -0.182292,0.263672 -0.0758,0.07428 -0.166287,0.132526 -0.273437,0.172526 -0.18965,0.07079 -0.38375,0.131683 -0.576172,0.179036 -0.192422,0.04735 -0.384266,0.07997 -0.572917,0.104167 -0.18865,0.0242 -0.371794,0.03773 -0.55013,0.03906 -0.178336,0.0013 -0.34959,-0.008 -0.511067,-0.0293 -0.161478,-0.02126 -0.314398,-0.05409 -0.452474,-0.09766 -0.138077,-0.04357 -0.262962,-0.09717 -0.371094,-0.16276 -0.108132,-0.06559 -0.198539,-0.143783 -0.270182,-0.23112 -0.07164,-0.08734 -0.124383,-0.184169 -0.152995,-0.292969 -0.05865,-0.223062 -0.101166,-0.447576 -0.130209,-0.670573 -0.02904,-0.222996 -0.04581,-0.443783 -0.04557,-0.664062 2.36e-4,-0.22028 0.01639,-0.439385 0.04557,-0.654297 0.02919,-0.214912 0.0724,-0.427872 0.130209,-0.634766 0.05781,-0.206893 0.132001,-0.409244 0.218099,-0.605468 0.0861,-0.196225 0.185418,-0.383502 0.299479,-0.566407 0.114061,-0.182904 0.24242,-0.360409 0.384114,-0.527343 0.141695,-0.166934 0.296495,-0.323693 0.465495,-0.472006 0.1562,-0.137099 0.315716,-0.276066 0.478516,-0.416666 0.338449,-0.2923 0.688599,-0.594985 1.028646,-0.908203 0.340046,-0.313219 0.671375,-0.638093 0.976562,-0.979818 0.152594,-0.170862 0.299155,-0.344677 0.436198,-0.524089 0.137043,-0.179411 0.263924,-0.364476 0.380859,-0.553385 0.116936,-0.188909 0.223484,-0.383327 0.315756,-0.582682 0.09227,-0.199356 0.171325,-0.404485 0.234375,-0.615235 0.06501,-0.217374 0.110868,-0.441818 0.139974,-0.670573 0.02911,-0.228754 0.04046,-0.460129 0.0293,-0.690104 -0.01116,-0.229974 -0.04511,-0.459303 -0.100911,-0.680338 -0.0558,-0.221036 -0.13283,-0.432829 -0.23763,-0.634766 -0.1048,-0.201937 -0.235717,-0.393727 -0.39388,-0.566406 -0.07908,-0.08634 -0.163921,-0.16702 -0.257162,-0.244141 -0.09324,-0.07712 -0.194789,-0.151468 -0.302734,-0.218099 -0.107945,-0.06663 -0.225112,-0.127419 -0.348308,-0.182291 -0.123195,-0.05487 -0.251634,-0.101387 -0.390625,-0.14323 -0.13899,-0.04184 -0.287376,-0.07662 -0.442708,-0.104166 -0.155332,-0.02754 -0.319318,-0.04987 -0.491536,-0.06185 -0.276356,-0.01923 -0.53773,-0.02469 -0.784506,-0.01953 -0.246775,0.0052 -0.478076,0.02135 -0.696614,0.04883 -0.218539,0.02748 -0.423589,0.06621 -0.615234,0.113932 -0.191645,0.04773 -0.371015,0.103371 -0.53711,0.169271 -0.166095,0.0659 -0.320351,0.142607 -0.462239,0.224609 -0.141889,0.082 -0.271599,0.170895 -0.390625,0.266927 -0.119026,0.09603 -0.224759,0.198 -0.322266,0.30599 -0.09751,0.10799 -0.186341,0.220665 -0.263672,0.338542 -0.07733,0.117876 -0.143324,0.242147 -0.201823,0.367838 -0.0585,0.125691 -0.108729,0.252681 -0.149739,0.384115 -0.04101,0.131433 -0.07279,0.265286 -0.09766,0.40039 -0.02486,0.135105 -0.04202,0.273453 -0.05208,0.410157 -0.02013,0.273406 -0.01149,0.54643 0.01953,0.813802 0.03102,0.267371 0.08484,0.529977 0.15625,0.774739 0.0433,0.148375 0.06205,0.304768 0.05859,0.458985 -0.0035,0.154217 -0.02992,0.305939 -0.08138,0.442708 -0.02573,0.06838 -0.05969,0.132402 -0.09766,0.192057 -0.03796,0.05965 -0.07985,0.114746 -0.130209,0.162761 -0.05036,0.04801 -0.106364,0.08698 -0.169271,0.120442 -0.06291,0.03346 -0.132721,0.05887 -0.208333,0.07487 -0.184175,0.03899 -0.358507,0.0624 -0.520833,0.07162 -0.162327,0.0092 -0.313566,0.0058 -0.455729,-0.0098 -0.142164,-0.01552 -0.273451,-0.04291 -0.397136,-0.07813 -0.123684,-0.03522 -0.238161,-0.07707 -0.345052,-0.126953 -0.213781,-0.09977 -0.396671,-0.226594 -0.553385,-0.354818 -0.156714,-0.128223 -0.287266,-0.257949 -0.400391,-0.374349 -0.112556,-0.115806 -0.211564,-0.2556 -0.296224,-0.413411 -0.08466,-0.157811 -0.156281,-0.334633 -0.211589,-0.527344 -0.05531,-0.192711 -0.09594,-0.401239 -0.120442,-0.621745 -0.0245,-0.220505 -0.03381,-0.452164 -0.02604,-0.693359 0.0078,-0.241195 0.03339,-0.490663 0.07487,-0.745443 0.04148,-0.25478 0.09913,-0.516735 0.175781,-0.777995 0.07666,-0.26126 0.173173,-0.52387 0.286458,-0.784505 0.113286,-0.260635 0.242511,-0.518579 0.393881,-0.771484 0.15137,-0.252905 0.323412,-0.500863 0.514323,-0.738932 0.19091,-0.23807 0.402858,-0.467465 0.634765,-0.6835942 0.231907,-0.2161295 0.484105,-0.4183844 0.758464,-0.6054688 0.274358,-0.1870843 0.570406,-0.3568782 0.888672,-0.5078125 0.318265,-0.1509342 0.658507,-0.2829458 1.022135,-0.390625 0.363628,-0.1076791 0.751663,-0.193332 1.162109,-0.250651 0.410447,-0.057319 0.843364,-0.084782 1.302084,-0.084635 z M 20.14974,27.633464 c 0.179387,0 0.354936,0.0196 0.524088,0.05534 0.169152,0.03574 0.332846,0.08837 0.488281,0.15625 0.155435,0.06788 0.301218,0.150974 0.439453,0.247396 0.138236,0.09642 0.266562,0.207404 0.384115,0.328776 0.117553,0.121372 0.225622,0.25441 0.31901,0.397135 0.09339,0.142726 0.171889,0.295246 0.237631,0.45573 0.06574,0.160483 0.118383,0.326656 0.152994,0.501302 0.03461,0.174645 0.05208,0.355152 0.05208,0.540364 0,0.185225 -0.01747,0.365707 -0.05208,0.540365 -0.03461,0.174658 -0.08725,0.344062 -0.152994,0.504557 -0.06574,0.160495 -0.144242,0.312993 -0.237631,0.455729 -0.09339,0.142736 -0.201457,0.275755 -0.31901,0.397136 -0.117553,0.121381 -0.245879,0.232346 -0.384115,0.328776 -0.138235,0.09643 -0.284018,0.179513 -0.439453,0.247396 -0.155435,0.06788 -0.319129,0.12051 -0.488281,0.15625 -0.169152,0.03574 -0.344701,0.05534 -0.524088,0.05534 -0.179388,0 -0.354937,-0.0196 -0.524089,-0.05534 -0.169152,-0.03574 -0.332846,-0.08837 -0.488281,-0.15625 -0.155435,-0.06788 -0.301218,-0.150966 -0.439453,-0.247396 -0.138236,-0.09643 -0.266562,-0.207395 -0.384115,-0.328776 -0.117553,-0.121381 -0.225622,-0.2544 -0.31901,-0.397136 -0.09339,-0.142736 -0.175144,-0.295234 -0.240886,-0.455729 -0.06574,-0.160495 -0.115127,-0.329899 -0.149739,-0.504557 -0.03461,-0.174658 -0.05208,-0.35514 -0.05208,-0.540365 0,-0.185212 0.01747,-0.365719 0.05208,-0.540364 0.03461,-0.174646 0.084,-0.340819 0.149739,-0.501302 0.06574,-0.160484 0.147497,-0.313004 0.240886,-0.45573 0.09339,-0.142725 0.201457,-0.275763 0.31901,-0.397135 0.117553,-0.121372 0.245879,-0.232354 0.384115,-0.328776 0.138235,-0.09642 0.284018,-0.179519 0.439453,-0.247396 0.155435,-0.06788 0.319129,-0.120513 0.488281,-0.15625 0.169152,-0.03574 0.344701,-0.05534 0.524089,-0.05534 z"/>
</svg>
