<?xml version="1.0" encoding="UTF-8" standalone="no"?>
<svg width="24" height="24" viewBox="0 0 24 24" version="1.1">
  <path d="M 12,1.894734 C 6.41904,1.894734 1.894734,6.41904 1.894734,12 1.894734,17.58096 6.41904,22.10526 12,22.10526 17.58096,22.10526 22.10526,17.58096 22.10526,12 22.10526,6.41904 17.58096,1.894734 12,1.894734 Z M 0,12 C 0,5.372586 5.372586,0 12,0 18.62742,0 24,5.372586 24,12 24,18.62742 18.62742,24 12,24 5.372586,24 0,18.62742 0,12 Z"/>
  <path d="m 12.08976,16.58052 c 0.86106,0 1.55904,0.72066 1.55904,1.60968 0,0.88908 -0.69798,1.6098 -1.55904,1.6098 -0.86106,0 -1.55904,-0.72072 -1.55904,-1.6098 0,-0.88902 0.69798,-1.60968 1.55904,-1.60968 z M 7.59288,9.95832 C 6.51234,8.84658 7.51836,4.236036 12.39948,4.857312 15.3312,5.23047 16.20162,7.34622 16.2,8.84658 c -0.0017,1.63086 -1.044,2.67468 -1.85484,3.62718 -0.08364,0.09822 -0.17034,0.19254 -0.25704,0.28536 l -0.17244,0.18408 c -0.43176,0.4641 -0.81156,0.9276 -0.74502,1.6908 0.02388,0.27342 -0.0795,0.55926 -0.33666,0.65526 -0.91032,0.33978 -1.93668,0.22692 -2.07402,-0.29532 -0.28152,-1.0707 0.0086,-2.16558 0.81978,-2.87748 0.873,-0.76608 1.97112,-1.6134 2.31012,-2.74668 C 14.20194,8.32638 13.86648,6.96696 12.21318,6.852 9.56016,6.66744 9.23052,8.43552 9.5733,9.61038 9.67722,9.96648 9.55974,10.40652 9.1968,10.48332 8.31276,10.67046 7.86438,10.23768 7.59288,9.95832 Z"/>
</svg>
