<?xml version="1.0"?>
<svg width="24" height="24" viewBox="0 0 40 40">
  <path fill-rule="nonzero" clip-rule="evenodd" d="M20 40C31.0457 40 40 31.0457 40 20C40 8.9543 31.0457 0 20 0C8.9543 0 0 8.9543 0 20C0 31.0457 8.9543 40 20 40ZM22.748 30.317C22.748 28.8353 21.5847 27.6342 20.1496 27.6342C18.7145 27.6342 17.5512 28.8353 17.5512 30.317C17.5512 31.7988 18.7145 33 20.1496 33C21.5847 33 22.748 31.7988 22.748 30.317ZM20.6658 8.09552C12.5306 7.06006 10.8539 14.7443 12.6548 16.5972C13.1073 17.0628 13.8546 17.7841 15.328 17.4722C15.9329 17.3442 16.1287 16.6108 15.9555 16.0173C15.3842 14.0592 15.9336 11.1124 20.3553 11.42C23.1108 11.6116 23.6699 13.8773 23.1498 15.6163C22.6454 17.3023 21.133 18.6085 19.7792 19.7777C19.6164 19.9183 19.4558 20.057 19.2996 20.1941C17.9476 21.3806 17.4641 23.2054 17.9333 24.9899C18.1622 25.8603 19.8728 26.0484 21.39 25.4821C21.8186 25.3221 21.9909 24.8457 21.9511 24.39C21.8402 23.118 22.4732 22.3455 23.1928 21.572L23.4802 21.2652C23.6247 21.1105 23.7692 20.9533 23.9086 20.7896C24.0296 20.6474 24.1538 20.504 24.2795 20.3587C25.5573 18.8826 26.9974 17.219 27 14.7443C27.0027 12.2437 25.552 8.71745 20.6658 8.09552Z"/>
</svg>
