<?xml version="1.0" encoding="UTF-8" standalone="no"?>
<svg width="24" height="24" viewBox="0 0 24 24" version="1.1">
  <path d="m 13.123616,18.848832 c 1.377696,0 2.494464,1.153056 2.494464,2.575488 0,1.422528 -1.116768,2.57568 -2.494464,2.57568 -1.377696,0 -2.494464,-1.153152 -2.494464,-2.57568 0,-1.422432 1.116768,-2.575488 2.494464,-2.575488 z M 5.9286081,8.2533216 C 4.1997345,6.4745088 5.8093953,-0.9023472 13.619168,0.09169786 18.30992,0.68874816 19.702592,4.0739904 19.7,6.4745184 c -0.0028,2.609424 -1.6704,4.2794976 -2.967744,5.8034976 -0.133824,0.157152 -0.272544,0.308064 -0.411264,0.456576 l -0.275904,0.294528 c -0.690816,0.74256 -1.298496,1.48416 -1.192032,2.70528 0.03821,0.437472 -0.1272,0.894816 -0.538656,1.048416 -1.456512,0.543648 -3.098688,0.363072 -3.318432,-0.472512 -0.450432,-1.71312 0.01373,-3.464928 1.311648,-4.603968 1.3968,-1.225728 3.153792,-2.5814016 3.696192,-4.3946976 C 16.503104,5.6422368 15.966368,3.4671264 13.321088,3.283152 9.0762465,2.9879424 8.5488417,5.816832 9.0972993,7.6965888 9.2635425,8.266368 9.0755553,8.9704512 8.4948897,9.09336 7.0804065,9.3927648 6.3629985,8.7002592 5.9286081,8.2533216 Z"/>
</svg>
