<?xml version="1.0" encoding="UTF-8" standalone="no"?>
<svg width="24" height="24" viewBox="0 0 24 24" version="1.1">
  <path d="m 16.102313,2.7327591 c -0.569217,0.056922 -1.479964,0.2276866 -1.821494,0.7399817 -1.252276,0.2276868 -2.561475,0.6830601 -4.5537336,1.8214937 v 0 l -0.056916,0.056922 C 5.5718032,8.1403187 5.2302732,12.92174 4.034918,16.450883 3.693388,17.077022 3.1241712,17.589316 2.4411111,18.04469 1.758051,18.556985 0.90422586,19.012359 0.22116575,19.695418 c -0.28460837,0.227688 -0.28460837,0.626139 -0.0569216,0.910747 0.28460837,0.227686 0.6830601,0.284608 0.96766845,0 0,0 0,0 0,0 0.512295,-0.512295 1.2522769,-0.967669 2.0491802,-1.479963 0.5122952,-0.341531 1.0815119,-0.796904 1.5368853,-1.366121 0.3984518,0.227688 1.0245901,0.227688 1.4799636,0.170766 0.3984517,-0.05691 0.6261385,-0.227688 0.7399817,-0.455374 0.1138434,0.05692 0.1707651,0.170765 0.2846084,0.227686 0.7969035,1.195355 1.4230419,2.789163 3.0737702,3.301458 1.252277,0.284608 1.650729,0.170765 2.504553,-0.05692 0.796904,-0.227687 2.447633,-0.853825 2.33379,-1.138434 -0.853826,-0.05692 -1.138434,-0.227687 -1.650729,-0.569216 -0.512295,-0.34153 -0.739982,-0.910747 -1.02459,-1.650729 -0.284608,-0.683061 -0.683061,-1.36612 -1.309199,-1.764572 -0.455373,-0.34153 -1.02459,-0.512295 -1.5938063,-0.455373 -0.5692168,0 -1.2522769,0.284608 -1.5368853,0.569217 C 7.7348268,16.16628 7.3363751,16.337045 6.994845,16.393968 6.82408,15.995515 6.4256283,15.710907 5.8564115,15.881672 c -0.1138434,0 -0.2276867,0.05692 -0.34153,0.05692 0.34153,-1.081511 0.6261384,-2.219945 0.9676685,-3.301457 0.512295,0.227687 1.2522768,0.284609 1.8214936,0.227687 0.5692167,-0.05692 0.853825,-0.34153 0.9676685,-0.683061 0.34153,0.05692 0.6261384,0.170765 0.8538249,0.455374 0.796904,1.309199 1.423042,3.130692 3.016849,3.642987 1.252277,0.341531 1.707651,0.170766 2.504553,-0.05692 0.796904,-0.227687 2.447633,-0.910747 2.33379,-1.252277 -0.910747,-0.05691 -1.138434,-0.284608 -1.650729,-0.626139 -0.512295,-0.341529 -0.739982,-0.967668 -1.02459,-1.764571 -0.284608,-0.796903 -0.683061,-1.536885 -1.309199,-1.992258 -0.455374,-0.398453 -1.02459,-0.569217 -1.593807,-0.512296 -0.569216,0 -1.195355,0.284608 -1.536885,0.683061 -0.284608,0.341529 -0.9107468,0.569216 -1.423042,0.512294 -0.056922,0 -0.1138433,0 -0.1138433,0 C 9.1578686,10.7018 8.6455736,10.246426 7.9625135,10.417191 7.7348268,10.474107 7.4502184,10.531029 7.16561,10.644872 7.7917485,9.1079867 8.7024953,7.6849448 10.182459,6.603433 c 0.113843,0.5692168 0.853825,1.0245901 1.423041,1.3091985 0.569218,0.2846084 1.024591,0.056922 1.3092,-0.34153 0.227686,0.1138433 0.455373,0.2276867 0.683059,0.4553733 0.626139,1.0815119 1.138433,2.6183972 2.504554,3.1306922 1.02459,0.284608 1.423042,0.170765 2.106102,0 0.683061,-0.170766 2.106102,-0.739982 1.992259,-0.967668 C 19.460692,10.075656 19.233005,9.9048904 18.834554,9.5633601 18.37918,9.2787517 18.208415,8.709535 17.980729,8.0264748 17.753041,7.4003365 17.411511,6.7741981 16.956139,6.3757463 16.557686,6.0342162 16.045392,5.8634513 15.590018,5.8634513 c -0.512295,0 -1.02459,0.2846083 -1.309199,0.5692166 -0.284608,0.2276868 -0.739982,0.3984518 -1.138433,0.3415302 0,-0.3984518 -0.227686,-0.7969035 -0.68306,-0.9107468 -0.170765,-0.056922 -0.455373,-0.1138435 -0.683061,-0.1707651 1.195356,-0.6261384 2.106103,-0.8538252 3.01685,-1.0245901 0.398451,0.2276867 0.910746,0.2846083 1.36612,0.2846083 0.455373,0 0.796904,-0.170765 0.910747,-0.5122951 0.05691,0 0.113843,0 0.113843,0 0.113843,0.1707651 0.227686,0.3415301 0.34153,0.5122951 0.05692,0.3984517 0.34153,0.9676685 0.739982,1.3091986 0.341529,0.3984517 0.796903,0.7399817 1.252276,0.9107468 0.569218,0.1707649 1.195355,0.1707649 1.707651,0 0.512294,-0.1138434 0.910747,-0.2276868 1.36612,-0.056922 0.512295,0.2276866 0.796903,0.34153 1.366121,0.853825 C 24.185191,7.9126315 23.445209,6.5465113 22.989836,5.9203729 22.591384,5.2373128 22.363697,4.8957828 21.396029,4.2127226 20.940656,3.9281142 20.542203,3.7573492 20.143752,3.6435059 20.029909,3.5865842 19.916066,3.4727408 19.745301,3.4727408 19.06224,3.1881325 18.151494,3.1312108 17.01306,3.1881325 16.842295,2.9035241 16.557686,2.6758373 16.102313,2.7327591 Z"/>
</svg>
