<?xml version="1.0" encoding="UTF-8" standalone="no"?>
<svg width="24" height="24" viewBox="0 0 24 24" version="1.1">
  <path d="m 22.948027,7.251042 c -0.350658,0 -0.701316,0.2337718 -0.876644,0.5259866 -0.409102,-0.116886 -0.818202,-0.1753289 -1.16886,-0.2337718 -0.525986,-0.058442 -1.110416,-0.058442 -1.636403,0 C 18.564806,7.134156 18.097262,5.6730822 17.746604,5.0302096 17.688161,4.9717668 17.629718,4.8548809 17.571275,4.7964379 17.921932,4.621109 18.155704,4.2704513 18.155704,3.8613506 c 0,-0.5844295 -0.467543,-1.0519732 -1.051973,-1.0519732 -0.58443,0 -1.051972,0.4675437 -1.051972,1.0519732 0,0.4675437 0.292214,0.8182014 0.701314,0.9935303 0,0.2337717 0.05844,0.6428725 0,0.8182013 -0.116886,0.5259866 -0.292214,0.8766444 -0.525986,1.1688591 0.175328,0.2337718 0.292214,0.4675436 0.467544,0.7597584 1.987061,3.6819063 0.350658,8.4157853 -3.623463,10.5781743 -2.220833,1.227302 -4.675437,1.344188 -6.7793834,0.642874 -0.4675436,0.4091 -0.9935302,0.701314 -1.4610738,1.051972 -0.2922147,0.175329 -0.6428725,0.409101 -0.7597584,0.701316 -0.1753289,0.409101 0.9350873,0.233771 1.0519732,0.233771 0.7597584,-0.116886 1.4610739,-0.4091 2.1623893,-0.642872 0.7597584,-0.175329 1.5779597,-0.233772 2.2792752,0.292215 0.4675439,0.350657 1.1104159,0.525987 1.6948449,0.642873 1.227303,0.233772 2.629933,0 3.74035,-0.642873 1.051974,-0.58443 1.870174,-1.461074 2.454604,-2.513047 0.350658,-0.58443 0.642873,-1.227302 0.876645,-1.928618 0.175328,-0.642872 0.292214,-1.285745 0.350658,-1.928617 0.175328,-1.285745 0.4091,-2.571491 0.99353,-3.681907 0.350657,-0.5259858 0.759758,-1.0519726 1.285745,-1.3441874 0.350658,-0.1753289 0.642872,-0.2922148 0.99353,-0.4091007 0.116886,0.4091007 0.525986,0.7597584 0.99353,0.7597584 C 23.532456,9.4134313 24,8.8874447 24,8.3030152 24,7.7770286 23.532456,7.251042 22.948027,7.251042 Z M 12.837396,17.712331 c 3.740349,-1.98706 5.259866,-6.428725 3.389691,-9.8768595 -1.285745,-2.3377181 -3.740349,-3.6234632 -6.3118392,-3.5650202 -1.2273019,0 -2.513047,0.2922147 -3.6819061,0.9350872 2.0455034,-0.1753289 3.9741213,0.7013155 4.9676513,2.5130471 1.344188,2.5130474 0.233772,5.6689664 -2.4546042,7.1300404 -2.2792753,1.227303 -4.9092082,0.876645 -6.487168,-0.701316 0.1168859,0.350658 0.2337718,0.701316 0.4091006,0.993531 1.8701747,3.448135 6.4287251,4.616993 10.1690746,2.57149 z M 8.454174,14.381082 C 10.908778,13.036894 11.902309,10.17319 10.733449,8.0108004 9.9152478,6.5497266 8.395731,5.7315251 6.7593283,5.7315251 c -0.8182014,0 -1.6948456,0.1753289 -2.5130471,0.5844296 0.8182015,0.1753289 1.5779598,0.6428725 1.9870605,1.4026309 0.7597584,1.4610738 0.1168859,3.3312494 -1.4610739,4.2078934 -1.0519732,0.525986 -2.2792752,0.525986 -3.2143624,0 0.058442,0.292214 0.1753288,0.584429 0.3506577,0.818201 1.1688591,2.220832 4.0910068,2.980591 6.5456109,1.636402 z M 4.4800531,11.400492 C 5.824241,10.699177 6.3502276,9.1796594 5.7073551,8.0108004 5.2982544,7.251042 4.4800531,6.8419413 3.6034088,6.8419413 c -0.4675437,0 -0.9350874,0.1168859 -1.402631,0.3506577 C 1.967006,7.3094849 1.7332342,7.4848138 1.5579054,7.6601426 1.6747912,7.7185861 1.7916771,7.8354715 1.9085631,8.0692434 2.025449,8.3614581 1.9670055,8.7705588 1.8501196,9.1212166 1.7332336,9.4134313 1.4994619,9.705646 1.207247,9.9394176 1.0319182,9.9978589 0.91503227,10.056304 0.79814636,10.114747 c 0,0.175328 0.058443,0.292214 0.17532887,0.467544 0.58442957,1.168858 2.16238927,1.519516 3.50657787,0.818201 z M 1.4410194,8.7705588 c 0.058444,-0.1753288 0.058444,-0.2922147 0,-0.4091007 C 1.382577,8.2445722 1.3241335,8.1861292 1.1488046,8.1276863 c 0,0 -0.058443,0 -0.058443,0 -0.17532882,0 -0.35065769,0.058444 -0.5844295,0.1753289 C 0.33060328,8.4783441 0.15527442,8.7121158 0.09683146,8.8874447 -0.02005445,9.0627736 -0.02005445,9.2381024 0.0383885,9.3549884 c 0.05844296,0.058442 0.11688592,0.1753289 0.29221478,0.1753289 0.17532886,0 0.40910068,0 0.6428725,-0.1753289 C 1.2072476,9.1796594 1.3241335,9.0043307 1.4410194,8.7705588 Z"/>
</svg>
