<?xml version="1.0" encoding="UTF-8" standalone="no"?>
<!-- Generator: Adobe Illustrator 19.1.0, SVG Export Plug-In . SVG Version: 6.00 Build 0)  -->
<svg version="1.1" x="0px" y="0px" viewBox="0 0 24 24" space="preserve" width="24" height="24">
  <path d="M 19.119111,8.8922616 C 18.153027,8.9659013 17.464512,9.0026158 16.590153,9.3002778 15.714221,7.6659345 15.398745,6.3459799 14.732712,5.1545722 14.045718,3.9258551 12.973515,2.7877778 10.479369,1.4778159 l -4.89e-4,-0.019931 c -0.174545,1.2534816 -0.246557,2.4066022 -0.233144,3.4665846 0.125506,0.099221 0.250904,0.1978438 0.378853,0.3003773 1.52665,1.3609027 2.129957,2.7720402 4.153255,4.530639 0.07115,0.05448 0.105629,0.145491 0.08992,0.234177 -0.01587,0.08967 -0.07886,0.1611322 -0.164716,0.1888832 -0.08587,0.02716 -0.179977,0 -0.244548,-0.05606 C 12.52136,8.7182076 11.639245,6.5878903 10.089873,5.4263834 7.4898132,3.3075005 3.5071755,2.3229398 1.0313621,1.6907573 1.1759842,2.5300322 3.8711245,3.723938 4.997091,4.2261236 c 0,0 -3.3853942,-0.7496125 -4.997090950112758,-0.7044826 C 1.9643726,4.6066051 5.541854,5.5725805 5.541854,5.5725805 c 0,0 -2.535855,-0.022484 -4.1874139,-0.1519536 2.0682636,1.3332057 4.2444372,1.4998225 4.2444915,1.4998225 0,0 -1.5019947,0.4662336 -2.7455923,0.4246338 1.2031925,0.9310553 3.1180906,1.0083899 3.1180906,1.0083899 0,0 -1.2358316,0.1728621 -2.1944754,0.3789061 0.8493219,0.5412336 2.309771,0.8261876 2.309771,0.8261876 0,0 -0.8355276,0.255845 -1.6699147,0.4535262 0.8414471,0.453524 2.1285454,0.563661 2.1285454,0.563661 0,0 -0.6221518,0.129688 -1.2542962,0.292558 0.6090093,0.49279 1.0820313,0.653703 1.0820313,0.653703 0,0 -0.010856,0.236512 -0.4383736,0.323025 0.493442,0.399597 0.7994673,0.341977 0.7994673,0.341977 0,0 -0.058002,0.279305 -0.3699458,0.186331 0.2369999,0.518749 0.5701791,0.415401 0.5701791,0.415401 0,0 0.010856,0.06718 -0.03921,0.164823 5.974e-4,3.8e-4 8.145e-4,7.62e-4 0.00131,0.0012 0.016618,0.01759 0.033943,0.024 0.050723,0.03671 2.02833,1.496756 4.6089347,2.155858 7.1001107,2.441033 0.133597,0.0176 0.23043,0.137671 0.215386,0.269748 -0.01504,0.134357 -0.136204,0.229505 -0.269857,0.214245 -0.873922,-0.09922 -1.695168,-0.234937 -2.468133,-0.413067 -0.189046,0.70899 -0.401226,1.412115 -0.637303,2.10427 -0.528145,1.119124 -1.8286566,1.511933 -2.6696152,2.331441 -0.096451,0.08809 -0.055448,0.297281 0.029054,0.295108 0.9393102,-0.024 2.0057002,-0.39395 2.9141092,-0.805876 0.86833,-0.393731 1.359002,0.504467 2.103238,0.686726 1.019469,0.249598 2.105139,0.458413 3.124444,0.113667 1.068509,-0.25818 2.019061,-0.878322 2.665761,-1.749586 0.860726,-1.06954 1.250548,-2.413064 1.332879,-3.753873 0.134249,-1.383767 0.187905,-2.465635 0.933771,-3.329675 0.74592,-0.864038 1.142856,-1.304693 2.678467,-1.9562252 0.04486,-0.5358023 -3.29899,-0.6684229 -4.880437,-0.5471531 z m 0.282076,2.5191284 c -0.461999,0 -0.836234,-0.375592 -0.836234,-0.837482 0,-0.462107 0.374235,-0.8363422 0.836234,-0.8363422 0.461998,0 0.837482,0.3742352 0.837482,0.8363422 0,0.461942 -0.375539,0.837482 -0.837482,0.837482 z"/>
  <g/>
</svg>
