<?xml version="1.0" encoding="UTF-8" standalone="no"?>
<svg width="24" height="24" viewBox="0 0 24 24" version="1.1">
  <path d="m 11.009709,21.098756 c -0.990292,0 -1.9805828,-0.23301 -2.679612,-0.407767 l 0.2912622,-1.339805 c 0.7572816,0.174757 1.6893208,0.349514 2.5631068,0.349514 l 0.05825,1.398058 c -0.116504,0 -0.174757,0 -0.233009,0 z M 0.81553398,20.807493 C 0.34951456,20.807493 0,20.399726 0,19.933708 0,19.642445 0.11650486,19.351184 0.29126214,19.176425 0.75728156,18.768658 1.2815534,18.419144 1.6893204,18.127883 l 0.7572816,1.165048 c -0.2912622,0.174757 -1.1067962,0.815534 -1.1067962,0.815534 -0.058253,0.05825 -0.058253,0.05825 -0.058253,0.05825 l -0.2330091,0.40777 z M 14.155339,20.341475 13.572815,19.118174 c 0.815534,-0.349516 1.456311,-0.873787 2.038835,-1.456311 l 0.990291,0.932038 c -0.640775,0.757283 -1.514562,1.339807 -2.446602,1.747574 z M 3.6116504,20.283222 3.145631,18.943417 C 3.669903,18.768658 4.1941748,18.593901 4.776699,18.30264 5.2427184,18.127883 5.7087378,18.06963 6.1747572,18.186134 l -0.3495144,1.339807 c -0.116505,-0.05825 -0.2912622,0 -0.4660194,0.05825 -0.5825244,0.291263 -1.223301,0.524273 -1.747573,0.699031 z M 4.776699,17.428853 3.7281554,16.555066 c 0.1165048,-0.174757 0.2330096,-0.349514 0.291262,-0.524271 0.2330098,-0.582524 0.407767,-1.165048 0.5825244,-1.805825 l 1.3398058,0.407767 c -0.1747574,0.640777 -0.407767,1.281554 -0.6407768,1.864078 v 0.05825 0.05825 C 5.184466,16.904586 5.0097088,17.137596 4.776699,17.428858 Z m 13.514563,-1.281554 -1.281554,-0.582524 c 0.349516,-0.757281 0.582526,-1.572815 0.69903,-2.504853 l 1.398058,0.233008 c -0.174757,1.048544 -0.407767,1.980584 -0.815534,2.854369 z M 6.6407766,11.894872 5.3009708,11.603611 v -0.174757 c 0.1747574,-0.873787 0.407767,-1.7475736 0.815534,-2.62136 L 7.3980582,9.3900182 C 7.0485436,10.1473 6.815534,10.904581 6.6990292,11.661862 v 0.05825 z M 19.398059,10.555067 17.999999,10.38031 c 0.116506,-0.9320394 0.349516,-1.980583 0.873787,-2.9126218 l 1.223301,0.699029 C 19.747573,8.7492416 19.514563,9.4482706 19.398059,10.555067 Z M 8.854369,7.3511832 7.8640776,6.360892 C 8.3883496,5.8366202 9.0291262,5.3706008 9.7281554,4.9628338 9.9029126,4.8463288 10.07767,4.7880764 10.252427,4.6715716 l 0.699029,1.223301 c -0.174757,0.058252 -0.349514,0.1747572 -0.582524,0.2912622 v 0 C 9.8446602,6.4773968 9.3203884,6.8851638 8.854369,7.3511832 Z M 21.786408,6.3026396 20.912621,5.1958434 C 21.553398,4.729824 22.310679,4.2638046 23.475729,3.7977852 L 24,5.0210862 c -1.048544,0.4660194 -1.689321,0.815534 -2.213592,1.2815534 z M 13.339805,4.7880764 12.873787,3.4482706 c 0.990291,-0.2912622 1.805825,-0.407767 2.91262,-0.5242718 L 15.902913,4.322057 C 14.912622,4.4385618 14.155339,4.4968144 13.339805,4.7880764 Z M 21.262135,4.322057 C 20.504854,4.2638046 19.514563,4.2055522 18.582525,4.2055522 V 2.807494 c 0.990291,0 1.980582,0.058253 2.854369,0.1165048 z M 12.815534,14.341474 H 11.53398 c -0.05825,-0.174757 -0.05825,-0.291261 -0.05825,-0.349514 0,-0.407767 0.116505,-0.757281 0.23301,-1.048544 0.116504,-0.23301 0.407767,-0.582524 0.815534,-0.873787 0.407767,-0.349514 0.699029,-0.582524 0.757281,-0.699028 0.116506,-0.174757 0.174757,-0.349514 0.174757,-0.524273 0,-0.291261 -0.116504,-0.524271 -0.349514,-0.699028 -0.174757,-0.23301 -0.46602,-0.2912627 -0.873787,-0.2912627 -0.349514,0 -0.640776,0.058248 -0.873785,0.2912627 -0.23301,0.23301 -0.407768,0.524271 -0.524273,0.932038 L 9.5534042,10.904581 c 0,-0.582524 0.2912622,-1.1067954 0.7572818,-1.5145628 0.466019,-0.407767 1.106795,-0.6407766 1.864078,-0.6407766 0.815534,0 1.456311,0.2330096 1.922329,0.6407766 0.524273,0.4077674 0.757283,0.9320388 0.757283,1.5145628 0,0.291263 -0.116506,0.582524 -0.291263,0.873787 -0.174757,0.291261 -0.524271,0.640777 -1.106797,1.106795 -0.291261,0.291263 -0.466018,0.46602 -0.582524,0.640777 -0.05825,0.116506 -0.05825,0.407767 -0.05825,0.815534 z m -1.281554,0.46602 h 1.398058 v 1.398058 H 11.53398 Z"/>
</svg>
