<?xml version="1.0" encoding="UTF-8" standalone="no"?>
<svg width="24" height="24" viewBox="0 0 24 24" version="1.1">
  <path d="m 14.627283,3.1289069 c -0.117018,0 -0.234036,0 -0.409563,0 -2.106329,0 -3.920112,0.1755274 -5.8509129,1.1701825 2.2818559,1.34571 2.5744019,3.3935295 2.4573829,5.031785 C 10.707172,10.96913 10.297608,10.618075 9.6540079,12.724403 6.7285516,10.559565 3.6275678,11.495711 1.9461657e-6,11.320184 4.5637139,16.29346 8.8933893,14.187132 9.244444,22.904991 c 4.446693,-6.494513 0.5850913,-7.898731 2.69142,-7.138113 3.393529,1.287201 5.616876,1.34571 7.547677,-0.292546 0.819128,0.643601 2.164838,1.989311 2.515893,3.803094 1.9308,-4.505204 0.468073,-5.733895 -0.05851,-7.079605 0.409564,-0.760619 0.819128,-1.638256 1.228692,-2.5744007 2.866943,-7.196623 -2.106332,-5.9679313 -8.542337,-6.4945135 z m 4.73924,9.1274231 C 16.616594,11.378693 15.153866,9.7404383 14.627283,6.9905093 L 15.50492,6.8149819 c 0.468074,2.3988742 1.696765,3.8030931 4.095639,4.5637111 z M 19.249505,7.6341097 c -0.70211,0 -1.287201,-0.5850913 -1.287201,-1.2872009 0,-0.7021094 0.585091,-1.2872007 1.287201,-1.2872007 0.70211,0 1.2872,0.5850913 1.2872,1.2872007 0,0.7021096 -0.58509,1.2872009 -1.2872,1.2872009 z"/>
</svg>
