<?xml version="1.0" encoding="UTF-8" standalone="no"?>
<svg width="24" height="24" viewBox="0 0 24 24" version="1.1">
  <path d="m 20.638767,2.2636968 c -0.23348,0 -0.64207,0.058371 -1.109031,0.2334802 -0.81718,0.2918503 -1.575991,0.8755507 -1.751101,1.3425111 -0.29185,0.2918502 -0.5837,0.8171808 -0.817181,1.4592512 -0.11674,0.2918504 -0.11674,0.5837006 -0.17511,0.8171808 0.642071,-0.1751102 1.284141,-0.4669604 2.101322,-0.7004406 0.05837,-0.4669604 0.11674,-0.8755508 0.05837,-1.225771 0.05837,0 0.17511,-0.058371 0.29185,-0.058371 C 20.113439,3.7813177 20.87225,3.1392471 20.98899,2.6722867 21.04736,2.4971766 20.87225,2.3220665 20.638769,2.2636964 Z m -17.3942743,0.05837 c -0.2334802,0 -0.4085903,0.1751101 -0.3502202,0.3502202 0.11674,0.4669604 0.8755507,1.109031 1.8094715,1.4592512 0.058371,0 0.1751102,0.058371 0.2918502,0.058371 -0.11674,0.3502203 -0.058371,0.7588106 0,1.167401 C 5.812775,5.6491604 6.4548454,5.8826406 7.096916,6.1161208 7.096916,5.8242705 7.038545,5.5907904 6.9218058,5.2989401 6.7466958,4.6568689 6.3964754,4.1315383 6.1046252,3.8396881 5.9878851,3.3727277 5.1707044,2.7890273 4.3535237,2.497177 3.8865633,2.3220669 3.536343,2.2636968 3.2444927,2.3220668 Z M 11.94163,2.497177 c -1.692731,0 -3.0352424,1.4008811 -3.0352424,3.0352425 0,0.5837006 0.1751101,1.109031 0.4085903,1.5176214 0.6420705,0.4085903 1.2257711,0.8755507 1.6927311,1.5759913 l 0.175111,0.1751101 -0.116741,0.2334802 c -0.5837,1.1674005 -0.5837,0.9339206 -0.46696,2.1013225 v 0.11674 l -0.05836,0.175109 c -0.291856,0.46696 -0.8755569,0.875551 -1.5176275,1.342511 -0.6420706,0.408591 -1.4592512,0.758811 -2.2180618,1.109031 0,0 -0.058371,0 -0.1167402,0 -0.11674,0.291851 -0.1751101,0.525331 -0.1751101,0.700442 -0.2918503,0.23348 -0.5837005,0.642069 -0.8755507,1.05066 -0.2918503,0.5837 -0.4669604,1.167402 -0.5253305,1.634362 -0.2334802,0.408589 -0.1751101,1.459251 0.1167401,2.451542 0.2918503,1.05066 0.7588107,1.575991 0.9922908,1.225771 0.2918503,-0.35022 0.2334802,-1.459251 -0.058371,-2.509913 -0.05837,-0.11674 -0.05837,-0.175109 -0.11674,-0.291849 0.4085903,-0.175111 0.8755507,-0.642071 1.225771,-1.284142 0.2334802,-0.408591 0.4085904,-0.875551 0.4669604,-1.225771 0.2918502,-0.11674 0.5253304,-0.23348 0.8171807,-0.46696 0.6420705,-0.46696 1.167401,-1.225771 1.4008812,-1.867842 0.1167406,0.11674 0.2918506,0.23348 0.4669606,0.35022 -1.2257713,0.642071 -2.042952,2.101322 -2.042952,3.794053 0,2.334802 1.5759914,4.202644 3.560573,4.202644 1.984582,0 3.560573,-1.867842 3.560573,-4.202644 0,-1.692731 -0.817181,-3.151982 -2.042952,-3.794053 0.175111,-0.11674 0.35022,-0.23348 0.466961,-0.35022 0.23348,0.642071 0.75881,1.400882 1.400881,1.867842 0.29185,0.23348 0.5837,0.35022 0.81718,0.46696 0.05837,0.35022 0.233481,0.81718 0.466961,1.225771 0.35022,0.642071 0.817181,1.109031 1.225771,1.284142 -0.05837,0.11674 -0.05837,0.175109 -0.11674,0.291849 -0.29185,1.050662 -0.29185,2.159693 -0.05837,2.509913 0.23348,0.35022 0.700442,-0.175111 0.992291,-1.225771 0.291844,-0.992291 0.350215,-2.042953 0.116735,-2.451542 -0.05837,-0.46696 -0.23348,-1.050662 -0.525331,-1.634362 -0.291851,-0.408591 -0.5837,-0.81718 -0.875551,-1.05066 0,-0.233482 -0.05837,-0.466962 -0.175109,-0.700442 0,0 0,0 0,0 -0.758811,-0.35022 -1.575993,-0.70044 -2.218062,-1.109031 C 14.3348,12.303345 13.7511,11.894754 13.459249,11.427794 l -0.05837,-0.175109 v -0.11674 c 0.11674,-1.1674019 0.11674,-0.933922 -0.46696,-2.1013225 L 12.81718,8.8011423 12.99229,8.6260322 c 0.40859,-0.6420706 0.933921,-1.1090309 1.517621,-1.4592513 0.291851,-0.4669604 0.466961,-1.0506608 0.466961,-1.6343614 0,-1.6343614 -1.342511,-3.0352425 -3.035243,-3.0352425 z M 1.0264309,5.3573095 c -0.35022032,0 -0.58370052,0.11674 -0.70044062,0.2334802 -0.17511014,0.05837 -0.23348019,0.2334801 -0.29185024,0.4085902 -0.1167401,0.4669604 0.05837005,1.050661 0.64207054,1.6927315 C 1.2015411,8.3341819 2.2522019,9.0346225 3.7698232,9.559953 4.2367836,9.7350631 5.1123344,9.9101737 6.0462552,9.9685431 l 1.8678416,0.1167399 -1.7511016,0.700442 c -0.11674,0.05836 -0.2334802,0.11674 -0.4085903,0.175109 -0.9339208,0.408591 -1.3425111,0.875551 -1.5759913,1.284142 -0.1751102,0.46696 -0.1751102,0.875549 -0.1167402,1.342511 0,0 0,0 0.058371,0 0.05837,0 0.2918502,0.05837 0.5253304,0 0.4669604,-0.05837 1.167401,-0.23348 1.8678416,-0.525331 0.7004402,-0.291851 1.4592508,-0.642071 2.0429512,-1.05066 0.5837006,-0.350222 1.109031,-0.758811 1.2841412,-1.050662 -0.05837,-0.758811 0.05837,-1.2257709 0.4085902,-1.9262115 C 9.6651982,8.2758119 9.0231276,7.8088515 8.1475769,7.4002611 7.2136562,6.9916708 6.0462552,6.6414505 4.4702638,6.05775 2.8942725,5.5324195 1.7852415,5.2989393 1.0264309,5.3573095 Z m 21.9471381,0 c -0.75881,-0.058371 -1.867841,0.17511 -3.443833,0.7004405 -1.575991,0.5837005 -2.743392,0.9339208 -3.677313,1.3425111 -0.87555,0.4085904 -1.517621,0.8755508 -2.101321,1.6343614 0.35022,0.7004406 0.46696,1.1674005 0.40859,1.9262115 0.17511,0.291851 0.700441,0.70044 1.284141,1.050662 0.583701,0.408589 1.342511,0.758809 2.042952,1.05066 0.70044,0.291851 1.400881,0.46696 1.867841,0.525331 0.233481,0.05837 0.466961,0 0.525331,0 0.05837,0 0.05837,0 0.05837,0 0.05837,-0.466962 0.05837,-0.875551 -0.116741,-1.342511 -0.233483,-0.408591 -0.642073,-0.875551 -1.575994,-1.284142 -0.175104,-0.05837 -0.291844,-0.11674 -0.408584,-0.175109 L 16.085904,10.085283 17.953745,9.9685431 C 18.887666,9.9101759 19.763217,9.7350631 20.230177,9.559953 21.747798,9.0346225 22.798459,8.3341819 23.32379,7.6921114 23.90749,7.0500409 24.0826,6.4663403 23.96586,5.9993799 23.90749,5.8242698 23.84912,5.6491597 23.67401,5.5907897 23.55727,5.4740495 23.32379,5.3573095 22.973569,5.3573095 Z M 2.6024222,12.653565 c -0.6420705,-0.05837 -1.2257711,0.11674 -1.4592513,0.35022 -0.23348011,0.350222 0.2918504,0.758811 1.167401,0.992291 0.4085904,0.05837 0.7588107,0.05837 1.109031,0.05837 C 3.3612323,13.93771 3.3028628,13.87934 3.2444927,13.7626 v 0 -0.05837 c -0.05837,-0.291856 -0.05837,-0.642076 -0.05837,-0.992296 -0.1751102,-0.05837 -0.4085904,-0.05837 -0.5837005,-0.05837 z m 18.6784158,0 c -0.17511,0 -0.35022,0 -0.46696,0.05837 0,0.35022 0,0.70044 -0.05837,1.050661 v 0 0 c -0.05837,0.11674 -0.11674,0.17511 -0.175109,0.29185 0.291849,0 0.64207,0 0.99229,-0.05837 0.933921,-0.23348 1.459252,-0.642069 1.167401,-0.992291 -0.17511,-0.23348 -0.758811,-0.408589 -1.459251,-0.35022 z"/>
</svg>
