<?xml version="1.0" encoding="UTF-8" standalone="no"?>
<svg width="24" height="24" viewBox="0 0 24 24" version="1.1">
  <path d="m 22.188192,13.327696 c -0.361711,-0.301427 -0.723422,-0.542567 -1.024848,-0.723422 -0.180856,-0.663137 -1.085133,-1.507129 -2.35112,-1.929125 -0.120572,-0.06028 -0.301427,-0.120571 -0.421997,-0.180856 0.06027,0 0.06027,0 0.12057,-0.06029 1.145419,-0.6631365 1.86884,-1.5674139 1.989411,-2.2305506 0.602851,-0.2411406 1.446843,-0.783707 2.10998,-1.5071288 C 23.635036,5.6714809 23.996746,4.7069185 23.393895,4.5260629 22.791044,4.4054927 21.46477,5.1289145 20.439923,6.2140473 20.078211,6.5757582 19.837071,6.877184 19.656216,7.1786098 18.993079,7.1183248 18.028517,7.29918 17.063953,7.8417465 c -0.60285,0.3617109 -1.085132,0.783707 -1.446844,1.2057031 0.06029,-0.1205703 0.120572,-0.1808555 0.120572,-0.2411407 0.542565,-1.1454179 0.723422,-2.2305507 0.421995,-2.8936874 0.361712,-0.5425664 0.663137,-1.6879844 0.663137,-2.8334023 0,-1.4468436 -0.482282,-2.35112103 -1.024847,-2.0496952 -0.482282,0.3014258 -0.904277,1.7482694 -0.904277,3.1951131 0,0.4822814 0.06027,0.9042774 0.12057,1.2057032 -0.663137,0.2411406 -1.386559,1.0248476 -1.929126,2.0496953 -0.06027,0.1808554 -0.180855,0.3014257 -0.24114,0.4822812 -0.24114,-0.060285 -0.542567,-0.1205703 -0.843992,-0.1205703 -0.301426,0 -0.602852,0.060285 -0.843993,0.1205703 C 11.095723,7.7814612 10.975153,7.6608909 10.914868,7.4800355 10.372301,6.4551878 9.6488795,5.6714808 8.9857429,5.4303402 9.0460281,5.1289144 9.1063131,4.7069183 9.1063131,4.224637 c 0,-1.4468437 -0.421996,-2.8936873 -0.9042773,-3.1951131 -0.060285,-0.0602851 -0.1808554,-0.0602851 -0.2411406,-0.0602851 v 0 C 7.5388992,0.90895372 7.1771882,1.813231 7.1771882,3.0792192 c 0,1.1454179 0.3014258,2.2305507 0.6631367,2.8334023 -0.3014257,0.6631367 -0.1808555,1.7482695 0.4219961,2.8936874 0,0.060285 0,0.060285 0.060285,0.1205704 C 7.9608952,8.5651682 7.478614,8.1431721 6.9360476,7.8417463 5.9714851,7.2991799 5.0069225,7.1183245 4.3437859,7.1786097 4.1629305,6.8771839 3.9217898,6.5757581 3.5600789,6.2140472 2.5352312,5.1289144 1.269243,4.4054925 0.66639142,4.5260628 0.06353987,4.7069183 0.36496564,5.6714808 1.3898133,6.6963284 2.05295,7.4197503 2.8969422,7.9623167 3.4997937,8.2034573 3.620364,8.866594 4.3437859,9.7708714 5.4892039,10.434008 c 0.060285,0.06029 0.060285,0.06029 0.1205702,0.06029 -0.1205702,0.06028 -0.3014258,0.12057 -0.421996,0.180856 -1.2659883,0.421996 -2.1702657,1.265988 -2.3511211,1.929125 -0.3014258,0.180855 -0.6631367,0.421995 -1.0248476,0.723422 -1.08513282,0.904277 -1.86883984,2.170266 -1.80855468,2.773117 0.12057031,0.602851 1.08513278,0.361711 2.17026558,-0.602851 0.6631367,-0.542567 1.2057031,-1.205704 1.567414,-1.748271 0.5425664,0.120572 1.3262734,0.06029 2.1099805,-0.180855 -0.1205703,0.180855 -0.2411407,0.361712 -0.3617109,0.542567 -0.6631368,0.964562 -0.9042774,2.049695 -0.723422,2.712831 -0.1205702,0.241142 -0.2411406,0.542567 -0.3617108,0.843993 -0.4219962,1.386558 -0.4219962,2.893687 0,3.375969 0.421996,0.421996 1.0851328,-0.301426 1.5071288,-1.687985 0.1808555,-0.663136 0.3014258,-1.386558 0.3014258,-1.929125 0.6028515,-0.301425 1.2659883,-0.904277 1.8085547,-1.748269 0.4219961,-0.663137 0.6631367,-1.326274 0.7234219,-1.929126 0.3617108,0.482282 0.3617108,0.964564 0.421996,1.507129 -0.9042773,0.843993 -1.5071289,1.989411 -1.5071289,3.315685 0,2.411406 1.929125,4.461101 4.3405316,4.461101 2.411406,0 4.34053,-2.049695 4.34053,-4.461101 0,-1.326274 -0.60285,-2.471692 -1.507129,-3.315685 0,-0.60285 0.120572,-0.964562 0.421997,-1.446843 0.06027,0.542566 0.301425,1.205703 0.723422,1.86884 0.542567,0.843992 1.205702,1.446844 1.808554,1.748269 0,0.542567 0.12057,1.265989 0.301427,1.929125 0.421995,1.386559 1.085132,2.109981 1.507129,1.687985 0.421995,-0.482282 0.421995,-1.989411 0,-3.375969 -0.120572,-0.301426 -0.241142,-0.602851 -0.361712,-0.843993 0.180855,-0.663136 -0.06029,-1.748269 -0.723422,-2.712831 -0.12057,-0.180855 -0.24114,-0.361712 -0.36171,-0.542567 0.783707,0.241141 1.567414,0.301427 2.109979,0.180855 0.361712,0.542567 0.904278,1.205704 1.567415,1.748271 1.085133,0.964562 2.049695,1.205702 2.170265,0.602851 0.06027,-0.602851 -0.723422,-1.86884 -1.808554,-2.773117 z"/>
</svg>
