<?xml version="1.0" encoding="UTF-8" standalone="no"?>
<svg width="24" height="24" viewBox="0 0 24 24" version="1.1">
  <path d="m 22.774244,16.753712 c -1.073231,0.338915 -1.299174,1.129716 -1.920518,0.903773 0.112972,-0.225943 0.508373,-1.242687 0.734316,-1.412145 0.621344,-0.734315 -0.451887,-1.412145 -1.186202,-0.960258 -0.338915,0.225943 -0.451886,1.694574 -0.847287,1.751059 -0.734314,0.112972 -0.338915,-1.46863 -1.073229,-1.07323 -0.451886,0.225944 -0.67783,0.847287 -0.282429,1.129716 0.282429,0.169458 1.073229,0.67783 0.451886,1.299174 v 0 c -1.807545,0.225943 -5.366151,0.734315 -5.083722,0.451886 1.242688,-1.016744 3.558606,-2.259432 5.422637,-3.671577 1.638087,-1.186201 2.880775,-2.485374 2.711317,-3.784547 0,-0.05648 -0.05648,-0.112972 -0.05648,-0.169458 -0.05649,-0.05649 -0.112978,-0.112971 -0.169464,-0.169457 -0.225943,-0.112972 -0.508371,-0.169458 -0.903772,-0.169458 -0.790801,0 -1.864031,0.225944 -2.993747,0.564858 -1.129716,0.282429 -2.315918,0.67783 -3.276175,0.960259 -0.508372,0.169457 -0.960259,0.282429 -1.355659,0.338915 -0.395401,0.112971 -0.734316,0.112971 -1.016745,0.05648 -0.169457,-0.05648 -0.282429,-0.225943 -0.225943,-0.395401 0.05648,-0.169457 0.225943,-0.225943 0.395401,-0.225943 0.112971,0.05648 0.3954,0.05648 0.734315,0 0.338915,-0.112971 0.790801,-0.225943 1.299173,-0.338915 0.960258,-0.282429 2.14646,-0.677829 3.276176,-1.016744 1.129716,-0.338915 2.259432,-0.564858 3.163204,-0.564858 0.112972,0 0.282428,0 0.395401,0 0.112972,-0.169457 0.225942,-0.2824286 0.225942,-0.2824286 0.169458,-0.225943 0.395401,-0.3954004 0.621344,-0.3389146 0.621344,0.056479 0.451886,0.7908012 0.903773,0.7908012 0.282429,0 0.508372,-0.282429 0.508372,-0.5648575 -0.05648,-0.3954011 -0.451886,-0.3389153 -0.621344,-0.6213443 -0.508372,-1.0167441 0.903773,-0.3389147 1.186202,-0.4518863 0.338915,-0.1694574 0.225943,-0.6213436 -0.05648,-0.790801 -0.05648,0 -0.112972,0 -0.225943,0 0,0 -0.05648,0 -0.05648,0 -0.338927,0.056491 -0.847299,0.2259492 -0.847299,-0.1129655 0,-0.3954006 1.016745,-0.8472869 0.225943,-1.2426874 -1.016744,-0.564858 -0.508372,1.07323 -0.847287,1.1297158 0,0 -0.05648,0 -0.05648,0 -0.05648,0 -0.112971,0 -0.169457,-0.056486 0,0 -0.05648,0 -0.05648,-0.056486 0,0 -0.05648,0 -0.05648,-0.056486 -0.169475,-0.2259432 -0.0565,-0.6213437 -0.395418,-0.7343153 -0.112972,-0.1129716 -0.225943,-0.1129716 -0.282429,-0.056486 0,0 -0.05648,0 -0.05648,0 -0.282429,0.1129715 -0.395401,0.6778295 -0.169458,0.9602584 0.225944,0.282429 0.67783,0.282429 0.395401,0.7908011 0,0.056486 -0.05648,0.1129716 -0.112972,0.1129716 0,0.056486 -0.05648,0.056486 -0.05648,0.1129716 -0.338915,0.3954004 -1.016744,0.9037725 -1.299173,1.0732297 -0.112972,0.056476 -0.225943,0 -0.282429,-0.05648 0.112959,-1.5251224 0.282417,-2.7678098 1.129704,-3.784554 0.960258,-1.0732301 2.485374,-1.8075452 2.033487,-3.0502326 -0.3954,-1.1862017 -2.824289,-0.3389148 -4.914263,-0.1694574 0,0 -0.05648,0 -0.112972,0 0,0 0,0 -0.05648,0 -0.451886,0.056486 -0.847287,-0.6778295 -1.694574,-0.6778295 -0.05648,0 -0.112972,0 -0.225943,0 -0.960264,0.1694574 -0.847293,1.1297158 -1.242693,1.2991732 0,0 0,0 0,0 0,0 0,0 0,0 0,0 0,0 -0.05648,0 0,0 0,0 0,0 -0.734315,0.2824289 -1.525116,0.6213437 -2.485375,1.1862015 -0.05648,0 -0.112971,0.056486 -0.225943,0.1129716 0,0 0,0 0,0 C 9.7260321,6.0214125 9.0482026,7.7724721 8.7657736,9.3540741 8.7092818,9.5800173 8.4833387,9.7494747 8.2573955,9.7494747 7.9749665,9.6929889 7.8055092,9.4670457 7.8619949,9.1846167 7.9184807,8.7892163 8.0314523,8.33733 8.1444239,7.9419294 6.4498502,9.2411025 5.0377055,11.839449 3.9079897,13.082137 3.6255607,13.251594 3.6820465,10.992162 3.6820465,9.7494747 c 0,-0.6778294 1.1297158,0 1.355659,0.1129715 C 5.3766202,10.088389 6.0544496,9.7494747 5.715535,9.2975883 5.3766202,8.7892163 4.2469044,9.1281311 4.3033902,8.6762447 c 0,-0.2824289 1.1862016,-0.7343153 1.355659,-0.9602584 C 6.0544496,7.2076141 5.2071629,6.5297847 4.5293334,7.0381568 4.4163618,7.1511284 3.6820465,8.1113868 3.5125891,8.1678726 3.1736744,7.7724721 3.3431317,7.3205857 3.2301602,6.4732989 3.1171886,5.6824978 2.2134159,5.4565546 1.9874727,6.4732989 1.7615296,7.4900431 2.9477312,8.5632731 2.1004443,8.5067874 1.648558,8.5067874 1.2531575,7.9984152 0.85775698,7.8289579 0.46235645,7.6595005 -0.21547303,7.6595005 0.06695592,8.4503016 0.29289907,9.0716453 1.4791006,9.2411025 1.9874727,9.3540741 c 0.056486,0 0.1129716,0.056486 0.2259432,0.056486 0,0 0,0 0,0 0,0 0,0 0,0 0.6778295,0.5083721 -0.5083721,5.2531789 1.2991732,5.1966919 0.9037727,0 2.0334885,-1.638087 2.8242895,-1.86403 0.4518863,-0.112972 0.7908011,1.242687 0.9602584,2.372402 0,0.790802 0.2259432,1.35566 0.8472869,1.638088 1.07323,0.451887 2.9937471,0.847287 4.4623781,0.903773 -0.67783,0.67783 -1.694574,1.186202 -1.412145,2.146461 1.016744,0.960258 6.382894,-0.508373 8.020981,0 0.395401,0.112971 0.564858,1.807544 1.75106,1.977002 1.299173,0.112971 1.525117,-0.960258 1.525117,-1.355659 0.05649,-0.3954 -1.581603,-0.847287 -1.638089,-1.299173 -0.112971,-0.790801 0.508373,-0.112972 1.977003,-0.508372 1.525117,-0.451887 1.35566,-1.581603 -0.05648,-1.864032 z M 17.012693,4.1008957 c 0.734316,0 1.299173,0.5648578 1.299173,1.2991731 0,0.6778295 -0.564857,1.2426874 -1.299173,1.2426874 -0.677829,0 -1.242687,-0.5648579 -1.242687,-1.2426874 0,-0.7343153 0.564858,-1.2991731 1.242687,-1.2991731 z"/>
</svg>
