<?xml version="1.0" encoding="UTF-8" standalone="no"?>
<svg width="24" height="24" viewBox="0 0 24 24" version="1.1">
  <path d="M 16.646835,3.1931694 C 14.236046,3.3695687 12.94245,3.4283685 9.7084637,5.3099607 7.3564734,6.6035554 5.8276796,9.0143455 5.474881,11.542735 5.1220825,13.247928 4.6516844,14.894321 4.0636869,16.481915 3.29929,18.187108 1.3000982,18.775106 0.00650351,20.0687 c -0.11759952,0.1176 -0.05879975,0.411599 0.05879976,0.411599 1.41119423,0 3.05758743,-0.587998 4.40998183,-1.234796 1.3523945,-0.587997 2.1167913,0.823197 3.2339868,1.058396 1.5287937,0.411598 3.2339871,0.705597 4.7627811,0.1764 1.646392,-0.352799 3.057587,-1.352395 4.057183,-2.64599 1.293595,-1.646393 1.940391,-3.704384 2.057992,-5.762376 0.176398,-2.057992 0.293999,-3.7631846 1.411194,-5.0567793 C 21.115617,5.721559 21.762415,5.015962 24.055605,4.016366 24.173204,3.1931694 19.057625,3.0167701 16.646835,3.1931694 Z M 16.058838,7.661951 c -0.823197,0 -1.469994,-0.6467973 -1.469994,-1.4699939 0,-0.8231966 0.646797,-1.5287937 1.469994,-1.5287937 0.823196,0 1.528793,0.7055971 1.528793,1.5287937 0,0.8231966 -0.705597,1.4699939 -1.528793,1.4699939 z"/>
</svg>
