<?xml version="1.0" encoding="UTF-8" standalone="no"?>
<svg width="24" height="24" viewBox="0 0 24 24" version="1.1">
  <path d="M 17.466666,1.1833331 C 17.733333,1.4499997 17.866667,1.6499997 17.8,1.9166663 17.666667,2.4499997 16.6,2.583333 15.4,2.3166664 c -1.2,-0.3333334 -2.066667,-1 -1.933333,-1.46666668 0.06667,-0.2 0.266666,-0.33333334 0.533333,-0.46666668 -0.6,-0.0666667 -1.266667,-0.0666667 -1.933333,-0.0666667 -1.200001,0 -2.3333334,0.0666667 -3.4000002,0.26666667 0.6,0.0666667 1.0000001,0.26666667 1.1333334,0.60000005 C 10,1.8499998 8.9333334,2.7833332 7.3333335,3.3166665 5.8000001,3.8499998 4.3333334,3.7833332 4.0666667,3.1166664 4,2.7833332 4.1333334,2.383333 4.5333334,2.0499997 1.8000001,3.5166665 0,5.7833331 0,8.3833331 c 0,1.3333334 0.33333345,3.2666659 1.4000001,3.7999989 1.0666667,0.533334 6,-1.533333 10.5999999,-1.533333 4.6,0 9.4,2.333334 10.533333,1.6 C 23.666667,11.516666 24,9.8499998 24,8.4499998 24,5.3166664 21.333333,2.5166664 17.466666,1.1833331 Z M 3.7333334,7.1166665 c -0.4,0.6666667 -1,0.9333334 -1.3333333,0.5333334 C 2.0666668,7.3166664 2.1333334,6.4499997 2.5333334,5.7833331 c 0.4,-0.6666667 1,-0.9333333 1.3333333,-0.5333334 0.4,0.3333334 0.3333334,1.2 -0.1333333,1.8666668 z M 11.933334,6.3166664 c -0.866667,0 -1.600001,-0.6 -1.600001,-1.2666667 0,-0.6666666 0.733334,-1.1999999 1.600001,-1.1999999 0.933333,0 1.666667,0.5333333 1.666667,1.1999999 0,0.6666667 -0.733334,1.2666667 -1.666667,1.2666667 z m 9.733332,0.3333334 C 21.4,7.0499998 20.533334,6.7166664 19.733334,5.9833331 19,5.1833331 18.6,4.3166664 18.866667,3.9166665 c 0.266666,-0.4 1.133333,-0.066666 1.866667,0.6666666 0.799999,0.8 1.2,1.6666666 0.933332,2.0666667 z M 12,11.849999 c -2,-0.06666 -4.1333333,0.4 -5.9999999,0.8 -0.3333332,1.666667 -0.4666666,3.266667 -0.4666666,4.533334 0,8.666667 12.9333325,8.666667 12.9333325,0 0,-1.2 -0.133332,-2.800001 -0.399999,-4.4 C 16.2,12.316666 14,11.849999 12,11.849999 Z"/>
</svg>
