<?xml version="1.0" encoding="UTF-8" standalone="no"?>
<svg width="24" height="24" viewBox="0 0 24 24" version="1.1">
  <path d="m 23.363586,9.4396767 c -0.484888,-0.415618 -1.108315,-0.692697 -1.731742,-0.623427 -0.06926,0 -0.13854,0 -0.207809,0 -0.831236,0 -1.662473,-0.06927 -2.078091,-0.692697 -0.415618,-0.831236 0.13854,-1.9395513 0.969776,-2.4244391 v 0 C 21.770383,4.5907987 21.978192,3.3439445 21.631844,2.4434386 21.216226,1.265854 19.900102,0.57315716 18.653248,0.91950556 17.822011,0.98877526 16.921506,1.1273147 16.159539,1.3351237 14.981954,1.6122024 13.80437,1.8892812 12.696055,1.7507418 12.557516,1.6122024 12.418976,1.4736631 12.211167,1.3351237 11.65701,0.85023596 10.964313,0.22680876 9.9945374,0.29607846 8.8169534,0.36534816 7.9164474,1.3351237 7.5008294,2.789787 7.2237504,3.6902929 6.2539754,4.3829897 5.2841995,4.3829897 h -0.06927 l -0.06927,0.06927 c -0.6926961,0.138539 -1.1775839,0.6234268 -1.3853929,1.3161236 -0.2078091,0.6926964 0,1.4546634 0.415618,2.0088204 0.2770788,0.346349 0.6234272,0.484888 0.9005059,0.623427 0.1385394,0.06927 0.2770787,0.13854 0.4156181,0.20781 0.2770787,0.277078 0.3463484,0.692696 0.2770787,1.108314 0,0.207809 -0.1385394,0.5541583 -0.4848878,0.7619673 -0.207809,0 -0.415618,0 -0.6234271,0.06926 -0.9697755,0.06926 -2.0780904,0.207809 -2.8400569,1.108315 -0.6926968,0.761967 -1.10831494,1.662472 -1.52393304,2.562978 -0.06927,0.207817 -0.1385394,0.346356 -0.207809,0.484895 v 0.06926 c -0.3463484,1.246854 0.3463484,2.632248 1.59320264,3.047866 0.4848878,0.207816 0.9697756,0.346355 1.4546633,0.484895 0.9005059,0.277079 1.7317421,0.554157 2.2858995,1.246854 0.2770787,0.415618 0.3463484,0.969776 0.4156181,1.593203 0.06927,0.554157 0.1385393,1.108315 0.4156184,1.662472 0.207809,0.484888 0.692696,0.831236 1.246854,0.831236 0.06927,0.06927 0.138539,0.06927 0.207809,0.06927 0.415618,0 0.831236,-0.207809 1.108315,-0.484888 0.415618,-0.484888 0.623427,-1.039045 0.761966,-1.593202 0.207809,-0.484888 0.346349,-0.969776 0.7619666,-1.316124 1.039045,-0.831237 2.632248,-0.554158 3.671293,0.138539 0.554157,0.346348 1.246854,0.554157 1.870281,0.484888 0.623427,-0.06926 1.177585,-0.346349 1.523933,-0.761967 v -0.06927 c 0.623427,-0.900506 0.277079,-1.870282 0,-2.632248 -0.06927,-0.13854 -0.138539,-0.277079 -0.138539,-0.415618 l -0.06926,-0.06926 c -0.207809,-0.554157 -0.13854,-1.177584 0.207809,-1.662472 v -0.06926 c 0.623427,-1.039046 2.14736,-2.14736 4.433259,-2.14736 v 0 c 1.039038,-0.138555 2.078083,-0.761982 2.147353,-1.870297 0.06926,-0.623427 -0.138539,-1.3161243 -0.623427,-1.8010113 z m -6.372811,0.207809 c -0.623427,0.8312363 -1.385393,2.2858993 -3.602023,2.0780903 -2.21663,-0.277079 -2.909327,-2.9093263 -2.909327,-4.2254503 0.207809,-1.108315 0.969776,-1.8702818 1.731742,-2.6322483 0.554158,-0.5541574 0.761967,-1.1083148 2.078091,-1.1083148 1.385393,-0.06927 1.177584,2.2858994 1.523933,3.2556751 0.346348,1.039045 2.00882,1.385393 1.177584,2.632248 z"/>
</svg>
