<?xml version="1.0" encoding="UTF-8" standalone="no"?>
<svg width="24" height="24" viewBox="0 0 24 24" version="1.1">
  <path d="m 22.669471,18.804377 c -0.235955,0 -0.707867,0 -1.297757,0 h -1.769669 c -0.58989,0 -1.238768,-0.05898 -1.71068,-0.117978 -0.176967,-0.05898 -0.353934,-0.05898 -0.471911,-0.117978 0.471911,-0.353933 0.884834,-0.766856 1.238768,-1.238768 1.0618,-1.356747 1.592702,-3.067426 1.769669,-4.778107 0.117978,0.117979 0.294945,0.294945 0.412923,0.530902 0.589889,0.884834 0.412923,1.828657 0.825845,2.654504 1.061802,0.530899 1.061802,-1.887648 0.825846,-2.477538 -0.412924,-0.943823 -1.297758,-1.238768 -1.356747,-1.946636 0.117979,0 0.235956,0.05898 0.412924,0.117978 0.943823,0.530902 1.179779,1.533713 1.887646,2.123603 1.238769,0 0.117977,-2.182591 -0.353933,-2.595514 C 22.19756,10.191988 21.135758,10.486933 20.840814,9.4251314 21.017781,8.7762528 21.312726,8.1273741 21.784636,7.5964736 24.793074,4.3520804 24.43914,3.9391576 18.71721,4.1751135 H 18.65823 C 18.894184,2.995334 18.59924,1.579599 17.714404,0.8127424 17.53743,0.69476446 17.419453,0.6357755 17.301474,0.6357755 v 0 c -0.766855,0.1769669 -1.002811,2.7134924 -1.0618,3.8342828 -0.235956,0.058989 -0.58989,0.1769669 -0.884834,0.2949448 C 15.295851,4.6470252 15.295851,4.5290472 15.236862,4.3520804 15.000906,3.6442127 14.76495,2.8183672 14.057083,2.1694886 13.05427,1.2256652 11.815501,0.4588086 11.579545,1.9335327 11.402579,3.172301 12.110446,4.5880362 13.231237,5.6498376 12.995281,5.8268045 12.759325,5.9447825 12.46438,6.1217493 10.399767,7.2425397 8.9840309,9.4251314 8.6890861,11.725701 7.8632404,20.33809 4.6778363,18.096509 1.9643438,13.259414 0.01770801,9.5431094 1.4334432,4.8239921 4.5008693,3.113312 5.0907591,2.8773561 5.6216598,2.7003893 6.0345825,2.7593783 6.4475053,2.8183672 6.6834612,2.9363451 6.9194171,3.2902789 7.4503176,3.9981466 7.5682956,5.7678155 6.3295274,8.7172638 v 0.058989 h -0.058989 v 0.117978 c -0.058989,0.2359559 0,0.4719116 0.1769669,0.5898896 C 6.6244722,9.6610873 6.8604281,9.7200763 7.0963839,9.6610873 7.3323398,9.6020983 7.4503176,9.4251314 7.5093066,9.2481646 L 7.5682956,9.1301867 V 9.0711977 C 8.866053,6.0037714 8.9250419,3.9391576 8.0991963,2.7003893 7.2733508,1.7565658 6.5654833,1.461621 5.5626708,1.6385879 -0.51319268,2.5824113 -0.92611546,10.781878 1.0795093,14.262227 c 0.5309008,1.238768 3.1854041,6.134852 6.7247422,4.424172 0.9438235,-0.471911 1.651691,0.235956 2.3595585,0.648879 0.117979,0.412922 0.353934,0.884834 0.766857,1.415735 0.648878,0.530901 1.592703,0.884835 2.123603,1.061801 1.297758,0.530902 2.595514,1.415735 3.775294,1.533714 1.238768,0.117977 2.24158,-0.353934 0.825846,-1.415735 -1.002814,-0.707868 -2.477538,-0.943824 -3.539338,-1.356746 -0.471912,-0.176968 -0.884835,-0.412924 -1.238769,-0.58989 0.707867,0.05898 1.415734,0 2.064614,-0.235957 0.235955,-0.05898 0.5309,-0.117977 0.707867,-0.235955 0.05899,0.05899 0.117978,0.117978 0.117978,0.117978 0.235956,0.176966 0.589889,0.412922 1.002814,0.471911 0.766855,0.235956 1.769669,0.235956 2.300568,0.235956 0.825846,0 1.651692,-0.05898 2.477538,0 0.294944,0 1.061801,0.117978 1.65169,0 0.353933,-0.05898 0.58989,-0.117978 0.648878,-0.235956 0.05898,0 0.11798,-0.05898 0.11798,-0.05898 0,-0.05898 0,-0.117977 -0.05898,-0.235956 -0.176971,-0.530904 -0.648884,-0.825849 -1.238773,-1.002816 z M 18.068332,5.5908486 c 0.707868,0 1.297757,0.5898896 1.297757,1.3567463 0,0.7078675 -0.589889,1.2977572 -1.297757,1.2977572 -0.766857,0 -1.356747,-0.5898897 -1.356747,-1.2977572 0,-0.7668567 0.58989,-1.3567463 1.356747,-1.3567463 z M 16.003718,17.50662 c -0.530901,-0.117979 -0.825846,-0.943824 -0.884834,-1.828659 v 0 c -0.117978,-1.297756 0.05898,-2.83147 0.412923,-3.303381 0.471911,-0.648879 1.061801,-0.05898 1.651691,-0.176967 0.5309,-0.05898 1.002812,-0.884835 1.592702,-0.707867 1.710679,0.5309 -0.58989,6.547774 -2.772482,6.016874 z"/>
</svg>
