<?xml version="1.0" encoding="UTF-8" standalone="no"?>
<svg width="24" height="24" viewBox="0 0 24 24" version="1.1">
  <path d="m 23.064449,4.5172277 c 0.292358,-0.2923585 0.643188,-0.7016605 0.70166,-1.1109624 -0.05846,-0.1754151 -0.994019,1.0524907 -1.812623,0.994019 -0.292358,0 -0.643188,0.058472 -0.935547,0.1169434 -0.175415,-0.7016605 -0.935547,-1.1109624 -2.631227,-1.1694341 -0.175415,0 -0.409302,0 -0.584717,0.058472 -0.05847,0 -0.05847,0 -0.116943,0 0,0 -0.05847,0 -0.05847,0 -0.467773,0.058472 -0.818603,-0.7016604 -1.695679,-0.6431887 -0.05847,0 -0.116943,0 -0.175415,0 -0.760132,0.1169434 -0.818604,0.8186038 -1.052491,1.1109624 -0.70166,0.2338868 -1.520264,0.584717 -2.572755,1.2279057 -3.742188,3.4498304 -3.625245,7.835207 -5.6717544,8.829226 -3.0405285,0.877076 -4.0930192,0 -5.78869853,1.637208 -0.7601322,1.110962 -0.994019,2.104981 -0.058472,3.742189 C 1.5468643,21.006247 4.1196192,21.824851 7.2770912,20.538473 10.376095,19.193624 13.592039,10.656756 13.825926,10.247454 14.293699,8.7271904 19.439209,8.4933034 20.4917,6.5052656 20.667115,6.2129071 20.784058,5.9790203 20.901002,5.7451334 22.011964,4.9850013 23.824587,5.043473 24.000002,4.8095862 23.941537,4.6926428 23.5907,4.5756994 23.064455,4.5172277 Z m -5.905642,2.5727549 c -0.643189,0 -1.227906,-0.5262453 -1.227906,-1.2279058 0,-0.6431887 0.584717,-1.2279057 1.227906,-1.2279057 0.70166,0 1.227905,0.584717 1.227905,1.2279057 0,0.7016605 -0.526245,1.2279058 -1.227905,1.2279058 z m 2.982056,8.1275664 C 17.62658,14.57436 15.22924,14.22353 12.948844,14.106586 c -0.175415,0.409302 -0.409302,0.818604 -0.643189,1.286378 -0.643188,1.227905 -1.344849,2.455811 -2.104981,3.508302 -0.818603,0.994019 -1.637207,1.871094 -2.6312263,2.338868 -0.058472,0 -0.058472,0 -0.1169434,0 1.4617927,0 2.9820567,-0.116943 4.5023207,-0.35083 3.683717,-0.467774 7.133548,-1.286378 7.89368,-1.520265 0.70166,-0.233886 1.286377,-1.169434 1.344849,-2.104981 0.05847,-0.409302 0,-0.877075 -0.175415,-1.227906 -0.175415,-0.409302 -0.409302,-0.643188 -0.877076,-0.818603 z m -1.227905,-2.514284 c -1.344849,-0.643188 -2.982057,-1.169434 -4.677737,-1.520264 -0.116943,0.233887 -0.233886,0.584717 -0.409301,0.994019 -0.175416,0.409302 -0.350831,0.818604 -0.584717,1.344849 2.046509,0.175415 4.326906,0.467774 6.665774,1.052491 0.05846,-0.760132 -0.233887,-1.578736 -0.994019,-1.871095 z M 6.1076552,13.463397 c 0.7016604,-0.877075 1.169434,-1.871094 1.6372078,-2.982056 0.05847,-0.05847 0.05847,-0.116944 0.116943,-0.175416 -0.4093017,0 -0.8186036,0 -1.2279055,0 -0.058472,0 -0.1754151,0 -0.2338868,0 -1.4033209,0 -2.3973398,0.116944 -2.6896983,0.350831 -0.8186039,0.70166 -1.0524907,2.046509 -0.409302,2.923585 0.9355473,-0.05847 1.8710945,-0.116944 2.8066418,-0.116944 z M 6.2245986,9.6627374 C 4.9382211,8.1424733 5.0551645,6.6806807 4.7043343,6.6806807 4.5289192,6.8560958 4.5873909,8.4933034 4.8797494,9.7796804 5.347523,9.7212154 5.756825,9.7212154 6.2245986,9.6627374 Z"/>
</svg>
