<?xml version="1.0" encoding="UTF-8" standalone="no"?>
<svg width="24" height="24" viewBox="0 0 24 24" version="1.1">
  <g transform="matrix(0.05852372,0,0,0.05852372,-2.9794326,-2.9537834)">
    <path d="m 121,332 c -13,29 -47,39 -69,61 -2,2 -1,7 1,7 24,0 52,-10 75,-21 23,-10 36,14 55,18 57.51709,14.22285 114.55538,2.76226 150,-42 C 410.47158,244.76283 330.03025,178.03474 461,120 243.72579,60.581397 121.97865,179.30209 121,332 Z m 182,-93 c 16,-5 32,-9 38,-22 l 10,5 c -8,18 -28,23 -45,28 -17,4 -29,8 -33,17 -1,4 -2,8 -4,13 v 0 0 c -3,7 -6,13 -11,20 -5,6 -10,11 -17,17 10,0 18,1 27,3 22,4 39,7 55,-16 l 10,7 c -21,28 -44,24 -67,20 -15,-3 -30,-5 -46,0 -13,7 -27,13 -44,19 l -3,-11 c 10,-3 19,-7 27,-11 v 0 c 1,0 2,-1 3,-1 18,-14 11,-28 -2,-52 -12,-21 -27,-47 -6,-71 l 9,7 c -16,19 -5,38 7,58 6,12 13,23 14,35 0,4 0,8 -1,11 19,-12 29,-25 34,-39 10,-41 -4,-59 -15,-74 -11,-14 -21,-28 0,-53 l 9,7 c -15,18 -10,25 0,39 6,8 13,17 17,30 7,-27 22,-55 86,-77 l 4,11 c -33,11 -54,24 -66,41 -11,14 -13,29 -16,46 v 2 c 7,-4 17,-7 26,-9 z"/>
  </g>
</svg>
