<?xml version="1.0" encoding="UTF-8" standalone="no"?>
<svg width="24" height="24" viewBox="0 0 24 24" version="1.1">
  <path d="M 12,1.4545455 C 6.1759055,1.4545455 1.4545455,6.1759055 1.4545455,12 1.4545455,17.824073 6.1759055,22.545455 12,22.545455 17.824073,22.545455 22.545455,17.824073 22.545455,12 22.545455,6.1759055 17.824073,1.4545455 12,1.4545455 Z M 0,12 C 0,5.3725818 5.3725818,0 12,0 18.627418,0 24,5.3725818 24,12 24,18.627418 18.627418,24 12,24 5.3725818,24 0,18.627418 0,12 Z"/>
  <path d="m 10.020436,8.9370182 c 0.08538,0.087054 0.237382,0.087054 0.322764,0 0.404073,-0.4121455 1.557745,-1.3355637 3.353091,-0.7453091 0.0728,0.023927 0.121891,0.093091 0.121891,0.1696727 v 6.6081452 c 0,0.05302 -0.02305,0.103273 -0.0632,0.137818 l -3.454546,2.972437 c -0.06822,0.05869 -0.169018,0.05869 -0.237236,0 L 6.6086836,15.107345 c -0.040138,-0.03454 -0.063229,-0.0848 -0.063229,-0.137818 V 8.3613818 c 0,-0.076582 0.04912,-0.1457454 0.1218764,-0.1696727 1.79536,-0.5902546 2.9490327,0.3331636 3.353105,0.7453091 z"/>
  <path d="m 17.454545,9.8181818 c 0,-0.2008 -0.162836,-0.3636363 -0.363636,-0.3636363 -0.2008,0 -0.363636,0.1628363 -0.363636,0.3636363 v 1.0909092 h -1.090909 c -0.2008,0 -0.363637,0.162836 -0.363637,0.363636 0,0.2008 0.162837,0.363637 0.363637,0.363637 h 1.090909 v 1.090909 c 0,0.2008 0.162836,0.363636 0.363636,0.363636 0.2008,0 0.363636,-0.162836 0.363636,-0.363636 v -1.090909 h 1.09091 c 0.2008,0 0.363636,-0.162837 0.363636,-0.363637 0,-0.2008 -0.162836,-0.363636 -0.363636,-0.363636 h -1.09091 z"/>
</svg>
