<?xml version="1.0" encoding="UTF-8"?>
<svg width="24" height="24" version="1.1" viewBox="0 0 24 24">
  <g transform="matrix(.91864 0 0 .91864 0 1.2728)" clip-rule="evenodd" stroke-width="1.1723">
    <path d="m15.239 7.6962c0.37514-0.725 0.58698-1.5481 0.58698-2.4207 0-2.9135-2.3619-5.2754-5.2754-5.2754-2.9135 0-5.2754 2.3619-5.2754 5.2754 0 1.9443 1.0519 3.643 2.6176 4.558-4.5404 1.1783-7.893 5.3043-7.893 10.213 0 0.35604 0.017641 0.70808 0.052095 1.0551h12.222c-0.33493-0.51676-0.51852-1.1246-0.51852-1.7536v-8.2948c0-1.3544 0.86224-2.6298 2.2431-3.067 0.4293-0.13592 0.84302-0.23058 1.2404-0.29029z"/>
    <path d="m19.081 11.682c0.14033 0.13567 0.38499 0.13567 0.52532 0 0.55931-0.54059 1.999-1.5978 4.1971-0.90183 0.11805 0.037374 0.19695 0.14905 0.19695 0.27288v8.2948c0 0.08593-0.03763 0.16752-0.10316 0.22321l-4.3636 3.7133c-0.1095 0.0932-0.27034 0.0932-0.37983 0l-4.3636-3.7133c-0.06553-0.05569-0.10316-0.13728-0.10316-0.22321v-8.2948c0-0.12383 0.0789-0.23551 0.19695-0.27288 2.198-0.69595 3.6378 0.36124 4.197 0.90183z"/>
  </g>
</svg>
