<?xml version="1.0" encoding="utf-8"?>
<!-- Generator: Adobe Illustrator 27.3.1, SVG Export Plug-In . SVG Version: 6.00 Build 0)  -->
<svg width="24" height="24" version="1.1" id="Layer_1" xmlns="http://www.w3.org/2000/svg" xmlns:xlink="http://www.w3.org/1999/xlink" x="0px" y="0px"
	 viewBox="0 0 24 24" style="enable-background:new 0 0 24 24;" xml:space="preserve">
<style type="text/css">
	.st0{fill:#FFFFFF;}
</style>
<path class="st0" d="M0,3.9c6.4,0.7,11.5,3,15.2,7l0.1,0.1c0.1,0.2,0.5,0.6,0.9,0.5c0.3-0.1,0.7-0.8,0.8-1l0,0
	c0.3-0.4,1.1-1.7,2.8-2.3c1.7-0.5,3.9,0.1,4,0.1l0,0c0.1,0.1,0.3,0.1,0.2,0.2c-0.1,0.1-0.8,0.4-1.3,1.4s-0.8,3-0.9,3.4
	c-0.3,1.8-1,3.4-2.1,4.8c-1.8,2.5-4.7,4.2-8,4.4c-1.8,0.2-3.6-0.1-5.1-0.8c1.9-0.2,4.2-1.1,6.1-3.2c2.3-2.7-0.2-1.3-2.4-1.7
	c-1.5-0.3-2.8-1-4.9-3.7c0.7-0.2,2-0.4,3.1-0.5c-2-0.5-4.6-1.7-5.8-3.6c0.9-0.3,2.2-0.2,3.2-0.2C2,6.6,0.3,5.4,0,3.9z M9,1.5L9,1.5
	c0.4,0.2,3.6,1.6,5.2,3.7c2.3,3,2.3,5.9,1.7,5.3c-1.4-1.6-2.8-2.6-4.4-3.7C10.3,5.9,9.4,3.5,9,1.5z M20.7,9c-0.3,0-0.5,0.3-0.5,0.6
	s0.3,0.5,0.6,0.5s0.5-0.3,0.5-0.6C21.2,9.2,21,8.9,20.7,9z"/>
</svg>
