<?xml version="1.0" encoding="UTF-8" standalone="no"?>
<svg width="24" height="24" viewBox="0 0 24 24" version="1.1">
  <path d="M 12,0 C 5.3725988,0 0,5.3725988 0,12 0,18.627369 5.3725988,24 12,24 18.627369,24 24,18.627369 24,12 24,5.3725988 18.627369,0 12,0 Z m 0,2.1818182 c 5.422462,0 9.818182,4.3957637 9.818182,9.8181818 0,5.422462 -4.39572,9.818182 -9.818182,9.818182 C 6.5775818,21.818182 2.1818182,17.422462 2.1818182,12 2.1818182,6.5775819 6.5775818,2.1818182 12,2.1818182 Z m 0,3.2727273 c -0.602508,0 -1.090909,0.4884223 -1.090909,1.090909 0,0.6024866 0.488401,1.0909091 1.090909,1.0909091 0.602508,0 1.090909,-0.4884225 1.090909,-1.0909091 0,-0.6024868 -0.488401,-1.090909 -1.090909,-1.090909 z m 0,4.3636363 c -0.602508,0 -1.090909,0.4884112 -1.090909,1.0909092 v 6.545454 c 0,0.602508 0.488401,1.09091 1.090909,1.09091 0.602508,0 1.090909,-0.488402 1.090909,-1.09091 V 10.909091 C 13.090909,10.306604 12.602508,9.8181818 12,9.8181818 Z"/>
</svg>
