<?xml version="1.0" encoding="UTF-8" standalone="no"?>
<svg width="24" height="24" viewBox="0 0 24 24" version="1.1">
  <path d="M 7.3384006,0.06241984 C 6.373248,-0.06258858 5.2699814,-0.01185227 4.0464809,0.34372324 L 3.4269437,0.52456115 V 16.622484 L 11.999999,24 20.573056,16.622484 V 0.52456115 L 19.953518,0.34372324 C 17.50649,-0.36742492 15.530012,0.13738602 14.21024,0.83935306 13.483076,1.2261288 12.935567,1.6746327 12.562606,2.028195 c -0.185761,0.1761226 -0.327818,0.327174 -0.421955,0.4353504 -0.04427,0.05086 -0.07333,0.090989 -0.09712,0.1205577 l -0.0033,-0.00334 -0.0067,0.010048 -0.02009,0.023442 v 0.00334 l -0.0033,0.00334 -0.01005,0.013391 -0.0033,-0.00334 c -0.0038,-0.00504 -0.0076,-0.010236 -0.01005,-0.013391 l -0.02009,-0.026791 h -0.0033 C 11.939231,2.560913 11.906313,2.5175016 11.859347,2.4635454 11.765211,2.355369 11.623153,2.2043176 11.437392,2.028195 11.064432,1.6746327 10.516923,1.2261288 9.7897588,0.83935306 9.1298698,0.4883679 8.3035532,0.18742825 7.3384006,0.06241984 Z M 7.127423,1.7502404 c 0.7359588,0.096282 1.3466286,0.3322578 1.8552628,0.602793 0.559341,0.2975113 0.992177,0.6486067 1.2759122,0.9175848 0.141421,0.1340843 0.246338,0.2471748 0.308093,0.3181408 0.02854,0.032787 0.04657,0.054117 0.05693,0.066978 l 0.0033,0.00334 v 0.00334 l 0.0033,0.00334 0.01005,0.010048 1.359643,1.8318352 1.359634,-1.831821 0.0034,-0.00334 0.0067,-0.0067 0.0067,-0.010048 c 0.01029,-0.01286 0.02839,-0.034189 0.05693,-0.066978 0.06174,-0.070963 0.16666,-0.1840534 0.308087,-0.3181379 0.283735,-0.2689781 0.71657,-0.6200735 1.27591,-0.9175848 0.896336,-0.4767467 2.186087,-0.7373762 3.841133,-0.4186063 V 15.835504 L 12.000045,21.739527 5.1416012,15.835504 V 1.9344271 C 5.8574123,1.7965487 6.5664569,1.676852 7.127423,1.7502404 Z"/>
</svg>
