<svg width="22" height="18" viewBox="0 0 22 18" fill="none" xmlns="http://www.w3.org/2000/svg">
<path d="M2 0C0.89543 0 0 0.895431 0 2V16C0 17.1046 0.895431 18 2 18H20C21.1046 18 22 17.1046 22 16V2C22 0.89543 21.1046 0 20 0H2ZM19.3333 14.5C19.3333 14.7761 19.1095 15 18.8333 15H3.16667C2.89052 15 2.66667 14.7761 2.66667 14.5C2.66667 14.2239 2.89052 14 3.16667 14H18.8333C19.1095 14 19.3333 14.2239 19.3333 14.5ZM19.3333 12.5C19.3333 12.7761 19.1095 13 18.8333 13H3.16667C2.89052 13 2.66667 12.7761 2.66667 12.5C2.66667 12.2239 2.89052 12 3.16667 12H18.8333C19.1095 12 19.3333 12.2239 19.3333 12.5ZM19.3333 7C19.3333 8.10457 18.4379 9 17.3333 9H4.66667C3.5621 9 2.66667 8.10457 2.66667 7V5C2.66667 3.89543 3.5621 3 4.66667 3H17.3333C18.4379 3 19.3333 3.89543 19.3333 5V7Z" fill="#454545"/>
</svg>
