<?xml version="1.0" encoding="UTF-8" standalone="no"?>
<svg width="24" height="24" viewBox="0 0 24 24" version="1.1">
  <path d="m 13.117403,22.247191 c -0.6754,0.4551 -1.5594,0.4551 -2.2348,0 l -9.36859,-6.3113 c -0.719383,-0.4846 -0.712947,-1.5455 0.01226,-2.0214 v 0 c 0.40826,-0.2679 0.9373,-0.265 1.34265,0.0073 l 8.01588,5.3843 c 0.6745,0.452999 1.5559,0.452999 2.2304,0 l 8.0159,-5.3843 c 0.4053,-0.2723 0.9344,-0.2752 1.3426,-0.0073 v 0 c 0.7252,0.4759 0.7317,1.5368 0.0123,2.0214 z m 0,-5.832 c -0.6754,0.454999 -1.5594,0.454999 -2.2348,0 l -8.42037,-5.67249 c -1.17676,-0.7927505 -1.17676,-2.5247005 0,-3.3174405 l 8.42037,-5.672499 c 0.6754,-0.455036 1.5594,-0.455036 2.2348,0 l 8.4204,5.672499 c 1.1767,0.79274 1.1767,2.5247 0,3.3174405 z"/>
</svg>
