<?xml version="1.0" encoding="UTF-8" standalone="no"?>
<svg width="24" height="24" viewBox="0 0 24 24" version="1.1">
  <path d="M 23.874497,2.200529 C 23.917443,1.6831262 23.957854,1.1974499 24,0.75169315 24.083491,-0.13025777 23.39916,-0.05568516 22.699758,0.08727148 20.419099,0.5534052 19.098451,0.91053104 17.615356,1.3116016 16.984507,1.4822149 16.324183,1.6607731 15.548092,1.8590704 3.4283905,4.9555249 3.7485763,12.194136 3.9029409,15.684264 c 0.034063,0.770089 0.060057,1.357726 -0.05747,1.677952 -0.4270833,1.163936 -0.8980861,1.620601 -1.4213572,2.127814 -0.1021095,0.09896 -0.2062063,0.199925 -0.3123703,0.30849 -0.7990882,0.816635 -1.14903325,1.196479 -1.73371949,1.993242 -0.65014649,0.885856 -0.43343082,2.879098 0.43343054,1.993243 C 1.3513638,23.233245 1.8025208,22.726699 2.29589,22.172672 2.8910619,21.504479 3.5476649,20.767199 4.4956188,19.79852 5.0821215,19.199146 5.6839487,19.405206 6.3356703,19.628337 6.5130149,19.689155 6.6940539,19.751039 6.8794808,19.79852 22.090648,23.684709 23.255785,9.6523885 23.874497,2.200529 Z m -2.691844,0.3228533 c 0.650188,-0.8858959 1.517105,-0.8858959 1.083646,0.2214773 -1.781581,4.5515549 -3.76282,6.5736324 -8.235179,8.8589594 -3.9009,1.993309 -6.1825459,3.237135 -8.6686375,6.201325 -1.2786094,1.52444 -0.8890968,-0.360638 -0.6615644,-0.861716 l 0.01143,-0.02427 c 0.053816,-0.109898 0.1065642,-0.217929 0.1583525,-0.32396 2.0336675,-4.161842 2.5875341,-5.295356 8.2935294,-8.5349588 0.260448,-0.1478561 0.510921,-0.2900038 0.752057,-0.42683 5.177362,-2.9374486 6.02494,-3.4183209 7.266366,-5.1100229 z"/>
</svg>
