<?xml version="1.0" encoding="UTF-8" standalone="no"?>
<svg width="24" height="24" viewBox="0 0 24 24" version="1.1">
  <path d="M 6.4,0 C 2.8653795,0 0,2.8653795 0,6.4 V 17.6 C 0,21.134637 2.8653795,24 6.4,24 H 17.6 C 21.134637,24 24,21.134637 24,17.6 V 6.4 C 24,2.8653795 21.134637,0 17.6,0 Z M 6.0796875,5.6 H 17.920313 C 18.627272,5.6 19.2,6.1727602 19.2,6.8796875 c 0,0.7069193 -0.572728,1.2796877 -1.279687,1.2796877 H 6.0796875 C 5.3727602,8.1593752 4.8,7.5866068 4.8,6.8796875 4.8,6.1727602 5.3727602,5.6 6.0796875,5.6 Z m 0,5.120313 H 17.920313 C 18.627272,10.720313 19.2,11.293041 19.2,12 c 0,0.706879 -0.572728,1.279687 -1.279687,1.279687 H 6.0796875 C 5.3727602,13.279687 4.8,12.706879 4.8,12 c 0,-0.706959 0.5727602,-1.279687 1.2796875,-1.279687 z m 0,5.120312 H 17.920313 c 0.706959,0 1.279687,0.572809 1.279687,1.279688 C 19.2,17.827272 18.627272,18.4 17.920313,18.4 H 6.0796875 C 5.3727602,18.4 4.8,17.827272 4.8,17.120313 c 0,-0.706879 0.5727602,-1.279688 1.2796875,-1.279688 z"/>
</svg>
