<?xml version="1.0"?>
<svg width="24" height="24" viewBox="0 0 24 24">
  <path d="M21.9996 18.6663C23.1041 18.6663 23.9995 19.5618 23.9996 20.6663C23.9996 21.7708 23.1042 22.6663 21.9996 22.6663H8.66663C7.56206 22.6663 6.66663 21.7708 6.66663 20.6663C6.6668 19.5618 7.56217 18.6663 8.66663 18.6663H21.9996ZM21.8668 9.86646C23.0449 9.86656 23.9996 10.8221 23.9996 12.0002C23.9994 13.1782 23.0448 14.133 21.8668 14.1331H8.80042C7.62236 14.1331 6.66687 13.1782 6.66663 12.0002C6.66663 10.822 7.62221 9.86646 8.80042 9.86646H21.8668ZM21.9996 1.33325C23.1042 1.33325 23.9996 2.22868 23.9996 3.33325C23.9996 4.43782 23.1042 5.33325 21.9996 5.33325H8.66663C7.56206 5.33325 6.66663 4.43782 6.66663 3.33325C6.66663 2.22868 7.56206 1.33325 8.66663 1.33325H21.9996Z"/>
  <circle cx="2.13333" cy="3.46659" r="2.13333"/>
  <circle cx="2.13333" cy="12" r="2.13333"/>
  <circle cx="2.13333" cy="20.5332" r="2.13333"/>
</svg>
