<?xml version="1.0" encoding="UTF-8" standalone="no"?>
<svg width="24" height="24" viewBox="0 0 24 24" version="1.1">
  <path d="m 12,0 c 0.509815,0 0.923077,0.41327538 0.923077,0.92307692 V 2.8148123 c 4.360985,0.4329785 7.829169,3.9011077 8.262092,8.2621107 h 1.891754 C 23.586738,11.076923 24,11.490185 24,12 c 0,0.509815 -0.413262,0.923077 -0.923077,0.923077 h -1.891754 c -0.432923,4.360985 -3.901107,7.829169 -8.262092,8.262092 v 1.891754 C 12.923077,23.586738 12.509815,24 12,24 11.490185,24 11.076923,23.586738 11.076923,23.076923 V 21.185169 C 6.71592,20.752246 3.2477908,17.284062 2.8148123,12.923077 H 0.92307692 C 0.41327538,12.923077 0,12.509815 0,12 0,11.490185 0.41327538,11.076923 0.92307692,11.076923 H 2.8148123 C 3.2477908,6.71592 6.71592,3.2477908 11.076923,2.8148123 V 0.92307692 C 11.076923,0.41327538 11.490185,0 12,0 Z m 0,19.384615 c 4.078431,0 7.384615,-3.306184 7.384615,-7.384615 0,-4.0784123 -3.306184,-7.3846154 -7.384615,-7.3846154 -4.0784123,0 -7.3846154,3.3062031 -7.3846154,7.3846154 0,4.078431 3.3062031,7.384615 7.3846154,7.384615 z m 0,-2.76923 c 2.548985,0 4.615385,-2.0664 4.615385,-4.615385 0,-2.5489846 -2.0664,-4.6153846 -4.615385,-4.6153846 -2.5489846,0 -4.6153846,2.0664 -4.6153846,4.6153846 0,2.548985 2.0664,4.615385 4.6153846,4.615385 z"/>
</svg>
