<?xml version="1.0" encoding="UTF-8" standalone="no"?>
<svg width="24" height="24" viewBox="0 0 24 24" version="1.1">
  <path d="M 9.3333821,0 C 4.1945007,0 0,4.1945007 0,9.3333821 c 0,5.1388819 4.1945007,9.3333819 9.3333821,9.3333819 2.0902979,0 4.0243059,-0.69533 5.5833629,-1.864594 l 6.807327,6.807328 c 0.520668,0.520669 1.364758,0.520669 1.885426,0 0.520669,-0.520668 0.520669,-1.364758 0,-1.885426 L 16.80217,14.916745 C 17.971434,13.357688 18.666764,11.42368 18.666764,9.3333821 18.666764,4.1945007 14.472264,0 9.3333821,0 Z m 0,2.6666806 c 3.6977029,0 6.6667019,2.9689984 6.6667019,6.6667015 0,3.6977029 -2.968999,6.6667019 -6.6667019,6.6667019 -3.6977031,0 -6.6667015,-2.968999 -6.6667015,-6.6667019 0,-3.6977031 2.9689984,-6.6667015 6.6667015,-6.6667015 z"/>
</svg>
