<?xml version="1.0"?>
<svg width="24" height="24" viewBox="0 0 24 24">
  <path d="M13.1174 22.2472C12.442 22.7023 11.558 22.7023 10.8826 22.2472L1.51401 15.9359C0.794627 15.4513 0.801063 14.3904 1.52627 13.9145C1.93453 13.6466 2.46357 13.6495 2.86892 13.9218L10.8848 19.306C11.5593 19.7591 12.4407 19.7591 13.1152 19.3061L21.1311 13.9218C21.5364 13.6495 22.0655 13.6466 22.4737 13.9145C23.1989 14.3904 23.2054 15.4513 22.486 15.9359L13.1174 22.2472ZM13.1174 16.4152C12.442 16.8702 11.558 16.8702 10.8826 16.4152L2.46223 10.7427C1.28547 9.94996 1.28547 8.21801 2.46223 7.42527L10.8826 1.75277C11.558 1.29774 12.442 1.29773 13.1174 1.75277L21.5378 7.42527C22.7145 8.21801 22.7145 9.94997 21.5378 10.7427L13.1174 16.4152Z"/>
</svg>
