<?xml version="1.0" encoding="UTF-8" standalone="no"?>
<svg width="24" height="24" viewBox="0 0 24 24" version="1.1">
  <path d="m 11.999959,-1.7371019e-5 c -4.8499084,0 -8.8143566,4.046626371019 -8.8143566,9.036593171019 0,1.0523212 0.3285513,2.2406842 0.8764274,3.5714422 0.542282,1.317148 1.2827331,2.70404 2.1034259,4.069128 1.6406376,2.728825 3.5643447,5.305114 4.7452293,6.820483 v 0.0033 h 0.0032 c 0.523727,0.666096 1.647384,0.664807 2.172289,0 9.08e-4,-0.0012 0.0023,-0.002 0.0032,-0.0033 1.202405,-1.516414 3.125012,-4.090896 4.76089,-6.820483 0.818058,-1.365049 1.555017,-2.752071 2.094034,-4.069128 0.544603,-1.330575 0.8701,-2.519484 0.8701,-3.5714422 C 20.814316,4.0467322 16.851381,9.0674375e-6 11.999959,9.0674375e-6 Z m 0,1.602610171019 c 3.961965,0 7.211745,3.2875735 7.211745,7.433983 0,0.6996611 -0.252275,1.7453172 -0.751223,2.9642032 -0.494022,1.207116 -1.194805,2.535464 -1.984482,3.853151 -1.52186,2.539342 -3.299133,4.912096 -4.47604,6.407311 C 10.833696,20.756205 9.0645579,18.38727 7.5395689,15.850799 6.7469155,14.532351 6.0395758,13.204833 5.5425662,11.997649 5.0406374,10.778496 4.7882125,9.7336943 4.7882125,9.0365758 c 0,-4.1460884 3.2516658,-7.433983 7.2117465,-7.433983 z m 0,2.8202183 c -2.5255169,0 -4.5417727,2.1039576 -4.5417727,4.6137647 0,2.5098202 2.0162558,4.6168952 4.5417727,4.6168952 2.525517,0 4.541771,-2.107075 4.541771,-4.6168952 0,-2.5098071 -2.016254,-4.6137647 -4.541771,-4.6137647 z m 0,1.6026103 c 1.638318,0 2.939163,1.3506212 2.939163,3.0111544 0,1.6605532 -1.300845,3.0142852 -2.939163,3.0142852 -1.638317,0 -2.9391625,-1.353732 -2.9391625,-3.0142852 0,-1.6605332 1.3008455,-3.0111544 2.9391625,-3.0111544 z"/>
</svg>
