<?xml version="1.0"?>
<svg width="24" height="24" viewBox="0 0 24 24">
  <path d="M12.4081 22.0397L12.4055 22.0429C12.1892 22.3188 11.8117 22.319 11.5951 22.0437C10.525 20.6705 8.77874 18.3309 7.30335 15.8769C6.56536 14.6494 5.90375 13.4073 5.42861 12.2532C4.94855 11.0872 4.68335 10.0687 4.68335 9.27141C4.68335 5.09966 7.97827 1.75 12 1.75C16.0233 1.75 19.3167 5.09956 19.3167 9.27141C19.3167 10.0697 19.0532 11.0889 18.5761 12.2547C18.1039 13.4087 17.4458 14.6506 16.7103 15.8778C15.2396 18.3318 13.4934 20.6709 12.4081 22.0397ZM8.56113 9.27141C8.56113 11.1885 10.0851 12.7785 12 12.7785C13.9149 12.7785 15.4389 11.1885 15.4389 9.27141C15.4389 7.35429 13.9149 5.76427 12 5.76427C10.0851 5.76427 8.56113 7.35429 8.56113 9.27141Z" stroke="white" stroke-width="1.5"/>
  <path d="M0.707371 0.707423C1.09807 0.316724 1.78008 0.365288 2.23069 0.815894L22.1374 20.7226C22.588 21.1732 22.6366 21.8552 22.2459 22.2459C21.8552 22.6366 21.1732 22.5881 20.7226 22.1375L0.815842 2.23074C0.365236 1.78014 0.316672 1.09812 0.707371 0.707423Z"/>
</svg>
