<?xml version="1.0"?>
<svg width="24" height="24" viewBox="0 0 20 22">
  <path d="M19.5946 16.6412C19.8496 16.4527 20 16.1543 20 15.8372V2.71139C20 1.89043 19.0654 1.41922 18.4054 1.90739L13.928 5.2188C13.5746 5.48013 13.0921 5.48013 12.7387 5.2188L7.26129 1.16781C6.90794 0.906477 6.42539 0.906477 6.07204 1.16781L0.405374 5.35877C0.150412 5.54734 0 5.84566 0 6.16277V19.2886C0 20.1096 0.934572 20.5808 1.59463 20.0926L6.07204 16.7812C6.42539 16.5199 6.90794 16.5199 7.26129 16.7812L12.7387 20.8322C13.0921 21.0935 13.5746 21.0935 13.928 20.8322L19.5946 16.6412ZM7.48739 14.9307C7.13557 14.7145 6.80048 14.3867 6.80046 13.9738L6.80008 4.83572C6.80004 4.01476 7.73459 3.54352 8.39466 4.03165L12.3984 6.99246L12.5126 7.06955C12.8647 7.28589 13.2003 7.61401 13.2003 8.0273L13.2 17.1647C13.2 17.9856 12.2655 18.4568 11.6055 17.9687L7.60155 15.0078L7.48739 14.9307Z"/>
</svg>
