<?xml version="1.0" encoding="UTF-8" standalone="no"?>
<svg width="24" height="24" viewBox="0 0 24 24" version="1.1">
  <path d="M 12,0 A 12,12 0 0 0 0,12 12,12 0 0 0 12,24 12,12 0 0 0 24,12 12,12 0 0 0 12,0 Z m 0,5.1891892 c 1.000961,0 1.812289,0.8113278 1.812289,1.812289 v 4.6830658 c 0,1.000961 -0.811328,1.812289 -1.812289,1.812289 -1.000994,0 -1.812289,-0.811328 -1.812289,-1.812289 V 7.0014782 c 0,-1.0009612 0.811295,-1.812289 1.812289,-1.812289 z M 8.3754224,10.394214 c 0.3128105,0 0.5663007,0.244183 0.5663004,0.546031 v 0.869721 l 0.00126,0.101985 c 0.051957,1.549036 1.3422062,2.800191 2.9423562,2.852407 l 0.101351,0.0019 0.107053,-0.0013 c 1.611501,-0.05008 2.908464,-1.294627 2.962626,-2.839738 l 0.0019,-0.102619 0.0013,-0.911528 0.0082,-0.06841 c 0.04862,-0.258519 0.28187,-0.44848 0.556799,-0.44848 0.312811,0 0.566935,0.244182 0.566935,0.54603 v 0.879856 l -0.0019,0.115921 C 16.12293,14.118398 14.2679,15.859586 12,15.859586 c -2.2675437,0 -4.1239035,-1.741269 -4.1896116,-3.933699 l -0.00191,-0.117188 0.00191,-0.897593 0.0076,-0.06841 c 0.048649,-0.258519 0.282503,-0.44848 0.5574324,-0.44848 z m 3.2426096,6.107053 c 0.125967,0.0094 0.253536,0.01394 0.381968,0.01394 0.128432,0 0.256033,-0.0045 0.381968,-0.01394 0.15814,-0.01184 0.297719,0.109987 0.297719,0.268581 v 0.686022 c 0,0.144681 0.117566,0.261613 0.262247,0.261613 h 0.870355 c 0.375372,0 0.679687,0.244816 0.679687,0.546664 0,0.301848 -0.304315,0.546664 -0.679687,0.546664 h -3.624578 c -0.3753723,0 -0.6796874,-0.244816 -0.6796874,-0.546664 0,-0.301848 0.3043151,-0.546664 0.6796874,-0.546664 h 0.870988 c 0.144681,0 0.261614,-0.116932 0.261614,-0.261613 v -0.686656 c 0,-0.158594 0.139579,-0.279785 0.297719,-0.267947 z"/>
</svg>
