<?xml version="1.0" encoding="UTF-8" standalone="no"?>
<svg width="24" height="24" viewBox="0 0 24 24" version="1.1">
  <path d="M 12,0 C 10.23637,0 8.8067076,1.4297077 8.8067076,3.1933292 v 8.2503328 c 0,1.76363 1.4296624,3.193384 3.1932924,3.193384 1.763631,0 3.193385,-1.429754 3.193385,-3.193384 V 3.1933292 C 15.193385,1.4296985 13.763631,0 12,0 Z m 5.404799,9.9609231 c 0.08575,-0.4554462 0.497447,-0.7905508 0.981877,-0.7905508 0.55117,0 0.997939,0.4311046 0.997939,0.9629817 l -9.3e-5,1.5492 -0.0031,0.205108 c -0.117508,3.845076 -3.385476,6.912369 -7.381385,6.912369 -3.9951314,0 -7.2659068,-3.067385 -7.3817068,-6.930277 l -0.00295,-0.206677 0.00246,-1.581969 0.01368,-0.1201849 c 0.085671,-0.4554462 0.4974461,-0.7905508 0.9818584,-0.7905508 0.5511324,0 0.99792,0.4311046 0.99792,0.9629817 l -8.3e-5,1.531384 0.00294,0.180554 c 0.091551,2.729262 2.3648031,4.933293 5.1841481,5.025323 l 0.178431,0.0034 0.187938,-0.0029 c 2.839385,-0.08815 5.125107,-2.280092 5.220554,-5.002431 l 0.0034,-0.181476 0.0025,-1.605508 z M 7.6092091,23.037046 c 0,-0.531877 0.5361416,-0.962954 1.1974985,-0.962954 h 1.5343394 c 0.254861,0 0.461538,-0.206677 0.461538,-0.461538 v -1.209139 c 0,-0.279415 0.246369,-0.493846 0.524954,-0.472984 0.222,0.01662 0.446215,0.02511 0.672461,0.02511 0.226339,0 0.450647,-0.0084 0.672554,-0.02501 0.278677,-0.02086 0.524954,0.193569 0.524954,0.472985 v 1.209046 c 0,0.254861 0.206677,0.461538 0.461539,0.461538 h 1.534338 c 0.661385,0 1.197507,0.431077 1.197507,0.962954 C 16.390892,23.568831 15.85477,24 15.193385,24 H 8.8067076 C 8.1453507,24 7.6092091,23.568831 7.6092091,23.037046 Z"/>
</svg>
