<?xml version="1.0" encoding="UTF-8" standalone="no"?>
<svg width="24" height="24" viewBox="0 0 24 24" version="1.1">
  <path d="m 2.1280414,0.76761672 c -0.4868248,-0.4699818 -1.27612529,-0.4699818 -1.76295178,0 -0.48682734,0.46998258 -0.48682649,1.23197908 0,1.70196998 L 21.871993,23.232358 c 0.486773,0.470016 1.276119,0.470016 1.762893,0 0.486859,-0.469933 0.486859,-1.231971 0,-1.701904 z M 1.1499776,5.4424114 c -0.015154,-0.1553369 0.012,-0.3062385 0.074092,-0.4417321 l 1.3859883,1.3380388 0.759183,7.9271799 0.8678005,-1.131596 0.2762668,-4.9581699 1.4334657,1.3838984 -0.071323,1.4021865 -0.3378613,5.792116 v 0.317095 L 5.8268588,16.754333 9.540402,13.029293 17.358947,20.577349 4.9598211,20.013081 C 4.3326901,19.967487 3.8505796,19.560609 3.8991798,18.97193 l 0.09642,-2.081474 -0.72356,0.04559 C 2.6935093,16.981645 2.2113989,16.618956 2.1627987,16.12155 Z M 16.2906,6.5733122 9.5768307,6.2565812 l 1.6501773,1.5931051 5.207078,0.21581 1.39852,0.090528 2.796268,0.1361225 c 0.289287,0 0.530745,0.1809726 0.530745,0.4524729 v 0.045595 L 20.71716,17.011602 22.153908,18.398561 22.750139,7.8852193 C 22.79874,7.3422183 22.316681,6.8448208 21.689507,6.7992094 L 17.687577,6.6189319 17.446204,4.1753962 C 17.397604,3.6780071 16.915459,3.3152757 16.336886,3.3608871 L 7.2904617,4.0493443 8.607484,5.3207865 15.663511,4.7625684 c 0.240687,0 0.433545,0.1353943 0.482145,0.3620031 v 0.04562 h 0.04851 z m -0.386402,4.1623368 c 0,0.905029 0.723517,1.584152 1.687721,1.584152 0.916461,0 1.687807,-0.724056 1.687807,-1.584152 0,-0.8600954 -0.723517,-1.5841515 -1.687807,-1.5841515 -0.916375,0 -1.687721,0.6791231 -1.687721,1.5841515 z"/>
</svg>
