<?xml version="1.0" encoding="UTF-8" standalone="no"?>
<svg width="24" height="24" viewBox="0 0 24 24" version="1.1">
  <path d="m 13.781338,2.0948389 c 1.232284,0.9616246 4.606704,-0.2475744 5.544006,8.7509911 0.665643,6.39048 4.735933,6.157823 4.674656,7.478235 -0.124128,2.675476 -6.241001,2.719802 -8.642043,3.232291 C 14.942595,22.736064 14.064996,24.0072 12.000338,24.0006 9.9356794,23.994 9.0580798,22.736064 8.6427181,21.556356 6.2416455,21.043867 0.12483126,20.999541 6.8451818e-4,18.324065 -0.06058295,17.003653 4.0096728,17.23631 4.6753315,10.84583 5.6126554,1.8472645 8.9870528,3.0564635 10.219337,2.0948389 10.025607,0.92479101 10.963508,-0.006226 12.000338,3.1357184e-5 13.037167,0.00628872 13.975068,0.92479101 13.781338,2.0948389 Z"/>
</svg>
