<?xml version="1.0" encoding="UTF-8"?>
<svg width="24" height="24" version="1.1" viewBox="0 0 24 24">
  <path d="m12 0.375c-0.59365 0-1.1775 0.044583-1.7484 0.13075-0.55687 0.084059-0.94017 0.60364-0.85611 1.1605 0.084059 0.55687 0.60364 0.94016 1.1605 0.85611 0.4704-0.071006 0.95255-0.1079 1.444-0.1079s0.97356 0.03689 1.444 0.1079c0.55687 0.084059 1.0764-0.29923 1.1605-0.85611 0.084059-0.55688-0.29923-1.0765-0.85611-1.1605-0.57082-0.086164-1.1547-0.13075-1.7484-0.13075zm-5.6806 3.9032c0.45335-0.33413 0.55001-0.97252 0.21586-1.4259-0.33413-0.45337-0.97252-0.55001-1.4259-0.21587-0.94331 0.69525-1.7776 1.5296-2.4729 2.4729-0.33413 0.45335-0.23749 1.0917 0.21587 1.4259 0.45335 0.33415 1.0917 0.23749 1.4259-0.21586 0.57381-0.77856 1.2626-1.4673 2.0412-2.0412zm12.571-1.6417c-0.45342-0.33413-1.0917-0.23749-1.4258 0.21587-0.33415 0.45335-0.23756 1.0917 0.21586 1.4259 0.77859 0.57381 1.4673 1.2626 2.0411 2.0412 0.33415 0.45335 0.97258 0.55001 1.4258 0.21586 0.45342-0.33413 0.55-0.97252 0.21586-1.4259-0.69522-0.94331-1.5294-1.7776-2.4728-2.4729zm-16.368 7.9196c0.084059-0.55687-0.29923-1.0765-0.85611-1.1605-0.55688-0.084059-1.0765 0.29923-1.1605 0.85611-0.086164 0.57082-0.13075 1.1547-0.13075 1.7484s0.044583 1.1775 0.13075 1.7484c0.084059 0.55688 0.60364 0.94016 1.1605 0.85611 0.55687-0.084059 0.94016-0.60364 0.85611-1.1605-0.071006-0.4704-0.1079-0.95255-0.1079-1.444s0.03689-0.97356 0.1079-1.444zm20.972-0.3044c-0.08419-0.55687-0.60368-0.94017-1.1605-0.85611-0.55686 0.084059-0.94028 0.60364-0.85609 1.1605 0.07097 0.4704 0.10785 0.95255 0.10785 1.444s-0.03687 0.97356-0.10785 1.444c-0.08419 0.55687 0.29923 1.0764 0.85609 1.1605 0.55686 0.08406 1.0764-0.29923 1.1605-0.85611 0.086147-0.57082 0.13069-1.1547 0.13069-1.7484s-0.04454-1.1775-0.13069-1.7484zm-19.216 7.429c-0.33413-0.45342-0.97252-0.55-1.4259-0.21586-0.45337 0.33415-0.55001 0.97242-0.21587 1.4258 0.69525 0.94338 1.5296 1.7776 2.4729 2.4728 0.45335 0.33415 1.0917 0.23756 1.4259-0.21586 0.33415-0.45325 0.23749-1.0917-0.21586-1.4258-0.77856-0.57383-1.4673-1.2625-2.0412-2.0411zm17.085 1.21c0.33415-0.45342 0.23756-1.0917-0.21586-1.4258-0.45325-0.33415-1.0917-0.23756-1.4258 0.21586-0.57383 0.77859-1.2625 1.4673-2.0411 2.0411-0.45342 0.33415-0.55 0.97258-0.21586 1.4258 0.33415 0.45342 0.97242 0.55 1.4258 0.21586 0.94338-0.69522 1.7776-1.5294 2.4728-2.4728zm-10.807 2.587c-0.55687-0.08419-1.0765 0.29923-1.1605 0.85609-0.084059 0.55686 0.29923 1.0764 0.85611 1.1605 0.57082 0.086147 1.1547 0.13069 1.7484 0.13069s1.1775-0.04454 1.7484-0.13069c0.55688-0.08419 0.94016-0.60368 0.85611-1.1605-0.08406-0.55686-0.60364-0.94028-1.1605-0.85609-0.4704 0.07097-0.95255 0.10785-1.444 0.10785s-0.97356-0.03687-1.444-0.10785zm1.444-4.5829c2.6606 0 4.8947-2.1532 4.8947-4.8947 0-2.7416-2.2342-4.8947-4.8947-4.8947-2.6606 0-4.8947 2.1532-4.8947 4.8947 0 2.7416 2.2342 4.8947 4.8947 4.8947zm3.1951-4.8947c0 1.7469-1.4328 3.1672-3.1951 3.1672s-3.1951-1.4203-3.1951-3.1672 1.4328-3.1672 3.1951-3.1672 3.1951 1.4203 3.1951 3.1672z" clip-rule="evenodd" stroke-width="1.6316"/>
</svg>
