<?xml version="1.0" encoding="UTF-8"?>
<svg width="24" height="24" version="1.1" viewBox="0 0 24 24">
  <path d="m16.2 5.4c0 0.8621-0.20208 1.677-0.56136 2.4h-1.5388c-0.03672 0-0.07344 6.72e-4 -0.11016 0.00203l-0.04692 0.00172c-0.03684 0.00136-0.0738 0.00339-0.11052 0.0061-1.8341 0.13532-3.2874 1.6279-3.3582 3.4773-0.29904 0.32602-0.52867 0.72115-0.6619 1.1652l-1.8856 6.2857c-0.083892 0.2796-0.12652 0.57-0.12652 0.86208v1.9999h-7.7467c-0.035268-0.3552-0.053325-0.71556-0.053325-1.08 0-5.0249 3.4317-9.2483 8.0794-10.454-1.6027-0.93659-2.6794-2.6754-2.6794-4.6656 0-2.9823 2.4177-5.4 5.4-5.4 2.9824 0 5.4 2.4177 5.4 5.4z" clip-rule="evenodd" stroke-width="1.2"/>
  <path d="m20.7 10.8c0.34716 0 0.62856 0.28142 0.62856 0.62857v1.2571h-2.8285v-1.2571c0-0.34715 0.2814-0.62857 0.62856-0.62857zm-4.7144 2.5144v5.657l-0.47148 0.31428v4.0858c0 0.33132-0.25644 0.60288-0.58164 0.62688l-0.04692 0.0017h-3.457c-0.33136 0-0.60283-0.25644-0.62682-0.58164l-0.0017-0.04692v-3.7714l1.8857-6.2857zm6.1288 0 1.8857 6.2857v3.7714c0 0.34716-0.2814 0.62856-0.62856 0.62856h-3.457c-0.34716 0-0.62856-0.2814-0.62856-0.62856v-4.0858l-0.47148-0.31428v-5.657zm-3.7716 5.3428v-5.3428h-1.8856v5.3428zm-2.676-7.8571c0.34716 0 0.62856 0.28142 0.62856 0.62857v1.2571h-2.8285v-1.2571c0-0.34715 0.2814-0.62857 0.62856-0.62857z" clip-rule="evenodd"/>
</svg>
