<?xml version="1.0"?>
<svg width="24" height="24" viewBox="0 0 19 18">
  <path d="M12.65 4.05012C12.65 4.59966 12.5406 5.12363 12.3423 5.60143C12.3128 5.60056 12.2832 5.60012 12.2534 5.60012H11.0749C11.0443 5.60012 11.0137 5.60069 10.9831 5.60181L10.9479 5.6031C10.9172 5.60423 10.8865 5.60593 10.8558 5.60819C9.38387 5.71679 8.21145 6.89282 8.11056 8.36517C7.89091 8.623 7.72148 8.92809 7.61966 9.26753L6.20543 13.9818C6.13552 14.2148 6.1 14.4568 6.1 14.7001V16.2001H0.539994C0.513543 15.9337 0.5 15.6635 0.5 15.3901C0.5 11.6214 3.07379 8.45386 6.55953 7.54931C5.35752 6.84687 4.55 5.5428 4.55 4.05012C4.55 1.81337 6.36325 0.00012207 8.6 0.00012207C10.8368 0.00012207 12.65 1.81337 12.65 4.05012ZM11.9122 8.10012H12.1349C12.3249 8.1924 12.5107 8.29187 12.692 8.3982C12.7091 8.44148 12.72 8.48791 12.7236 8.53637L12.7249 8.57155V9.5144H12.4891H12.2534H12.1553H11.875H11.144H11.1269H11.0917H11.0749H10.6035V8.87316V8.69277V8.64951V8.61427V8.57155C10.6035 8.32302 10.7958 8.11941 11.0397 8.10142L11.0749 8.10012H11.2015H11.9122ZM14.6109 9.98587H14.6337C15.9186 11.4194 16.7 13.3135 16.7 15.3901C16.7 15.6635 16.6865 15.9337 16.66 16.2001H14.9644V14.5795V14.4644L14.6109 14.2287V13.993V12.4859V12.0144V11.1555V10.026V9.98587ZM12.1356 14.5795V16.2001H8.6V14.7001L9.48479 11.7507L9.98913 10.0695L10.0142 9.98587H10.3428H10.6035H10.7993H11.0749H11.109H11.1442H11.1788H11.7571H11.9194H12.1109H12.2534H12.4891V10.0258V11.1556V12.0144V12.4859V13.993V14.2287L12.1356 14.4644V14.5795ZM12.8428 11.49V11.493V12.0117V12.4859V13.993H14.2571V12.4859V12.0117V11.493V11.49V9.98587H12.8428V11.49Z"/>
  <path d="M16.0246 8.1001C16.2849 8.1001 16.496 8.31116 16.496 8.57152V9.51438H14.3746V8.57152C14.3746 8.31116 14.5857 8.1001 14.8461 8.1001H16.0246ZM12.4887 9.98585V14.2287L12.1352 14.4644V17.5287C12.1352 17.7772 11.9429 17.9808 11.699 17.9988L11.6638 18.0001H9.07102C8.8225 18.0001 8.6189 17.8078 8.6009 17.5639L8.59961 17.5287V14.7001L10.0138 9.98585H12.4887ZM17.0854 9.98585L18.4996 14.7001V17.5287C18.4996 17.789 18.2886 18.0001 18.0282 18.0001H15.4354C15.1751 18.0001 14.964 17.789 14.964 17.5287V14.4644L14.6105 14.2287V9.98585H17.0854ZM14.2567 13.993V9.98585H12.8425V13.993H14.2567ZM12.7232 8.53634C12.7052 8.29241 12.5016 8.1001 12.2531 8.1001H11.0745L11.0393 8.10139C10.7954 8.11939 10.6031 8.323 10.6031 8.57152V9.51438H12.7245V8.57152L12.7232 8.53634Z"/>
</svg>
