<?xml version="1.0" encoding="UTF-8"?>
<svg width="24" height="24" version="1.1" viewBox="0 0 24 24">
  <path d="m10.42 4.1c0-0.87262 0.70742-1.58 1.58-1.58 0.87262 0 1.58 0.7074 1.58 1.58v10.533c0 0.87262-0.70742 1.58-1.58 1.58-0.73625 0-1.3549-0.50361-1.5303-1.1851-0.01263-0.04917-0.02297-0.09927-0.0309-0.15017-0.0124-0.0798-0.01887-0.16157-0.01887-0.24487v-1.587s3.3e-5 0 3.3e-5 -3.4e-5v-1.4323h-3.3e-5v-2.7043h3.3e-5v-1.5388s-3.3e-5 0-3.3e-5 3.3e-5v-2.6817h3.3e-5zm-1.6482 9.4867v1.0465c0 0.58351 0.28551 1.1227 0.72138 1.5592-0.64058 0.31911-1.302 0.75492-1.9939 1.3082-0.57508 0.45994-1.4142 0.36654-1.8741-0.20857-0.45991-0.57511-0.36654-1.4142 0.20857-1.8741 0.93406-0.74698 1.9106-1.382 2.938-1.8313zm0-1.505c-1.2177 0.45088-2.5367 1.1577-4.0323 2.1549-0.61271 0.40851-1.4406 0.24297-1.8491-0.36971-0.40851-0.61272-0.24298-1.4406 0.36972-1.8491 1.9311-1.2875 3.732-2.2226 5.5116-2.7444zm6.4562 1.4767v1.0748c0 0.57461-0.27687 1.1062-0.70152 1.5391 0.61111 0.30551 1.2602 0.73375 1.9535 1.3114 0.56578 0.47138 1.4066 0.39481 1.8779-0.17097 0.47134-0.56575 0.39481-1.4065-0.17097-1.8779-0.99032-0.82505-1.975-1.45-2.9589-1.8765zm0-1.4768v-2.8084c1.7797 0.52181 3.5807 1.4569 5.5119 2.7446 0.61268 0.40854 0.77822 1.2364 0.36971 1.8491-0.40851 0.61268-1.2364 0.77822-1.8491 0.36971-1.4957-0.99726-2.8148-1.7041-4.0326-2.155zm0-4.2722c2.1357 0.62758 4.3393 1.8372 6.5946 3.6822 0.56998 0.46628 1.41 0.38221 1.8763-0.18774 0.46631-0.56998 0.38224-1.41-0.1877-1.8763-2.7112-2.218-5.4846-3.7012-8.2831-4.3787zm-6.4562-2.8663c-2.908 0.62318-5.6997 2.1577-8.3307 4.5254-0.54738 0.49261-0.59179 1.3357-0.099186 1.883 0.4926 0.54738 1.3357 0.59182 1.883 0.0992 2.1671-1.9502 4.3559-3.1851 6.5469-3.7657zm5.3348 14.43c0 1.1635-0.94319 2.1067-2.1067 2.1067-1.1635 0-2.1067-0.94319-2.1067-2.1067 0-1.1635 0.94319-2.1067 2.1067-2.1067 1.1635 0 2.1067 0.94322 2.1067 2.1067z" clip-rule="evenodd"/>
</svg>
