<?xml version="1.0" encoding="UTF-8" standalone="no"?>
<svg width="24" height="24" viewBox="0 0 24 24" version="1.1">
  <path d="M 12,0 A 12,12 0 0 0 0,12 12,12 0 0 0 12,24 12,12 0 0 0 24,12 12,12 0 0 0 12,0 Z M 8.4324324,7.1351351 h 1.9459456 c 0.358249,0 0.648649,0.2904004 0.648649,0.6486487 v 8.4324322 c 0,0.358249 -0.2904,0.648649 -0.648649,0.648649 H 8.4324324 c -0.3582483,0 -0.6486486,-0.2904 -0.6486486,-0.648649 V 7.7837838 c 0,-0.3582483 0.2904003,-0.6486487 0.6486486,-0.6486487 z m 5.1891896,0 h 1.945946 c 0.358248,0 0.648648,0.2904004 0.648648,0.6486487 v 8.4324322 c 0,0.358249 -0.2904,0.648649 -0.648648,0.648649 h -1.945946 c -0.358249,0 -0.648649,-0.2904 -0.648649,-0.648649 V 7.7837838 c 0,-0.3582483 0.2904,-0.6486487 0.648649,-0.6486487 z"/>
</svg>
