<?xml version="1.0" encoding="UTF-8"?>
<svg width="24" height="24" version="1.1" viewBox="0 0 24 24">
  <path d="m5.7143 3.4286h3.4286c0.6312 0 1.1429 0.51166 1.1429 1.1429v14.857c0 0.6312-0.51166 1.1429-1.1429 1.1429h-3.4286c-0.6312 0-1.1429-0.51166-1.1429-1.1429v-14.857c0-0.6312 0.51166-1.1429 1.1429-1.1429zm9.1429 0h3.4286c0.6312 0 1.1429 0.51166 1.1429 1.1429v14.857c0 0.6312-0.51166 1.1429-1.1429 1.1429h-3.4286c-0.6312 0-1.1429-0.51166-1.1429-1.1429v-14.857c0-0.6312 0.51166-1.1429 1.1429-1.1429z" stroke-width="1.7619"/>
</svg>
