<?xml version="1.0" encoding="UTF-8" standalone="no"?>
<svg width="24" height="24" viewBox="0 0 24 24" version="1.1">
  <path d="M 18.901211,0 C 18.616665,-1.3090897e-7 18.332195,0.10863382 18.11511,0.3257329 l -1.92617,1.9261672 c -0.434172,0.4341934 -0.434172,1.1379996 0,1.5722042 l 3.986973,3.9869707 c 0.434172,0.4342043 1.138035,0.4342043 1.572206,0 l 1.92617,-1.9261673 c 0.434282,-0.4342046 0.434282,-1.1379997 0,-1.572204 L 19.687314,0.3257329 C 19.470228,0.1086335 19.185758,1.0909103e-7 18.901211,0 Z m -4.449515,4.4495114 c -0.284533,0 -0.569017,0.1086306 -0.786103,0.3257329 L 0.32573315,18.115093 C 0.11722409,18.323562 0,18.606336 0,18.901194 v 3.986972 C 0,23.502231 0.49778401,24 1.1118359,24 H 5.0988102 C 5.3936799,24 5.6763994,23.882736 5.884913,23.674267 L 19.224773,10.33442 c 0.434172,-0.434205 0.434172,-1.1380006 0,-1.572205 L 15.237798,4.7752443 C 15.020657,4.5581421 14.736228,4.4495114 14.451696,4.4495114 Z"/>
</svg>
