<?xml version="1.0" encoding="UTF-8" standalone="no"?>
<svg width="24" height="24" viewBox="0 0 24 24" version="1.1">
  <path d="M 17.658686,0.71491543 C 18.118629,0.25706057 18.741086,0 19.389943,0 20.0388,0 20.661257,0.25705886 21.121029,0.71491543 L 23.281886,2.8697314 C 23.509543,3.0967543 23.690057,3.36648 23.813314,3.6634286 23.936571,3.9603771 24,4.2787029 24,4.6002 24,4.9216971 23.93657,5.24004 23.813314,5.5369886 23.690057,5.8338857 23.509543,6.10356 23.281886,6.3305657 c 1.71e-4,-3.43e-5 0,3.43e-5 0,0 l -2.466857,2.4608914 c -0.360172,0.3594343 -0.943372,0.3594343 -1.303715,1.72e-5 L 15.191931,4.4828229 C 15.018326,4.3096629 14.920749,4.0745314 14.920749,3.82932 c 0,-0.2452114 0.09756,-0.4803429 0.271148,-0.65352 z m 1.302685,1.30819887 c 1.72e-4,-8.57e-5 0,1.028e-4 0,0 L 17.150914,3.8292857 20.163086,6.83412 21.978171,5.02356 c 0.05554,-0.055526 0.09994,-0.1215943 0.129943,-0.1942114 0.03017,-0.072634 0.04577,-0.1504972 0.04577,-0.2291486 0,-0.078634 -0.0156,-0.1564971 -0.04577,-0.2291314 -0.03,-0.072634 -0.07423,-0.1386 -0.129943,-0.1941257 L 19.818343,2.0231143 c -0.113829,-0.1133314 -0.267772,-0.1769657 -0.4284,-0.1769657 -0.160457,0 -0.314743,0.063823 -0.428572,0.1769657 z M 13.73124,5.0168571 c 0.245554,8.915e-4 0.480634,0.0996 0.653229,0.2742686 l 4.288217,4.3397829 c 0.357085,0.3614057 0.355028,0.9434404 -0.0046,1.3022914 L 5.8404857,23.730343 C 5.6674457,23.902971 5.4329829,24 5.1885429,24 H 0.92307771 C 0.41327486,24 0,23.586686 0,23.076857 V 18.710229 C 0,18.464914 0.0975948,18.229714 0.27124457,18.056571 L 13.076023,5.2863257 c 0.17388,-0.1734 0.409663,-0.2703771 0.655217,-0.2694686 z M 1.8461486,19.0932 v 3.060686 H 4.8068229 L 16.713771,10.275051 13.723063,7.2483771 Z"/>
</svg>
