<?xml version="1.0" encoding="UTF-8" standalone="no"?>
<svg width="24" height="24" viewBox="0 0 24 24" version="1.1">
  <path d="M 14.36352,3.636336 H 5.96016 C 6.480276,1.547652 8.368464,0 10.61814,0 H 19.2 C 21.85092,0 24,2.149032 24,4.8 v 8.5818 c 0,2.24976 -1.54776,4.13796 -3.63648,4.65804 V 9.636336 c 0,-3.313716 -2.6862,-6 -6,-6 z M 4.8,5.818128 c -2.650968,0 -4.8,2.149032 -4.8,4.8 V 19.2 C 0,21.85092 2.149032,24 4.8,24 h 8.5818 c 2.65104,0 4.8,-2.14908 4.8,-4.8 v -8.581872 c 0,-2.650968 -2.14896,-4.8 -4.8,-4.8 z"/>
</svg>
