<?xml version="1.0" encoding="UTF-8" standalone="no"?>
<svg width="24" height="24" viewBox="0 0 24 24" version="1.1">
  <path d="M 7.93839,0 C 5.77008,0 3.955515,1.50675 3.481275,3.529515 L 3.46641,3.592905 C 1.4762655,4.08192 0,5.878125 0,8.01912 v 11.42313 c 0,2.51715 2.040555,4.5576 4.55769,4.5576 H 15.9807 c 2.1411,0 3.9372,-1.47615 4.4262,-3.46635 l 0.06345,-0.01485 C 22.49325,20.04435 24,18.2298 24,16.06155 V 4.57788 C 24,2.049585 21.9504,0 19.422,0 Z M 6.13455,3.46143 C 6.50892,2.85795 7.177485,2.45697 7.93839,2.45697 H 19.422 c 1.17135,0 2.121,0.949575 2.121,2.12091 v 11.48367 c 0,0.76095 -0.4011,1.4295 -1.00455,1.8039 V 8.01912 c 0,-2.51715 -2.0406,-4.55769 -4.55775,-4.55769 z M 2.45193,8.01912 c 0,-1.16298 0.94278,-2.10576 2.105775,-2.10576 H 15.98085 c 1.16295,0 2.1057,0.94278 2.1057,2.10576 v 11.42313 c 0,1.16295 -0.94275,2.1057 -2.1057,2.1057 H 4.557705 c -1.162995,0 -2.105775,-0.94275 -2.105775,-2.1057 z"/>
</svg>
