<?xml version="1.0" encoding="UTF-8" standalone="no"?>
<svg width="24" height="24" viewBox="0 0 24 24" version="1.1">
  <path d="M 12,0 C 11.230756,0 10.666666,0.66486689 10.666666,1.4079861 V 10.666666 H 1.4079861 C 0.66486689,10.666666 0,11.230756 0,12 c 0,0.769244 0.66486689,1.333334 1.4079861,1.333334 h 9.2586799 v 9.25868 C 10.666666,23.335125 11.230756,24 12,24 c 0.769244,0 1.333334,-0.664875 1.333334,-1.407986 v -9.25868 h 9.25868 C 23.335125,13.333334 24,12.769244 24,12 24,11.230756 23.335125,10.666666 22.592014,10.666666 h -9.25868 V 1.4079861 C 13.333334,0.66486689 12.769244,0 12,0 Z"/>
</svg>
