<?xml version="1.0" encoding="UTF-8" standalone="no"?>
<svg width="24" height="24" viewBox="0 0 24 24" version="1.1">
  <path d="m 11.999998,0 c 0.837143,0 1.522082,0.651545 1.575561,1.475159 l 0.0034,0.103789 -6.52e-4,8.842113 h 8.842772 c 0.872015,5.4e-5 1.578922,0.70696 1.578922,1.57892 0,0.837251 -0.651506,1.52215 -1.475127,1.575636 l -0.103849,0.0033 -8.842718,5.5e-5 6.02e-4,8.842051 c 1.7e-5,0.872052 -0.706902,1.57897 -1.578949,1.578948 -0.837148,5e-6 -1.522095,-0.651454 -1.57556,-1.475094 l -0.0033,-0.103826 -6.46e-4,-8.842118 -8.8414803,1.1e-5 C 0.7069132,13.578937 -4.3999712e-6,12.87202 0,11.99999 -4.9999712e-6,11.162843 0.6514938,10.47786 1.4751274,10.424399 l 0.1038217,-0.0033 8.8414689,10e-6 6.46e-4,-8.842117 C 10.421082,0.706941 11.127989,3.4e-5 12.000041,1.6e-5 Z"/>
</svg>
