<?xml version="1.0" encoding="UTF-8" standalone="no"?>
<svg width="24" height="24" viewBox="0 0 24 24" version="1.1">
  <path d="m 12.001717,0.0283205 c -2.8683434,0 -5.4792697,0.20411415 -7.4242022,0.54732852 C 3.6105682,0.7462814 2.7781985,0.95366723 2.1229289,1.227071 1.7989612,1.3622187 1.4710977,1.5290826 1.1827316,1.7777589 0.89694765,2.0242157 0.52795185,2.4786101 0.52795185,3.1175386 v 2.9952009 c 0,0.6389302 0.3689683,1.0899653 0.65477965,1.3364238 0.1214576,0.104752 0.2505743,0.1925387 0.3827942,0.2719854 l 3.596255,13.7839653 c -0.00591,-0.05262 -0.010075,-0.105973 -0.010075,-0.161177 l 0.026863,0.21826 -0.016797,-0.05708 c 0.062198,0.552999 0.4358304,0.964674 0.8226733,1.239046 0.4236549,0.300481 0.9349108,0.515201 1.5345362,0.695074 C 8.7182307,23.798984 10.277934,24 12.001708,24 c 1.723773,0 3.283476,-0.201016 4.482727,-0.560761 0.599624,-0.179873 1.11088,-0.394593 1.534537,-0.695074 0.391421,-0.277621 0.767268,-0.696246 0.822672,-1.259194 l -0.02015,0.07723 0.03022,-0.21826 c 0,0.04833 -0.0055,0.09468 -0.01014,0.141027 L 22.43783,7.7211487 c 0.132225,-0.079445 0.261316,-0.1671595 0.382794,-0.2719854 0.285784,-0.2464086 0.651424,-0.6973922 0.651424,-1.3364238 V 3.1175386 c 0,-0.6390282 -0.365668,-1.0933745 -0.651424,-1.3397797 C 22.532206,1.528909 22.204281,1.3622016 21.880428,1.227071 21.225135,0.95369817 20.392853,0.7462814 19.425841,0.57564902 17.480848,0.23243637 14.869979,0.02831878 12.00164,0.0283205 Z m 0,1.2894135 c 2.806957,0 5.364351,0.2034007 7.199226,0.527181 0.912434,0.1610047 1.678801,0.360661 2.1826,0.5708337 0.250019,0.1043221 0.46499,0.2275419 0.594339,0.3391432 0.123767,0.1067119 0.20483,0.2212943 0.20483,0.3626467 v 2.9952009 c 0,0.1413541 -0.0811,0.2526047 -0.20483,0.3592891 -0.129319,0.1115944 -0.344277,0.2347884 -0.594339,0.3391432 -0.503813,0.2101624 -1.270166,0.4098306 -2.1826,0.5708337 -1.834868,0.3237941 -4.392269,0.5271827 -7.199226,0.5271827 -2.8069603,0 -5.3678128,-0.2033904 -7.2025829,-0.5271827 C 3.8867228,7.2210007 3.1235567,7.021305 2.6198895,6.8111718 2.3698396,6.7068325 2.1551419,6.5837932 2.0255507,6.4720286 1.9018873,6.3654027 1.8173654,6.2541951 1.8173654,6.1127395 V 3.1175386 c 0,-0.1414573 0.0845,-0.2559778 0.2081853,-0.3626467 C 2.1551625,2.6431084 2.3698825,2.5200484 2.6198895,2.4157487 3.1235447,2.2056052 3.88674,2.0059197 4.799134,1.844915 6.6339282,1.5211364 9.1947584,1.317734 12.001717,1.317734 Z m -0.05037,0.8696819 c -2.7422197,0 -5.3099388,0.1888578 -7.1958677,0.5171081 C 3.8546644,2.8613167 3.1409792,3.0447177 2.6702573,3.238422 2.5471785,3.28907 2.444414,3.336469 2.3646938,3.3828019 c 0.07972,0.046316 0.1824847,0.097101 0.3055635,0.1477496 0.4707219,0.1937043 1.1844071,0.3771053 2.085224,0.533898 1.8859289,0.3282503 4.453648,0.5171081 7.1958677,0.5171081 2.742201,0 5.30653,-0.1888578 7.192511,-0.5171081 0.900868,-0.1567927 1.6145,-0.3401937 2.085222,-0.533898 0.123096,-0.050648 0.225964,-0.1014339 0.305565,-0.1477496 C 21.455047,3.336469 21.352176,3.2890701 21.229082,3.238422 20.75836,3.0447177 20.044728,2.8613167 19.14386,2.704524 17.257879,2.3762737 14.69355,2.1874159 11.951349,2.1874159 Z M 3.5265087,8.4330116 c 0.3311918,0.078671 0.6771071,0.1522883 1.051006,0.2182599 1.9449221,0.3432315 4.5558607,0.5473302 7.4242023,0.5473302 2.86834,0 5.479203,-0.2041021 7.424201,-0.5473302 0.372727,-0.06576 0.717375,-0.1398928 1.047649,-0.2182599 L 17.132508,21.233127 v 0.02015 c 0.01128,-0.0083 0,0.01375 0,0.09065 v -0.09065 c -0.0091,0.0067 -0.02923,0.02945 -0.110809,0.0873 -0.18257,0.129491 -0.5465,0.304657 -1.03086,0.449952 -0.968718,0.290591 -2.404698,0.490245 -3.989122,0.490245 -1.584426,0 -3.0204029,-0.199654 -3.9891239,-0.490245 -0.484357,-0.145291 -0.8516456,-0.320462 -1.0342162,-0.449952 -0.081419,-0.05775 -0.099013,-0.08055 -0.1074511,-0.0873 v 0.09065 c 0,-0.077 -0.010487,-0.09906 0,-0.09065 v -0.02015 z"/>
</svg>
