<?xml version="1.0" encoding="UTF-8"?>
<svg width="24" height="24" version="1.1" viewBox="0 0 24 24">
  <path class="b" d="m19.014 17.605c1.4-0.96 2.79-2.19 4.21-3.67 1.06-1.11 1.03-3.07-0.05-4.14-3.75-3.72-7.38-5.79-11.17-5.79-1.78 0-3.52 0.45-5.26 1.32l-4.43-4.43c-0.39-0.39-1.03-0.39-1.42 0-0.39 0.39-0.39 1.02 0 1.41l4.05 4.05c-1.37 0.9-2.73 2.05-4.12 3.42-1.09 1.08-1.1 3.07-0.03 4.17 3.74 3.82 7.38 6.02 11.19 6.05 1.78 0.01 3.52-0.45 5.25-1.34l4.45 4.45c0.39 0.39 1.02 0.39 1.41 0s0.39-1.02 0-1.41l-4.09-4.09zm-17.2-5.05c-0.35-0.36-0.35-1.01 0-1.36 1.52-1.5 2.98-2.69 4.4-3.56l1.75 1.75c-0.49 0.75-0.77 1.64-0.77 2.61 0 2.69 2.19 4.8 4.8 4.8 0.96 0 1.86-0.28 2.61-0.77l1.29 1.29c-4.65 2.03-9.06 0.37-14.09-4.77zm11.57 2.24c-0.42 0.2-0.88 0.32-1.38 0.32-1.73 0-3.13-1.39-3.13-3.11 0-0.5 0.12-0.97 0.33-1.39zm-2.76-5.58c0.42-0.2 0.88-0.32 1.38-0.32 1.73 0 3.13 1.39 3.13 3.11 0 0.5-0.12 0.97-0.33 1.39zm5.41 5.4c0.49-0.75 0.77-1.64 0.77-2.61 0-2.69-2.19-4.8-4.8-4.8-0.96 0-1.86 0.28-2.61 0.77l-1.3-1.3c4.65-1.97 9.06-0.46 14.09 4.53 0.35 0.35 0.36 0.99 0.02 1.35-1.53 1.61-3.01 2.87-4.45 3.78z"/>
</svg>
