<?xml version="1.0"?>
<svg width="24" height="24" viewBox="0 0 14 14">
  <path d="M7.53125 2.9375C7.79002 2.93765 8 3.14748 8 3.40625L7.99023 3.50098C7.94645 3.71438 7.75755 3.87487 7.53125 3.875H6.46875L6.37402 3.86523C6.16049 3.82146 6 3.63271 6 3.40625C6.00008 3.14742 6.20992 2.9375 6.46875 2.9375H7.53125Z"/>
  <path fill-rule="evenodd" clip-rule="evenodd" d="M8.33301 1C9.08483 1 9.78878 1.50475 9.96094 2.27246L9.98828 2.42871L9.99219 2.45996L9.99316 2.49023L9.99805 2.56348L10 2.59473V2.875H11.2861C12.7583 2.87522 14 4.04301 14 5.54199V10.333C14 11.832 12.7583 12.9998 11.2861 13H2.71387C1.24173 12.9998 0 11.832 0 10.333V5.54199C0 4.04301 1.24173 2.87522 2.71387 2.875H4V2.625C4 1.73805 4.69938 1.0949 5.48047 1.00977L5.50781 1.00684L5.53516 1.00586L5.6123 1.00098L5.63965 1H8.33301ZM1.5 9.5C1.22386 9.5 1 9.72386 1 10V10.333C1 11.2533 1.76729 11.9998 2.71387 12H11.2861L11.4609 11.9912C12.3254 11.9059 13 11.196 13 10.333V10C13 9.72386 12.7761 9.5 12.5 9.5H1.5ZM5.58887 2.00391C5.25732 2.04002 5 2.30448 5 2.625V3.375C4.99989 3.61651 4.82831 3.8186 4.60059 3.86523L4.5 3.875H2.71387C1.76729 3.87522 1 4.62165 1 5.54199V8.62305C1.00002 8.89918 1.22387 9.12305 1.5 9.12305H5.25C5.48012 9.12304 5.66699 8.93617 5.66699 8.70605C5.66714 8.27459 6.00422 7.91945 6.43652 7.87695L6.52344 7.87305H7.47656C7.94968 7.87324 8.33285 8.24607 8.33301 8.70605C8.33301 8.93617 8.51988 9.12305 8.75 9.12305H12.5C12.7761 9.12305 13 8.89918 13 8.62305V5.54199C13 4.67904 12.3254 3.96912 11.4609 3.88379L11.2861 3.875H9.5L9.39941 3.86523C9.20385 3.82539 9.04969 3.67112 9.00977 3.47559L9 3.375V2.625L8.99512 2.55176C8.95642 2.24111 8.67475 2 8.33301 2H5.66699L5.58887 2.00391Z"/>
</svg>
