<?xml version="1.0" encoding="UTF-8" standalone="no"?>
<svg width="24" height="24" viewBox="0 0 24 24" version="1.1">
  <path d="M 12.036054,-1.5261334e-5 C 9.890664,-0.01182374 7.7700925,0.54758015 5.8972318,1.6315953 4.4725101,2.456216 3.2399629,3.5555111 2.2644193,4.856956 V 2.4735425 c 0,-0.6252271 -0.5069937,-1.1322116 -1.1322116,-1.1322116 -0.62521966,0 -1.1322115239768,0.5069845 -1.1322115239768,1.1322116 v 5.4429087 c 0,0.6252363 0.5069918639768,1.1322116 1.1322115239768,1.1322116 H 1.784852 c 0.017224,3.969e-4 0.035124,3.969e-4 0.052284,0 h 4.728966 c 0.6252179,0 1.1322116,-0.5069753 1.1322116,-1.1322116 0,-0.625227 -0.5069937,-1.1322115 -1.1322116,-1.1322115 H 3.6796837 C 4.5243813,5.4752717 5.6700876,4.3773734 7.0312463,3.5895281 8.9059952,2.5044246 11.084384,2.0679964 13.231366,2.3455376 c 2.146983,0.2775505 4.144017,1.2552495 5.682693,2.781851 1.538768,1.5266385 2.534086,3.5167609 2.832332,5.6664664 0.08585,0.619292 0.65715,1.052284 1.276442,0.966346 0.619292,-0.08585 1.052284,-0.657151 0.966346,-1.276442 C 23.622903,7.8432261 22.40081,5.3955983 20.509612,3.5192156 18.618321,1.6427866 16.162183,0.44049691 13.521631,0.0991434 13.026545,0.03513944 12.531144,0.00270977 12.036054,-1.5261334e-5 Z M 11.999996,5.6610425 c -0.500214,0 -0.905048,0.4048609 -0.905048,0.905048 v 7.2457935 c 0,0.500122 0.404834,0.905048 0.905048,0.905048 0.500215,0 0.905049,-0.404926 0.905049,-0.905048 V 6.5660905 c 0,-0.5001871 -0.404834,-0.905048 -0.905049,-0.905048 z M 1.206126,12.230754 c -0.075068,-0.0048 -0.1515549,-0.0017 -0.2289663,0.009 -0.61929267,0.08585 -1.05224915,0.657058 -0.96634622,1.276442 0.36627481,2.640551 1.58833222,5.088114 3.47956732,6.964543 1.8912721,1.876429 4.3474297,3.078718 6.9879802,3.420072 2.64046,0.341354 5.319295,-0.198238 7.6244,-1.532451 1.424676,-0.824584 2.657306,-1.923916 3.632812,-3.225361 v 2.383413 c 0,0.6252 0.507012,1.132212 1.132212,1.132212 0.625292,0 1.132211,-0.507012 1.132211,-1.132212 v -5.442909 c 0,-0.625291 -0.506919,-1.132211 -1.132211,-1.132211 H 22.21514 c -0.01717,-3.69e-4 -0.03521,-3.69e-4 -0.05228,0 h -4.728966 c -0.6252,0 -1.132212,0.50692 -1.132212,1.132211 0,0.6252 0.507012,1.132212 1.132212,1.132212 h 2.886418 c -0.844707,1.308922 -1.990395,2.406866 -3.351563,3.194712 -1.874767,1.085168 -4.053138,1.521559 -6.20012,1.24399 C 8.6216806,21.376863 6.6246092,20.399164 5.0859337,18.872581 3.5472122,17.345998 2.5517832,15.355774 2.2536019,13.206115 2.1784382,12.664235 1.7315988,12.264407 1.206126,12.230754 Z m 10.746996,4.298077 c -0.47855,0.02425 -0.858174,0.420465 -0.858174,0.905048 0,0.500215 0.404834,0.905049 0.905048,0.905049 0.500215,0 0.905049,-0.404834 0.905049,-0.905049 0,-0.500215 -0.404834,-0.905048 -0.905049,-0.905048 -0.01563,0 -0.03144,-7.83e-4 -0.04687,0 z"/>
</svg>
