<?xml version="1.0" encoding="UTF-8" standalone="no"?>
<svg width="24" height="24" viewBox="0 0 24 24" version="1.1">
  <path d="M 12,24 C 8.649996,24 5.8125,22.83744 3.4875,20.51244 1.1625,18.18744 0,15.35004 0,12 0,8.649996 1.1625,5.8125 3.4875,3.4875 5.8125,1.1625 8.649996,0 12,0 13.725,0 15.375,0.3564996 16.95,1.0695 18.525,1.781496 19.875,2.799996 21,4.125 V 1.5 C 21,1.0749996 21.144,0.7185 21.432,0.4305 21.71904,0.1435008 22.07496,0 22.5,0 22.92504,0 23.28096,0.1435008 23.568,0.4305 23.856,0.7185 24,1.0749996 24,1.5 V 9 C 24,9.425004 23.856,9.780996 23.568,10.068 23.28096,10.356 22.92504,10.5 22.5,10.5 H 15 c -0.42504,0 -0.78096,-0.144 -1.068,-0.432 C 13.644,9.780996 13.5,9.425004 13.5,9 13.5,8.574996 13.644,8.2185 13.932,7.9305 14.21904,7.643496 14.57496,7.5 15,7.5 h 4.8 C 18.99996,6.099996 17.90652,5.000004 16.51944,4.2 15.13152,3.399996 13.62504,3 12,3 9.500004,3 7.374996,3.875004 5.625,5.625 3.875004,7.374996 3,9.500004 3,12 3,14.49996 3.875004,16.62504 5.625,18.375 7.374996,20.12496 9.500004,21 12,21 c 1.725,0 3.31896,-0.45648 4.782,-1.36956 1.46196,-0.912 2.55552,-2.13048 3.28056,-3.65544 C 20.18748,15.69996 20.394,15.46896 20.682,15.282 20.96904,15.09396 21.26256,15 21.56256,15 c 0.57492,0 1.00644,0.20004 1.29444,0.6 0.28704,0.39996 0.318,0.84996 0.093,1.35 -0.95004,2.12496 -2.41248,3.831 -4.38744,5.118 C 16.58748,23.35596 14.4,24 12,24 Z"/>
</svg>
