<?xml version="1.0" encoding="UTF-8" standalone="no"?>
<svg width="24" height="24" viewBox="0 0 24 24" version="1.1">
  <path d="M 5.8974026,1.6307794 C 8.2024651,0.29660732 10.881697,-0.24135104 13.52216,0.10000327 c 2.640555,0.34135339 5.095479,1.54300683 6.986772,3.41943513 1.891201,1.8763821 3.113909,4.3234004 3.480186,6.9639326 0.08594,0.619291 -0.346523,1.191044 -0.965723,1.27689 C 22.404102,11.8462 21.832348,11.413831 21.746502,10.79454 21.448256,8.6448347 20.452994,6.6533727 18.914224,5.1267347 17.375546,3.6001337 15.37893,2.6230119 13.231944,2.3454615 11.084959,2.0679203 8.9063301,2.5052551 7.0315785,3.5903583 5.6704179,4.3782034 4.5241589,5.4758512 3.6794601,6.7848187 h 2.8866474 c 0.6252187,0 1.132062,0.5068424 1.132062,1.1320692 0,0.6252361 -0.5068433,1.1320785 -1.132062,1.1320785 H 1.8367762 c -0.01716,3.97e-4 -0.034357,3.97e-4 -0.051582,0 H 1.1322005 C 0.50697991,9.0489664 1.3842646e-4,8.542124 1.3842646e-4,7.9168879 V 2.4727721 c 0,-0.6252268 0.50684148354,-1.1320785 1.13206207354,-1.1320785 0.6252187,0 1.132062,0.5068517 1.132062,1.1320785 V 4.8573259 C 3.2398076,3.5558814 4.4726789,2.4553998 5.8974026,1.6307794 Z M 0.97666197,12.239707 c 0.61929253,-0.08594 1.19096363,0.34643 1.27686513,0.965722 0.2981817,2.149658 1.2935083,4.141194 2.8322228,5.667777 1.5386869,1.526582 3.5353677,2.50375 5.6823161,2.781319 2.146986,0.277569 4.325633,-0.159784 6.200403,-1.244952 1.36117,-0.787845 2.507355,-1.885475 3.352063,-3.194396 h -2.886647 c -0.625201,0 -1.132062,-0.506861 -1.132062,-1.13206 0,-0.625291 0.506861,-1.132152 1.132062,-1.132152 h 4.729386 c 0.01708,-3.69e-4 0.03434,-3.69e-4 0.05151,0 h 0.652985 c 0.625292,0 1.132062,0.506861 1.132062,1.132152 v 5.444116 c 0,0.625199 -0.50677,1.13206 -1.132062,1.13206 -0.6252,0 -1.132062,-0.506861 -1.132062,-1.13206 v -2.384582 c -0.975508,1.301445 -2.20837,2.401936 -3.633048,3.226519 -2.305109,1.334214 -4.984341,1.872182 -7.624803,1.530829 C 7.8372958,23.558646 5.3823808,22.356986 3.4911061,20.480557 1.5998684,18.604129 0.37715001,16.157148 0.01087468,13.516597 -0.07502837,12.897214 0.35736846,12.325553 0.97666197,12.239707 Z"/>
</svg>
