<?xml version="1.0" encoding="UTF-8"?>
<svg width="24" height="24" version="1.1" viewBox="0 0 24 24">
  <path d="m11.964-1.5268e-5c2.1454-0.011808 4.266 0.54758 6.1388 1.6316 1.4247 0.82459 2.6573 1.9238 3.6328 3.2252v-2.3833c0-0.6252 0.50699-1.1322 1.1322-1.1322 0.62522 0 1.1322 0.50697 1.1322 1.1322v5.4427c0 0.62521-0.50699 1.1322-1.1322 1.1322h-0.65264c-0.01722 3.969e-4 -0.03512 3.969e-4 -0.05228 0h-4.729c-0.62522 0-1.1322-0.50696-1.1322-1.1322 0-0.6252 0.50699-1.1322 1.1322-1.1322h2.8864c-0.8447-1.3089-1.9904-2.4068-3.3516-3.1946-1.8747-1.0851-4.0531-1.5215-6.2001-1.2439-2.147 0.27754-4.144 1.2552-5.6827 2.7818-1.5388 1.5266-2.5341 3.5166-2.8323 5.6663-0.08585 0.61927-0.65715 1.0522-1.2764 0.96631-0.61929-0.08585-1.0523-0.65713-0.96635-1.2764 0.36628-2.6404 1.5884-5.088 3.4796-6.9643 1.8913-1.8764 4.3474-3.0786 6.988-3.42 0.49509-0.064002 0.99049-0.09643 1.4856-0.099155zm0.036058 5.6609c0.50021 0 0.90505 0.40485 0.90505 0.90502v7.2455c0 0.5001-0.40483 0.90502-0.90505 0.90502-0.50022 0-0.90505-0.40491-0.90505-0.90502v-7.2455c0-0.50017 0.40483-0.90502 0.90505-0.90502zm10.794 6.5695c0.07507-0.0048 0.15156-0.0017 0.22897 9e-3 0.61929 0.08585 1.0522 0.65704 0.96635 1.2764-0.36627 2.6405-1.5883 5.0879-3.4796 6.9643-1.8913 1.8764-4.3474 3.0786-6.988 3.42-2.6405 0.34134-5.3193-0.19823-7.6244-1.5324-1.4247-0.82456-2.6573-1.9238-3.6328-3.2252v2.3833c0 0.62518-0.50701 1.1322-1.1322 1.1322-0.62529 0-1.1322-0.50699-1.1322-1.1322v-5.4427c0-0.62527 0.50692-1.1322 1.1322-1.1322h0.65264c0.01717-3.69e-4 0.03521-3.69e-4 0.05228 0h4.729c0.6252 0 1.1322 0.5069 1.1322 1.1322 0 0.62518-0.50701 1.1322-1.1322 1.1322h-2.8864c0.84471 1.3089 1.9904 2.4068 3.3516 3.1946 1.8748 1.0851 4.0531 1.5215 6.2001 1.2439 2.1469-0.27754 4.144-1.2552 5.6827-2.7817 1.5387-1.5265 2.5342-3.5167 2.8323-5.6663 0.07516-0.54186 0.522-0.94168 1.0475-0.97533zm-10.747 4.2979c0.47855 0.02425 0.85817 0.42045 0.85817 0.90502 0 0.5002-0.40483 0.90502-0.90505 0.90502-0.50022 0-0.90505-0.40482-0.90505-0.90502 0-0.5002 0.40483-0.90502 0.90505-0.90502 0.01563 0 0.03144-7.83e-4 0.04687 0z" stroke-width=".99998"/>
</svg>
