<?xml version="1.0" encoding="UTF-8"?>
<svg width="24" height="24" version="1.1" viewBox="0 0 24 24">
  <path d="m18.103 1.6308c-2.3051-1.3342-4.9843-1.8721-7.6248-1.5308-2.6406 0.34135-5.0955 1.543-6.9868 3.4194-1.8912 1.8764-3.1139 4.3234-3.4802 6.9639-0.08594 0.61929 0.34652 1.191 0.96572 1.2769 0.61929 0.085939 1.191-0.34643 1.2769-0.96572 0.29825-2.1497 1.2935-4.1412 2.8323-5.6678 1.5387-1.5266 3.5353-2.5037 5.6823-2.7813 2.147-0.27754 4.3256 0.15979 6.2004 1.2449 1.3612 0.78785 2.5074 1.8855 3.3521 3.1945h-2.8866c-0.62522 0-1.1321 0.50684-1.1321 1.1321 0 0.62524 0.50684 1.1321 1.1321 1.1321h4.7293c0.01716 3.97e-4 0.03436 3.97e-4 0.05158 0h0.653c0.62522 0 1.1321-0.50684 1.1321-1.1321v-5.4441c0-0.62523-0.50684-1.1321-1.1321-1.1321-0.62522 0-1.1321 0.50685-1.1321 1.1321v2.3846c-0.97555-1.3014-2.2084-2.4019-3.6331-3.2265zm4.9207 10.609c-0.61929-0.08594-1.191 0.34643-1.2769 0.96572-0.29818 2.1497-1.2935 4.1412-2.8322 5.6678-1.5387 1.5266-3.5354 2.5038-5.6823 2.7813-2.147 0.27757-4.3256-0.15978-6.2004-1.245-1.3612-0.78784-2.5074-1.8855-3.3521-3.1944h2.8866c0.6252 0 1.1321-0.50686 1.1321-1.1321 0-0.62529-0.50686-1.1322-1.1321-1.1322h-4.7294c-0.01708-3.69e-4 -0.03434-3.69e-4 -0.05151 0h-0.65298c-0.62529 0-1.1321 0.50686-1.1321 1.1322v5.4441c0 0.6252 0.50677 1.1321 1.1321 1.1321 0.6252 0 1.1321-0.50686 1.1321-1.1321v-2.3846c0.97551 1.3014 2.2084 2.4019 3.633 3.2265 2.3051 1.3342 4.9843 1.8722 7.6248 1.5308 2.6406-0.34135 5.0955-1.543 6.9867-3.4194 1.8912-1.8764 3.114-4.3234 3.4802-6.964 0.0859-0.61938-0.34649-1.191-0.96579-1.2769z"/>
</svg>
