<?xml version="1.0"?>
<svg width="24" height="24" viewBox="0 0 24 24">
  <path d="M19.3846 24C18.359 24 17.4872 23.65 16.7692 22.95C16.0513 22.25 15.6923 21.4 15.6923 20.4C15.6923 20.26 15.7026 20.1148 15.7231 19.9644C15.7436 19.814 15.7744 19.6792 15.8154 19.56L7.13848 14.64C6.78976 14.94 6.40002 15.1752 5.96925 15.3456C5.53848 15.516 5.0872 15.6008 4.6154 15.6C3.58976 15.6 2.71797 15.25 2.00002 14.55C1.28207 13.85 0.923096 13 0.923096 12C0.923096 11 1.28207 10.15 2.00002 9.45C2.71797 8.75 3.58976 8.4 4.6154 8.4C5.0872 8.4 5.53848 8.4852 5.96925 8.6556C6.40002 8.826 6.78976 9.0608 7.13848 9.36L15.8154 4.44C15.7744 4.32 15.7436 4.1852 15.7231 4.0356C15.7026 3.886 15.6923 3.7408 15.6923 3.6C15.6923 2.6 16.0513 1.75 16.7692 1.05C17.4872 0.35 18.359 0 19.3846 0C20.4103 0 21.2821 0.35 22 1.05C22.718 1.75 23.0769 2.6 23.0769 3.6C23.0769 4.6 22.718 5.45 22 6.15C21.2821 6.85 20.4103 7.2 19.3846 7.2C18.9128 7.2 18.4616 7.1152 18.0308 6.9456C17.6 6.776 17.2103 6.5408 16.8616 6.24L8.18463 11.16C8.22566 11.28 8.25643 11.4152 8.27694 11.5656C8.29746 11.716 8.30771 11.8608 8.30771 12C8.30771 12.14 8.29746 12.2852 8.27694 12.4356C8.25643 12.586 8.22566 12.7208 8.18463 12.84L16.8616 17.76C17.2103 17.46 17.6 17.2252 18.0308 17.0556C18.4616 16.886 18.9128 16.8008 19.3846 16.8C20.4103 16.8 21.2821 17.15 22 17.85C22.718 18.55 23.0769 19.4 23.0769 20.4C23.0769 21.4 22.718 22.25 22 22.95C21.2821 23.65 20.4103 24 19.3846 24Z"/>
</svg>
