<?xml version="1.0"?>
<svg width="24" height="24" viewBox="0 0 20 20">
  <g clip-path="url(#clip0_24866_98684)">
    <path fill-rule="evenodd" clip-rule="evenodd" d="M0.425895 19.6263C-0.120832 19.1083 -0.144158 18.2453 0.373793 17.6985L7.66714 10L0.373794 2.30147C-0.144157 1.75474 -0.120831 0.891652 0.425896 0.373702C0.972622 -0.14425 1.83571 -0.120923 2.35366 0.425803L10.5355 9.06217C11.0337 9.58811 11.0337 10.4119 10.5355 10.9378L2.35366 19.5742C1.83571 20.1209 0.97262 20.1442 0.425895 19.6263Z"/>
    <path fill-rule="evenodd" clip-rule="evenodd" d="M9.51672 19.6263C8.96999 19.1083 8.94666 18.2453 9.46461 17.6985L16.758 10L9.46461 2.30147C8.94666 1.75474 8.96999 0.891652 9.51672 0.373702C10.0634 -0.14425 10.9265 -0.120923 11.4445 0.425803L19.6263 9.06217C20.1246 9.58811 20.1246 10.4119 19.6263 10.9378L11.4445 19.5742C10.9265 20.1209 10.0634 20.1442 9.51672 19.6263Z"/>
  </g>
</svg>
