<?xml version="1.0" encoding="UTF-8" standalone="no"?>
<svg width="24" height="24" viewBox="0 0 24 24" version="1.1">
  <path d="M 11.252364,6 C 12.35604,6 13.31964,5.396724 13.83528,4.500036 13.83528,4.500036 21.67152,4.5 22.5,4.5 23.32848,4.5 24,3.828432 24,3 24,2.171568 23.32848,1.5 22.5,1.5 21.67152,1.5 13.83492,1.499412 13.83492,1.499412 13.31928,0.6030372 12.3558,0 11.252364,0 10.148916,0 9.185448,0.6030372 8.669796,1.499412 L 1.5,1.5 C 0.6715728,1.5 0,2.171568 0,3 0,3.828432 0.6715728,4.5 1.5,4.5 l 7.169484,3.6e-5 C 9.185064,5.396724 10.148688,6 11.252364,6 Z m 5.963676,9 c 1.10364,0 2.06724,-0.60324 2.58288,-1.5 H 22.5 c 0.82848,0 1.5,-0.67152 1.5,-1.5 0,-0.828432 -0.67152,-1.5 -1.5,-1.5 -0.82848,0 -2.70144,-5.88e-4 -2.70144,-5.88e-4 C 19.28292,9.603036 18.31944,9 17.21604,9 16.11252,9 15.14904,9.603036 14.6334,10.499412 L 1.5,10.5 C 0.6715728,10.5 0,11.171568 0,12 c 0,0.82848 0.6715728,1.5 1.5,1.5 h 13.13316 c 0.51552,0.89676 1.47912,1.5 2.58288,1.5 z m -10.4364,9 c 1.103676,0 2.0673,-0.60324 2.58288,-1.5 H 22.5 c 0.82848,0 1.5,-0.67152 1.5,-1.5 0,-0.82848 -0.67152,-1.5 -1.5,-1.5 L 9.362208,19.4994 C 8.846556,18.603 7.883088,18 6.77964,18 5.67618,18 4.712724,18.603 4.197072,19.4994 L 1.5,19.5 C 0.6715728,19.5 0,20.17152 0,21 c 0,0.82848 0.6715728,1.5 1.5,1.5 H 4.19676 C 4.712328,23.39676 5.675964,24 6.77964,24 Z"/>
</svg>
