<?xml version="1.0"?>
<svg width="24" height="24" viewBox="0 0 24 24">
  <path d="M0.365864 17.3563C-0.122458 17.8461 -0.122458 18.6372 0.365864 19.1269L4.85843 23.6323C5.09323 23.8677 5.41165 23.9999 5.74367 23.9999C6.07568 23.9999 6.3941 23.8677 6.62891 23.6323L11.1215 19.1269C11.3366 18.8882 11.452 18.5757 11.4439 18.2541C11.4358 17.9324 11.3048 17.6262 11.078 17.3987C10.8511 17.1712 10.5458 17.0398 10.225 17.0317C9.90433 17.0236 9.59276 17.1394 9.35474 17.3551L6.99577 19.7108L6.99577 8.82393C6.99577 8.4909 6.86386 8.17151 6.62904 7.93602C6.39422 7.70053 6.07575 7.56824 5.74367 7.56824C5.41159 7.56824 5.09311 7.70053 4.85829 7.93602C4.62348 8.17151 4.49156 8.4909 4.49156 8.82393L4.49156 19.7108L2.13259 17.3551C1.89793 17.1207 1.58016 16.9892 1.24897 16.9894C0.917772 16.9897 0.600187 17.1216 0.365864 17.3563Z"/>
  <path d="M23.6341 6.64365C24.1225 6.15393 24.1225 5.36285 23.6341 4.87313L19.1416 0.367706C18.9068 0.132301 18.5883 5.53853e-05 18.2563 5.53813e-05C17.9243 5.53773e-05 17.6059 0.132301 17.3711 0.367706L12.8785 4.87313C12.6634 5.11182 12.548 5.42428 12.5561 5.74592C12.5642 6.06755 12.6952 6.37378 12.922 6.60128C13.1489 6.82879 13.4542 6.96018 13.775 6.9683C14.0957 6.97642 14.4072 6.86064 14.6453 6.64491L17.0042 4.28923L17.0042 15.1761C17.0042 15.5091 17.1361 15.8285 17.371 16.064C17.6058 16.2995 17.9243 16.4318 18.2563 16.4318C18.5884 16.4318 18.9069 16.2995 19.1417 16.064C19.3765 15.8285 19.5084 15.5091 19.5084 15.1761L19.5084 4.28923L21.8674 6.64491C22.1021 6.8793 22.4198 7.0108 22.751 7.01057C23.0822 7.01033 23.3998 6.87838 23.6341 6.64365Z"/>
</svg>
