<?xml version="1.0" encoding="UTF-8" standalone="no"?>
<svg width="24" height="24" viewBox="0 0 24 24" version="1.1">
  <path d="M 10.741675,5.8089382 6.3784472,9.3914167 c -0.00985,0.01233 -0.019905,0.02448 -0.03015,0.036405 -0.2161049,0.2520299 -0.4747648,0.4514698 -0.7597047,0.5876693 -0.2848948,0.13617 -0.5909097,0.20664 -0.8997596,0.207855 l -0.00438,1.5e-5 -2.167829,-1.5e-5 v 3.553303 h 2.162909 c 0.3139199,0.0011 0.6248848,0.07365 0.9137396,0.2139 0.2888999,0.1404 0.5502448,0.3459 0.7670547,0.60525 l 0.01824,0.0222 4.3631078,3.574198 z M 9.2666959,3.4166043 C 10.774315,1.67737 13.258299,2.9781395 13.258299,5.2848685 V 18.715097 c 0,2.325449 -2.515799,3.615298 -4.0126181,1.843049 L 9.2231059,20.530696 4.586713,16.615398 H 2.332484 C 1.0187171,16.615398 -5.0495245e-8,15.395899 -5.0495245e-8,13.957099 V 10.041621 C -5.0495245e-8,8.603197 1.0194971,7.3845075 2.332484,7.3845075 H 4.594033 L 9.2318209,3.4584993 c 0.01137,-0.01422 0.02301,-0.0282 0.034875,-0.041895 z M 18.601342,2.6984346 c 0.47535,-0.5718148 1.271699,-0.6006297 1.778549,-0.064365 4.808398,5.0867378 4.847098,13.6682784 -0.0057,18.7379764 -0.50985,0.53265 -1.306049,0.49815 -1.778249,-0.0771 -0.4722,-0.5751 -0.4416,-1.473149 0.06825,-2.005799 3.766198,-3.934498 3.753448,-10.607455 -0.0058,-14.5843733 -0.50685,-0.5362647 -0.53235,-1.4345244 -0.057,-2.0063391 z m -3.068249,4.0079982 c 0.55245,-0.4756648 1.34205,-0.3561148 1.763849,0.2670149 0.93375,1.3798644 1.332,3.2705533 1.332,5.0265423 0,1.755959 -0.39825,3.646708 -1.332,5.026558 -0.421799,0.6231 -1.211399,0.742649 -1.763849,0.267 -0.55233,-0.47565 -0.658305,-1.36635 -0.2367,-1.989599 0.49815,-0.73605 0.81585,-1.95264 0.81585,-3.303959 0,-1.351319 -0.3177,-2.5679384 -0.81585,-3.304033 -0.421605,-0.6231298 -0.31563,-1.5138744 0.2367,-1.9895242 z"/>
</svg>
