<?xml version="1.0"?>
<svg width="24" height="24" viewBox="0 0 24 24">
  <path d="M18.0932 4.12297C15.8954 2.49895 13.2495 1.93177 11.5434 2.00593C10.9917 2.02991 10.5249 1.60206 10.5009 1.05029C10.477 0.49853 10.9048 0.0317953 11.4566 0.00781292C13.5838 -0.084649 16.6879 0.597822 19.2818 2.51445C21.9229 4.46599 24 7.67545 24 12.5035C24 13.0558 23.5523 13.5035 23 13.5035C22.4477 13.5035 22 13.0558 22 12.5035C22 8.33424 20.2438 5.71207 18.0932 4.12297ZM0 10.0054C0 7.79626 1.79086 6.0054 4 6.0054H10.97C10.4591 5.99068 10.0344 5.58832 10.0019 5.06815C9.96751 4.51694 10.3864 4.04217 10.9376 4.00773C12.4404 3.91384 14.6802 4.24405 16.5747 5.57451C18.5261 6.94491 20 9.30135 20 13.0033C20 13.5556 19.5523 14.0033 19 14.0033C18.4477 14.0033 18 13.5556 18 13.0033V19.9999C18 22.2091 16.2091 23.9999 14 23.9999H4C1.79086 23.9999 0 22.2091 0 19.9999V10.0054ZM11.8404 6.0054C11.5615 5.98842 11.2995 5.98902 11.0624 6.00384C11.0509 6.00456 11.0395 6.00508 11.0281 6.0054H11.8404Z"/>
</svg>
