<?xml version="1.0" encoding="UTF-8" standalone="no"?>
<svg width="24" height="24" viewBox="0 0 24 24" version="1.1">
  <path d="M 10.883262,4.8817317 6.6881301,8.7146021 c -0.00788,0.00924 -0.015932,0.018332 -0.02413,0.027287 C 6.46918,8.9545805 6.2339555,9.1251141 5.9720073,9.2422927 5.7100129,9.3595265 5.427221,9.4208203 5.1408291,9.4218357 H 5.137119 2.1257712 c -0.00274,0 -0.00426,2.769e-4 -0.00714,0.00157 -0.00377,0.00175 -0.011825,0.00646 -0.021601,0.016985 -0.019846,0.021416 -0.039841,0.059724 -0.039841,0.1145568 v 4.8897565 c 0,0.05585 0.020309,0.09443 0.040081,0.115849 0.00976,0.01052 0.017761,0.01514 0.021463,0.0168 0.00281,0.0013 0.00429,0.0016 0.00703,0.0016 h 3.0056892 c 0.2910906,9.24e-4 0.5784425,0.06397 0.8440185,0.184805 0.2655391,0.120742 0.5030806,0.296408 0.6983994,0.51509 0.0027,0.003 0.00537,0.0061 0.00803,0.0091 0.0022,0.0025 0.00438,0.005 0.00655,0.0076 l 4.1911077,3.819328 c 0.009,0.0093 0.01542,0.01385 0.01819,0.01569 0.0025,-3.69e-4 0.0067,-0.0014 0.01274,-0.004 0.01366,-0.006 0.02788,-0.01726 0.0384,-0.03323 0.0079,-0.01209 0.0228,-0.03997 0.0228,-0.09877 V 5.0062303 c 0,-0.057861 -0.01459,-0.085774 -0.02271,-0.098329 -0.01071,-0.016338 -0.02501,-0.027739 -0.03868,-0.033859 -0.0059,-0.00263 -0.01015,-0.00366 -0.01265,-0.00405 -0.0024,0.00158 -0.0074,0.00507 -0.0144,0.011742 z m 0.852575,-1.932031 c 0.74245,0.3321963 1.293079,1.097022 1.293079,2.0565296 V 18.994573 c 0,0.966302 -0.557552,1.733767 -1.306371,2.062299 -0.756019,0.331762 -1.701089,0.207698 -2.3614756,-0.524321 -0.00609,-0.0068 -0.012092,-0.01366 -0.018092,-0.02059 L 5.1511216,16.691714 c -0.00436,-0.0042 -0.00874,-0.007 -0.012655,-0.0089 -0.00454,-0.002 -0.00883,-0.003 -0.012766,-0.003 H 2.1257704 C 0.89905006,16.679899 -9.3819705e-7,15.623595 -9.3819705e-7,14.444703 V 9.5549468 C -9.3819705e-7,8.3765073 0.899675,7.3209048 2.1257704,7.3209048 h 3.0081631 c 0.00385,-8.3e-5 0.00805,-9.323e-4 0.012489,-0.00292 0.00325,-0.00146 0.00681,-0.00361 0.010422,-0.00669 L 9.3521153,3.4783143 c 0.00914,-0.010662 0.018463,-0.02113 0.02797,-0.031413 C 10.04564,2.7279902 10.986187,2.6142458 11.735837,2.9497007 Z m 7.206277,0.3531691 c 0.395456,-0.4164753 1.046704,-0.4266756 1.454437,-0.022773 4.787939,4.7420413 4.824401,12.7222462 -0.0046,17.4451972 -0.410318,0.401272 -1.061381,0.386872 -1.454345,-0.03212 -0.392872,-0.418994 -0.37884,-1.083996 0.03148,-1.485269 C 22.943755,15.32054 22.927509,8.7134667 18.964387,4.7882862 18.556653,4.3843928 18.546684,3.719345 18.942136,3.3028698 Z m -3.164019,3.8692681 c 0.457027,-0.3445565 1.101075,-0.24548 1.438467,0.2212765 0.902423,1.2484934 1.297879,2.9782916 1.297879,4.6070116 0,1.628625 -0.395456,3.358423 -1.297879,4.606917 -0.337392,0.466812 -0.98144,0.565861 -1.438467,0.221267 -0.457027,-0.344501 -0.554045,-1.00221 -0.216652,-1.469022 0.560137,-0.774943 0.895869,-2.016513 0.895869,-3.359162 0,-1.342743 -0.335732,-2.5843135 -0.895869,-3.3592658 C 15.22405,8.1743944 15.321068,7.5166945 15.778095,7.1721379 Z"/>
</svg>
