<?xml version="1.0" encoding="UTF-8" standalone="no"?>
<svg width="24" height="24" viewBox="0 0 24 24" version="1.1">
  <path d="m 18.214036,2.9996761 c 0.262691,-0.075556 0.262691,-0.4475241 0,-0.5230806 L 16.536545,1.994075 C 16.4496,1.9690931 16.380873,1.9026785 16.352836,1.8167912 L 15.822218,0.18790385 c -0.08171,-0.25053879 -0.436363,-0.25053814 -0.517963,0 L 14.773527,1.8167912 c -0.02804,0.085887 -0.09676,0.1523019 -0.1836,0.1772838 l -1.6776,0.4825205 c -0.262691,0.075556 -0.262691,0.4475242 0,0.5230806 l 1.6776,0.4825206 c 0.08684,0.024982 0.155564,0.091397 0.1836,0.1772838 l 0.530728,1.6288928 c 0.0816,0.2505384 0.436254,0.2505384 0.517963,0 l 0.530618,-1.6288928 c 0.02804,-0.085887 0.09676,-0.152302 0.183709,-0.1772838 z m -6.435491,5.8566394 c 0.127637,0.1356438 0.361528,0.1356438 0.489164,0 0.633818,-0.6740407 2.484982,-2.2285443 5.376873,-1.2381723 0.107563,0.036807 0.18,0.1396802 0.18,0.2532221 V 18.80904 c 0,0.07767 -0.03327,0.151636 -0.09131,0.203236 l -5.529055,4.918915 c -0.1032,0.09175 -0.258982,0.09175 -0.362182,0 L 6.3129818,19.012276 c -0.058047,-0.0516 -0.091254,-0.125564 -0.091254,-0.203236 V 7.8713653 c 0,-0.1135419 0.072414,-0.2164148 0.1799018,-0.2532221 2.8919455,-0.990372 4.7430984,0.5641316 5.3769154,1.2381723 z m 1.172728,8.8743595 c -0.08673,-0.02585 -0.154909,-0.09295 -0.182073,-0.179128 l -0.509345,-1.616402 c -0.08007,-0.253854 -0.439637,-0.253854 -0.5196,0 l -0.509346,1.616402 c -0.02716,0.08618 -0.09535,0.153273 -0.182073,0.179128 l -1.6386324,0.487309 c -0.25956,0.07713 -0.25956,0.444437 0,0.521674 l 1.6386324,0.487309 c 0.08673,0.02575 0.154909,0.09284 0.182073,0.179128 l 0.509346,1.616402 c 0.07996,0.253854 0.439527,0.253854 0.5196,0 L 12.7692,19.406095 c 0.02716,-0.08629 0.09535,-0.153382 0.182073,-0.179128 l 1.638545,-0.487309 c 0.259637,-0.07724 0.259637,-0.444546 0,-0.521674 z M 3.4455055,10.345059 c 0.2626909,-0.07556 0.2626909,-0.4475241 0,-0.5230806 L 2.5539491,9.5655491 C 2.4670909,9.5405563 2.3982982,9.4741417 2.3703164,9.3882543 L 2.0802327,8.4979078 c -0.081622,-0.2505384 -0.43632,-0.2505384 -0.5179418,0 L 1.2722073,9.3882543 c -0.027982,0.085887 -0.096775,0.152302 -0.1836371,0.1772948 L 0.19701818,9.8219784 c -0.26269091,0.075556 -0.2626908,0.4475246 0,0.5230806 l 0.89155202,0.25644 c 0.086863,0.02498 0.1556553,0.0914 0.1836371,0.177284 l 0.2900836,0.890358 c 0.081622,0.250582 0.43632,0.250582 0.5179418,0 l 0.2900837,-0.890358 c 0.027982,-0.08589 0.096774,-0.152302 0.1836327,-0.177284 z m 19.2822765,5.102777 c 0.02804,0.08596 0.09676,0.152291 0.1836,0.177273 l 0.8916,0.256473 c 0.262691,0.0756 0.262691,0.447491 0,0.523091 l -0.8916,0.256473 c -0.08684,0.02498 -0.155564,0.09131 -0.1836,0.177273 l -0.290073,0.890292 c -0.0816,0.250582 -0.436364,0.250582 -0.517964,0 l -0.290072,-0.890292 c -0.02793,-0.08596 -0.09676,-0.152291 -0.1836,-0.177273 l -0.8916,-0.256473 c -0.262691,-0.0756 -0.262691,-0.447491 0,-0.523091 l 0.8916,-0.256473 c 0.08684,-0.02498 0.155672,-0.09131 0.1836,-0.177273 l 0.290072,-0.890292 c 0.0816,-0.250582 0.436364,-0.250582 0.517964,0 z"/>
</svg>
