<?xml version="1.0" encoding="UTF-8" standalone="no"?>
<svg width="24" height="24" viewBox="0 0 24 24" version="1.1">
  <path d="M 22.770802,8.1971173 16.21679,7.2387403 13.287448,1.2814832 c -0.524832,-1.06187164 -2.045567,-1.0753702 -2.574911,0 L 7.7831758,7.2387403 1.2291735,8.1971173 C 0.05385292,8.3681028 -0.41717453,9.8213787 0.43515998,10.653794 l 4.74167502,4.634493 -1.1215001,6.54662 c -0.2018686,1.183391 1.040745,2.069758 2.0814899,1.516319 l 5.8631672,-3.091102 5.863197,3.091102 c 1.040735,0.548927 2.283358,-0.332928 2.08147,-1.516319 l -1.121471,-6.54662 4.741629,-4.634493 C 24.417201,9.8213787 23.946129,8.3681028 22.770802,8.1971173 Z m -6.257948,6.3351697 0.981311,5.747805 c 0.0335,0.196128 -0.172416,0.345503 -0.348384,0.252767 l -5.145789,-2.711422 -5.14575,2.711422 C 6.6782453,20.625599 6.4723062,20.476219 6.505791,20.280092 L 7.4871024,14.532287 3.321329,10.462082 C 3.1791819,10.32317 3.257777,10.081538 3.4544425,10.05293 L 9.2097157,9.2139967 11.784665,3.9822111 c 0.08794,-0.1786942 0.342719,-0.1786942 0.430655,0 l 2.574911,5.2317856 5.755292,0.8389333 c 0.196704,0.02861 0.275328,0.27024 0.133152,0.409152 z"/>
</svg>
