<?xml version="1.0" encoding="UTF-8" standalone="no"?>
<svg width="24" height="24" viewBox="0 0 24 24" version="1.1">
  <path d="m 4.4467346,5.4545455 c -0.6749666,0 -1.2115077,0.5282337 -1.1718751,1.1548296 L 4.1803993,20.919034 C 4.2898283,22.648887 5.8305028,24 7.6938937,24 H 16.30611 c 1.86338,0 3.404076,-1.351113 3.513494,-3.080966 l 0.90554,-14.3096589 c 0.0396,-0.6265959 -0.49693,-1.1548296 -1.171875,-1.1548296 z M 5.6889221,7.6363636 H 18.308951 L 17.477984,20.791193 c -0.03655,0.576654 -0.550711,1.026989 -1.171874,1.026989 H 7.6938937 c -0.6211304,0 -1.135406,-0.450335 -1.1718751,-1.026989 z"/>
  <path d="M 17.197854,1.0909091 C 17.197854,0.48841636 16.680763,0 16.0428,0 H 7.9572216 C 7.3192907,0 6.8021344,0.48841636 6.8021344,1.0909091 c 0,0.6024873 -0.5171455,1.0909091 -1.1550764,1.0909091 H 3.3368944 c -0.6379309,0 -1.1550764,0.4884218 -1.1550764,1.0909091 0,0.6024872 0.5171455,1.0909091 1.1550764,1.0909091 H 20.663127 c 0.637855,0 1.155055,-0.4884219 1.155055,-1.0909091 0,-0.6024873 -0.5172,-1.0909091 -1.155055,-1.0909091 h -2.310218 c -0.637855,0 -1.155055,-0.4884218 -1.155055,-1.0909091 z"/>
</svg>
