<?xml version="1.0" encoding="UTF-8" standalone="no"?>
<svg width="24" height="24" viewBox="0 0 24 24" version="1.1">
  <path d="M 7.9570314,0 C 7.3191012,0 6.8027346,0.48930474 6.8027346,1.0917969 c 0,0.6024867 -0.5183198,1.0898437 -1.15625,1.0898437 H 3.3359377 c -0.6379303,0 -1.1542969,0.4893102 -1.1542969,1.0917969 0,0.6024866 0.5163666,1.0898437 1.1542969,1.0898437 H 20.664062 c 0.637855,0 1.154297,-0.4873571 1.154297,-1.0898437 0,-0.6024867 -0.516442,-1.0917969 -1.154297,-1.0917969 h -2.310546 c -0.637855,0 -1.15625,-0.487357 -1.15625,-1.0898437 C 17.197266,0.48930474 16.680931,0 16.042969,0 Z M 4.4453127,5.4550781 c -0.6749666,0 -1.2095545,0.5277012 -1.1699219,1.1542969 L 4.1796877,20.919922 C 4.2891167,22.649774 5.8299687,24 7.6933596,24 h 8.6132814 c 1.86338,0 3.404253,-1.350226 3.513671,-3.080078 L 20.724609,6.609375 c 0.0396,-0.6265957 -0.494977,-1.1542969 -1.169921,-1.1542969 z"/>
</svg>
