<?xml version="1.0" encoding="UTF-8" standalone="no"?>
<svg width="24" height="24" viewBox="0 0 24 24" version="1.1">
  <path d="m 12.000008,1.262549 c -0.664417,-1.7e-6 -1.328659,0.3397081 -1.724605,1.0214396 L 0.30526524,19.453548 c -0.83337234,1.434898 0.13782195,3.283903 1.72460446,3.283903 H 21.970145 c 1.58674,0 2.557957,-1.849005 1.724604,-3.283903 L 13.724611,2.2839886 C 13.328655,1.6022514 12.664423,1.2625508 12.000008,1.262549 Z m 0,6.3161477 c 0.677341,0 1.206506,0.5839466 1.142334,1.2582951 l -0.680959,7.1648802 c -0.02264,0.237614 -0.222625,0.419432 -0.461375,0.419432 -0.23875,0 -0.438738,-0.181818 -0.461375,-0.419432 l -0.68096,-7.1648802 c -0.06422,-0.6743485 0.464942,-1.2582951 1.142335,-1.2582951 z m 0,10.0096133 a 1.2632295,1.2632295 0 0 1 1.263229,1.26323 1.2632295,1.2632295 0 0 1 -1.263229,1.263229 1.2632295,1.2632295 0 0 1 -1.26323,-1.263229 1.2632295,1.2632295 0 0 1 1.26323,-1.26323 z"/>
</svg>
