<?xml version="1.0"?>
<svg width="24" height="24" viewBox="0 0 38 38">
  <path d="M31.8528 5.159C31.9007 4.94348 32.1051 4.94881 32.153 5.16432C32.5812 7.09105 33.6117 8.63576 34.8962 9.278C35.0343 9.34708 35.0351 9.64367 34.8956 9.70631C33.5707 10.3013 32.5342 11.856 32.1375 13.8433C32.0958 14.0526 31.8981 14.0515 31.852 13.8443C31.4238 11.9175 30.394 10.3718 29.1095 9.72954C28.9659 9.6577 28.9623 9.35109 29.106 9.27925C30.4029 8.63081 31.4205 7.10432 31.8528 5.159Z"/>
  <path d="M35.9019 13.106C35.9338 12.9623 36.0701 12.9659 36.102 13.1095C36.3875 14.394 37.0745 15.4238 37.9308 15.852C38.0229 15.8981 38.0234 16.0958 37.9304 16.1375C37.0471 16.5342 36.3561 17.5707 36.0917 18.8956C36.0639 19.0351 35.932 19.0343 35.9013 18.8962C35.6159 17.6117 34.9294 16.5812 34.073 16.153C33.9772 16.1051 33.9749 15.9007 34.0707 15.8528C34.9353 15.4205 35.6137 14.4029 35.9019 13.106Z"/>
  <path d="M5.85283 24.159C5.90073 23.9435 6.10514 23.9488 6.15303 24.1643C6.58119 26.091 7.6117 27.6358 8.89618 28.278C9.03434 28.3471 9.03508 28.6437 8.89556 28.7063C7.57067 29.3013 6.53417 30.856 6.13754 32.8433C6.09578 33.0526 5.89805 33.0515 5.852 32.8443C5.42384 30.9175 4.39403 29.3718 3.10955 28.7295C2.96587 28.6577 2.96232 28.3511 3.106 28.2793C4.40288 27.6308 5.42054 26.1043 5.85283 24.159Z"/>
  <path d="M1.90189 19.106C1.93382 18.9623 2.07009 18.9659 2.10202 19.1095C2.38746 20.394 3.07447 21.4238 3.93079 21.852C4.02289 21.8981 4.02338 22.0958 3.93037 22.1375C3.04711 22.5342 2.35611 23.5707 2.0917 24.8956C2.06385 25.0351 1.93204 25.0343 1.90133 24.8962C1.61589 23.6117 0.929356 22.5812 0.0730322 22.153C-0.0227527 22.1051 -0.0251178 21.9007 0.0706671 21.8528C0.935253 21.4205 1.61369 20.4029 1.90189 19.106Z"/>
  <path d="M31.9866 13.9995C31.9295 13.9942 31.8738 13.9423 31.852 13.8443L31.8383 13.7836C31.7427 13.3675 31.619 12.9695 31.4706 12.5951C31.4687 12.5901 31.4667 12.5852 31.4647 12.5802C31.7502 12.9843 31.9367 13.4707 31.9866 13.9995Z"/>
  <path d="M19 23.2003L19.026 23.2002C21.3251 23.186 23.1857 21.3253 23.1999 19.0267L23.2 19.0003C23.2 16.6895 21.3339 14.8146 19.0265 14.8003L19 14.8003C16.6804 14.8003 14.8 16.6807 14.8 19.0003L14.8001 19.0263C14.8143 21.3342 16.6892 23.2003 19 23.2003Z"/>
  <path d="M32 15.5V25.1429C32 26.7209 30.7875 28.0001 29.2917 28.0001H10.4303C10.3303 27.6373 10.0959 27.2008 9.567 26.9364C8.82283 26.5643 7.98618 25.4988 7.61731 23.8389C7.51036 23.3577 7.05562 22.5219 6.03456 22.5004C6.02298 22.5001 6.01147 22.5 6.00002 22.4999V14.2858C6.00002 12.7078 7.21258 11.4286 8.70835 11.4286H10.1099C11.6629 11.4286 13.1277 10.707 14.0741 9.47568L14.3954 9.0577C14.9097 8.38865 15.6826 8.00006 16.4991 8.00006H22.0499C22.8622 8.00006 23.6317 8.38474 24.1461 9.04804L24.4909 9.49274C25.438 10.714 26.8966 11.4286 28.442 11.4286H28.9508C29.5366 11.9553 30.1021 12.8844 30.3877 14.1697C30.4947 14.6511 30.9592 15.4996 31.9959 15.5C31.9972 15.5 31.9986 15.5 32 15.5ZM13.1462 17.8828C13.6005 15.488 15.488 13.6006 17.8827 13.1463L19.0289 12.0001L20.1893 13.1604C22.5498 13.6385 24.4041 15.5121 24.8538 17.8828L26 19.029L24.8397 20.1893C24.3664 22.5259 22.5259 24.3664 20.1893 24.8397L19.0289 26.0001L17.8827 24.8539C15.512 24.4041 13.6385 22.5499 13.1603 20.1893L12 19.029L13.1462 17.8828Z"/>
  <path d="M8.40866 27.9828C7.05391 27.8254 6.00002 26.614 6.00002 25.1429V24C6.06406 23.9997 6.12871 24.0549 6.15303 24.1643L6.16765 24.229C6.26224 24.6398 6.38429 25.0329 6.53037 25.403C6.62049 25.6313 6.71975 25.851 6.82735 26.0607C7.12264 26.6361 7.48074 27.1369 7.88505 27.5381L7.92113 27.5736C8.07723 27.7252 8.24005 27.862 8.40866 27.9828Z"/>
</svg>
