<?xml version="1.0"?>
<svg width="24" height="24" viewBox="0 0 22 24">
  <path d="M5.16637 5.16637C6.71354 3.61919 8.81196 2.75 11 2.75C12.7243 2.75 14.3929 3.2898 15.78 4.27581L4.27582 15.78C3.2898 14.3929 2.75 12.7243 2.75 11C2.75 8.81196 3.61919 6.71354 5.16637 5.16637ZM6.22008 17.7242C7.60712 18.7102 9.27573 19.25 11 19.25C13.188 19.25 15.2865 18.3808 16.8336 16.8336C18.3808 15.2865 19.25 13.188 19.25 11C19.25 9.27573 18.7102 7.60712 17.7242 6.22008L6.22008 17.7242ZM18.7946 3.23824C20.8472 5.29955 22 8.09035 22 11C22 13.9174 20.8411 16.7153 18.7782 18.7782C16.7153 20.8411 13.9174 22 11 22C8.08262 22 5.28473 20.8411 3.22183 18.7782C1.15893 16.7153 0 13.9174 0 11C0 8.08262 1.15893 5.28473 3.22183 3.22183C5.28473 1.15893 8.08262 0 11 0C13.9097 0 16.7005 1.15282 18.7618 3.20552C18.7674 3.21087 18.7729 3.21628 18.7783 3.22173C18.7838 3.2272 18.7892 3.2327 18.7946 3.23824Z"/>
</svg>
