<svg width="18" height="46" viewBox="0 0 18 46" fill="none" xmlns="http://www.w3.org/2000/svg">
    <path d="M12 37.9062C15.5556 33.7468 17.7778 28.3509 17.7778 22.393C17.7778 12.6558 11.9368 4.32281 3.61225 0.718316C2.59439 0.277586 1.45304 0.858031 1.1086 1.91238L0.617615 3.41537C0.275963 4.46121 0.849603 5.57637 1.84785 6.03898C4.62675 7.32677 7.04148 9.32317 8.84652 11.8467C11.0412 14.9148 12.2225 18.6056 12.2222 22.393C12.2222 26.7771 10.6222 30.7791 8.04444 33.9042L3.42244 29.228C2.16592 27.9567 6.46429e-07 28.8465 5.68297e-07 30.6339L-1.59528e-08 44C-6.4235e-08 45.1046 0.89543 46 2 46L15.2111 46C16.9873 46 17.8822 43.8573 16.6335 42.5941L12 37.9062Z" fill="#74AC00"/>
</svg>
