<?xml version="1.0" encoding="UTF-8"?>
<svg width="1653px" height="303px" viewBox="0 0 1653 303" version="1.1" xmlns="http://www.w3.org/2000/svg" xmlns:xlink="http://www.w3.org/1999/xlink">
    <!-- Generator: Sketch 58 (84663) - https://sketch.com -->
    <title>iNaturalist-Identity-white</title>
    <desc>Created with Sketch.</desc>
    <g id="iNaturalist-Identity-white" stroke="none" stroke-width="1" fill="none" fill-rule="evenodd">
        <g id="iNaturalist-Identity">
            <path d="M0,35.0842105 C91.6584469,44.4584562 163.904065,77.7838091 216.736855,135.060269 L218.331907,136.803251 C220.399456,139.080537 226.140698,145.519737 230.527907,143.925 C234.752627,142.389327 239.873907,133.077323 242.338612,129.286661 L244.276604,126.353128 C249.207406,118.935047 260.616186,103.099737 282.376744,96.0828947 C306.857372,88.1889474 337.811976,96.8066159 339.532552,97.3607673 L339.913004,97.4935816 C341.93183,98.2170567 343.807517,99.1717904 342.640269,100.809374 C341.408173,102.537934 330.939583,106.698322 323.827182,120.285682 C316.218142,134.821808 311.746035,162.944532 310.648767,169.142409 C306.327061,194.666477 295.963666,218.333041 280.975096,238.446453 C254.604049,273.834201 213.915657,298.223078 166.624676,302.378077 C140.771687,304.649528 115.816337,300.621686 93.2608046,291.560638 C120.59347,288.880842 153.674579,275.917824 180.24798,244.881222 C213.776744,205.721053 177.083721,226.053947 145.575581,220.871053 C123.500331,217.23981 105.532699,205.90642 75.3765382,167.576605 L76.325851,167.317604 C86.2575207,164.668275 104.609223,161.55817 119.503624,160.921916 C91.0507937,154.394361 53.3042115,136.415312 36.6034312,108.717107 C50.0250705,104.06579 67.6862225,105.754692 81.7968439,106.366709 L78.608782,104.445626 C27.1329848,73.3551178 4.77675423,56.2146173 0,35.0842105 Z M128.425581,-8.52651283e-14 L131.380294,1.37194144 C142.737115,6.68051448 182.259582,26.0499978 202.609302,53.4236842 C234.915116,96.8802632 236.111628,138.742105 227.337209,129.173684 C206.718452,106.689124 187.762733,92.291287 164.32093,76.1486842 C146.373256,63.7894737 134.378723,28.5637317 128.425581,-8.52651283e-14 Z M295.242032,108.472926 C290.853626,108.856714 287.607362,112.723978 287.991298,117.1107 C288.375233,121.497422 292.243981,124.742441 296.632386,124.358653 C301.020792,123.974864 304.267057,120.107601 303.883121,115.720879 C303.499185,111.334157 299.630438,108.089138 295.242032,108.472926 Z" id="iNaturalist-Logomark" fill="#74AC00"></path>
            <g id="iNaturalist-Wordmark" transform="translate(418.000000, 53.000000)" fill-rule="nonzero">
                <path d="M44.6481601,82.9039146 L44.6481601,223.202847 L6.37830859,223.202847 L6.37830859,85.9418836 L44.6481601,82.9039146 Z M34.667394,2.63969806 C47.2355923,-0.923396942 62.3222117,-0.223991297 63.7830859,0.959066677 C60.5435237,3.75909072 51.9283661,8.04972839 51.7411593,31.8954336 C51.6344874,45.4829034 44.7058903,54.5866083 36.7241211,59.2209546 C28.6484487,63.9098226 6.25339753,66.1644237 0,63.3025298 C4.50236165,59.4547772 5.85906951,45.3132456 6.62874473,37.613663 C7.74385713,26.4584381 11.5355906,9.19758415 34.667394,2.63969806 Z" id="i" fill="#74AC00"></path>
                <path d="M115.52231,28.8130841 L211.534905,169.456583 L211.534905,28.8130841 L245.06879,28.8130841 L245.06879,223.846062 L206.041917,223.846062 L110.029322,82.3784794 L110.029322,223.846062 L76.2207876,223.846062 L76.2207876,28.8130841 L115.52231,28.8130841 Z M325.805778,79.8308777 C365.362125,79.8308777 381.019846,97.0752981 381.019846,133.753907 L381.01988,182.745171 C381.03358,196.122884 381.555504,200.812179 396.952263,200.292109 L395.853476,221.618334 C390.359539,222.986939 365.113873,226.482562 352.176676,211.37061 C340.090014,223.140611 325.805778,223.808102 309.873361,223.808102 C285.425341,223.808102 267.570045,209.574612 267.570045,185.760889 C267.570045,164.136933 282.403675,137.93175 347.50683,137.384309 L347.50683,133.004773 C347.50683,113.570585 343.386377,106.655532 321.685325,106.655532 C310.422754,106.655532 296.413215,109.11902 278.008526,116.509486 L275.810951,91.8745999 C290.095187,83.9366921 310.697451,79.8308777 325.805778,79.8308777 Z M817.732828,79.8308777 C857.289175,79.8308777 872.946895,97.0752981 872.946895,133.753907 L872.94693,182.745171 C872.96063,196.122884 873.482554,200.812179 888.879313,200.292109 L887.780525,221.618334 C882.286588,222.986939 857.040922,226.482562 844.103726,211.37061 C832.017064,223.140611 817.732828,223.808102 801.80041,223.808102 C777.35239,223.808102 759.497095,209.574612 759.497095,185.760889 C759.497095,164.136933 774.330725,137.93175 839.433879,137.384309 L839.433879,133.004773 C839.433879,113.570585 835.313426,106.655532 813.612375,106.655532 C802.349804,106.655532 788.340264,109.11902 769.935575,116.509486 L767.738,91.8745999 C782.022237,83.9366921 802.624501,79.8308777 817.732828,79.8308777 Z M1085.07968,79.8308777 C1095.98469,79.8308777 1111.52433,81.7542376 1122.70197,86.4252544 L1120.52096,111.428933 C1106.61708,107.032682 1095.16681,105.658853 1086.71543,105.658853 C1070.08529,105.658853 1064.08753,113.077527 1064.08753,120.770966 C1064.08753,127.914874 1067.35904,132.311125 1083.1713,136.982142 L1095.98469,140.554096 C1120.52096,147.423239 1128.15447,161.985821 1128.15447,178.471762 C1128.15447,199.353955 1113.16008,223.808102 1072.26629,223.808102 C1059.99815,223.808102 1045.27639,221.060445 1032.19037,215.565131 L1031.64512,189.187624 C1048.82052,195.782001 1059.72553,197.430595 1069.81266,197.430595 C1087.53331,197.430595 1094.07631,188.638093 1094.07631,180.395122 C1094.07631,173.800745 1091.35006,167.7559 1074.44729,162.535352 L1061.36128,158.963398 C1040.09651,152.918553 1031.64512,141.378393 1031.3725,122.969092 C1031.3725,100.163539 1047.73002,79.8308777 1085.07968,79.8308777 Z M640.391041,80.6280308 L640.391041,219.460406 L609.436656,222.484478 L608.340926,208.050898 C596.013959,222.621424 580.947666,223.58414 565.059574,223.58414 C532.735527,223.58414 517.121369,202.690555 517.121369,167.226443 L517.121369,83.9270179 L551.362944,80.6280308 L551.362944,160.628469 C551.362944,183.721379 559.30699,192.848781 576.564744,192.848781 C585.60452,192.848781 606.063338,184.523642 606.063338,164.993393 L606.149465,83.9270179 L640.391041,80.6280308 Z M1005.71524,83.8399909 L1005.71524,223.470261 L971.208931,223.470261 L971.208931,86.863481 L1005.71524,83.8399909 Z M943.227817,12.0728706 L943.227817,223.443689 L908.590058,223.443689 L908.590058,15.0885373 L943.227817,12.0728706 Z M749.08805,83.6321458 L746.883067,113.948358 C740.819366,112.570348 736.409402,112.019145 731.723814,112.019145 C721.801394,112.019145 711.603351,115.60197 703.059045,128.004057 L703.059045,223.362324 L668.606198,223.362324 L668.606198,85.2857574 L700.763503,81.5184335 L700.854063,96.3011075 C708.736389,81.5184335 726.276738,81.5184335 734.480042,81.4273303 C738.338639,81.384478 744.402462,81.9785342 749.08805,83.6321458 Z M454.183114,41.5675325 L454.229841,85.409937 L492.758482,85.409937 L491.392218,111.731892 L454.229841,111.731892 L454.229841,172.053039 C454.229841,190.149383 463.247182,195.08475 474.723799,195.08475 C479.915602,195.08475 486.473668,194.262189 496.037515,190.971944 L495.764262,216.471338 C485.380657,221.132518 474.177293,223.326014 465.706457,223.326014 C440.840455,223.326014 420.073244,213.729468 420.073244,175.617471 L420.073244,111.731892 L402.311814,111.731892 L402.311814,87.8776203 L420.893003,85.13575 L420.661398,44.6253805 L454.183114,41.5675325 Z M1192.72527,41.5675325 L1192.51906,85.409937 L1231.0477,85.409937 L1229.68144,111.731892 L1192.51906,111.731892 L1192.51906,172.053039 C1192.51906,190.149383 1201.5364,195.08475 1213.01302,195.08475 C1218.20482,195.08475 1224.76289,194.262189 1234.32673,190.971944 L1234.05348,216.471338 C1223.66988,221.132518 1212.46651,223.326014 1203.99568,223.326014 C1179.12967,223.326014 1158.36246,213.729468 1158.36246,175.617471 L1158.36246,111.731892 L1140.60103,111.731892 L1140.60103,87.8776203 L1159.18222,85.13575 L1159.20355,44.6253805 L1192.72527,41.5675325 Z M300.927842,182.202516 C300.927842,191.78275 308.619354,198.899495 322.354197,198.899495 C332.51798,198.899495 341.30828,195.614843 349.549185,188.498098 L349.549185,160.30484 C311.366323,159.483677 300.927842,170.979957 300.927842,182.202516 Z M792.854892,182.202516 C792.854892,191.78275 800.546404,198.899495 814.281247,198.899495 C824.44503,198.899495 833.235329,195.614843 841.476235,188.498098 L841.476235,160.30484 C803.293372,159.483677 792.854892,170.979957 792.854892,182.202516 Z M988.324059,19.2472478 C1001.57448,19.2472478 1009.57994,28.0428554 1009.57994,39.8619531 C1009.57994,51.9559135 1000.74633,60.2017955 988.048009,60.2017955 C974.521537,60.2017955 966.792124,51.406188 966.792124,39.5870903 C966.792124,27.7679927 975.625738,19.2472478 988.324059,19.2472478 Z" id="Naturalist" fill="#FFFFFF"></path>
            </g>
        </g>
    </g>
</svg>