<svg width="270" height="49" viewBox="0 0 270 49" fill="none" xmlns="http://www.w3.org/2000/svg">
    <g clip-path="url(#clip0_17212_262663)">
        <path fill-rule="evenodd" clip-rule="evenodd" d="M0 5.67368C14.9714 7.18965 26.772 12.5789 35.4017 21.8414L35.6622 22.1233C35.9999 22.4916 36.9377 23.5329 37.6543 23.275C38.3443 23.0267 39.1809 21.5208 39.5834 20.9077L39.9 20.4333C40.7054 19.2337 42.5689 16.6729 46.1232 15.5382C50.1219 14.2616 55.178 15.6552 55.459 15.7448L55.5212 15.7663C55.8509 15.8833 56.1573 16.0377 55.9666 16.3025C55.7654 16.582 54.0555 17.2548 52.8937 19.4521C51.6509 21.8029 50.9204 26.3508 50.7412 27.3531C50.0353 31.4807 48.3425 35.308 45.8943 38.5606C41.5869 44.2834 34.9408 48.2275 27.2164 48.8994C22.9936 49.2668 18.9174 48.6154 15.2332 47.1501C19.6977 46.7167 25.1011 44.6204 29.4416 39.6013C34.9182 33.2684 28.9247 36.5566 23.7782 35.7184C20.1725 35.1312 17.2376 33.2984 12.312 27.0998L12.467 27.058C14.0892 26.6295 17.0868 26.1266 19.5196 26.0237C14.8722 24.9681 8.70668 22.0606 5.97878 17.5813C8.17106 16.8291 11.0558 17.1022 13.3606 17.2012L12.8399 16.8905C4.43188 11.8627 0.780232 9.09081 0 5.67368ZM20.977 0L21.4596 0.221865C23.3146 1.08035 29.7702 4.21271 33.0941 8.63947C38.3709 15.6671 38.5663 22.4368 37.1331 20.8895C33.7653 17.2534 30.669 14.925 26.8401 12.3145C23.9085 10.3158 21.9493 4.61922 20.977 0ZM48.2247 17.5418C47.5079 17.6039 46.9776 18.2293 47.0403 18.9387C47.103 19.6481 47.735 20.1729 48.4517 20.1108C49.1685 20.0487 49.6988 19.4233 49.6361 18.7139C49.5734 18.0045 48.9414 17.4798 48.2247 17.5418Z" fill="white"/>
        <path d="M75.5687 21.9779V44.6666H69.3177V22.4692L75.5687 21.9779ZM73.9384 8.99793C75.9913 8.42172 78.4556 8.53482 78.6942 8.72614C78.165 9.17895 76.7578 9.87282 76.7272 13.7291C76.7098 15.9264 75.5781 17.3986 74.2744 18.148C72.9553 18.9063 69.2973 19.2709 68.2759 18.8081C69.0113 18.1858 69.2329 15.8989 69.3586 14.6538C69.5408 12.8498 70.1601 10.0584 73.9384 8.99793Z" fill="white"/>
        <path d="M87.1451 13.2306L102.828 35.9749V13.2306H108.305V44.7706H101.93L86.2479 21.893V44.7706H80.7256V13.2306H87.1451ZM121.493 21.481C127.954 21.481 130.511 24.2697 130.511 30.2012L130.511 38.1239C130.514 40.2873 130.599 41.0456 133.114 40.9615L132.934 44.4103C132.037 44.6317 127.913 45.197 125.8 42.7531C123.826 44.6565 121.493 44.7645 118.89 44.7645C114.897 44.7645 111.98 42.4627 111.98 38.6116C111.98 35.1147 114.403 30.8769 125.037 30.7883V30.0801C125.037 26.9373 124.364 25.819 120.82 25.819C118.98 25.819 116.692 26.2174 113.685 27.4125L113.327 23.4287C115.66 22.145 119.025 21.481 121.493 21.481ZM201.844 21.481C208.305 21.481 210.862 24.2697 210.862 30.2012V38.1239C210.865 40.2873 210.95 41.0456 213.465 40.9615L213.285 44.4103C212.388 44.6317 208.264 45.197 206.151 42.7531C204.177 44.6565 201.844 44.7645 199.241 44.7645C195.248 44.7645 192.332 42.4627 192.332 38.6116C192.332 35.1147 194.754 30.8769 205.388 30.7883V30.0801C205.388 26.9373 204.715 25.819 201.171 25.819C199.331 25.819 197.043 26.2174 194.037 27.4125L193.678 23.4287C196.011 22.145 199.376 21.481 201.844 21.481ZM245.512 21.481C247.293 21.481 249.831 21.792 251.657 22.5474L251.301 26.5909C249.03 25.88 247.16 25.6578 245.779 25.6578C243.063 25.6578 242.083 26.8575 242.083 28.1017C242.083 29.257 242.618 29.9679 245.2 30.7233L247.293 31.3009C251.301 32.4118 252.548 34.7668 252.548 37.4328C252.548 40.8098 250.099 44.7645 243.419 44.7645C241.415 44.7645 239.011 44.3201 236.873 43.4314L236.784 39.1658C239.589 40.2322 241.371 40.4988 243.018 40.4988C245.913 40.4988 246.982 39.0769 246.982 37.7439C246.982 36.6775 246.536 35.6999 243.775 34.8557L241.638 34.278C238.164 33.3005 236.784 31.4342 236.74 28.4572C236.74 24.7691 239.411 21.481 245.512 21.481ZM172.877 21.6099V44.0614L167.821 44.5504L167.642 42.2163C165.628 44.5725 163.167 44.7282 160.572 44.7282C155.292 44.7282 152.742 41.3494 152.742 35.6143V22.1434L158.335 21.6099V34.5473C158.335 38.2818 159.633 39.7578 162.451 39.7578C163.928 39.7578 167.27 38.4115 167.27 35.2532L167.284 22.1434L172.877 21.6099ZM232.549 22.1293V44.7098H226.912V22.6183L232.549 22.1293ZM222.342 10.5234V44.7055H216.684V11.0111L222.342 10.5234ZM190.631 22.0957L190.271 26.9984C189.281 26.7755 188.56 26.6864 187.795 26.6864C186.174 26.6864 184.509 27.2658 183.113 29.2714V44.6924H177.485V22.3631L182.738 21.7539L182.753 24.1445C184.04 21.7539 186.905 21.7539 188.245 21.7392C188.876 21.7322 189.866 21.8283 190.631 22.0957ZM142.462 15.2932L142.469 22.3832H148.763L148.539 26.6399H142.469V36.3948C142.469 39.3213 143.942 40.1194 145.817 40.1194C146.665 40.1194 147.736 39.9864 149.298 39.4543L149.254 43.578C147.558 44.3318 145.728 44.6865 144.344 44.6865C140.282 44.6865 136.89 43.1346 136.89 36.9712V26.6399H133.989V22.7823L137.024 22.3389L136.986 15.7877L142.462 15.2932ZM263.095 15.2932L263.061 22.3832H269.354L269.131 26.6399H263.061V36.3948C263.061 39.3213 264.534 40.1194 266.409 40.1194C267.257 40.1194 268.328 39.9864 269.89 39.4543L269.845 43.578C268.149 44.3318 266.319 44.6865 264.936 44.6865C260.874 44.6865 257.482 43.1346 257.482 36.9712V26.6399H254.581V22.7823L257.616 22.3389L257.619 15.7877L263.095 15.2932ZM117.429 38.0362C117.429 39.5854 118.685 40.7363 120.929 40.7363C122.589 40.7363 124.025 40.2051 125.371 39.0542V34.4949C119.134 34.3621 117.429 36.2213 117.429 38.0362ZM197.78 38.0362C197.78 39.5854 199.037 40.7363 201.28 40.7363C202.94 40.7363 204.376 40.2051 205.722 39.0542V34.4949C199.485 34.3621 197.78 36.2213 197.78 38.0362ZM229.708 11.6837C231.872 11.6837 233.18 13.106 233.18 15.0174C233.18 16.9732 231.737 18.3067 229.663 18.3067C227.454 18.3067 226.191 16.8843 226.191 14.9729C226.191 13.0616 227.634 11.6837 229.708 11.6837Z" fill="white"/>
    </g>
    <defs>
        <clipPath id="clip0_17212_262663">
            <rect width="270" height="49" fill="white"/>
        </clipPath>
    </defs>
</svg>
