<svg width="41" height="41" viewBox="0 0 41 41" fill="none" xmlns="http://www.w3.org/2000/svg">
<path d="M20.6306 40.9645C19.2858 41.0085 18.009 40.3733 17.2328 39.2743C16.7392 38.5755 16.0614 37.6713 15.2869 36.6383L15.2868 36.6382L15.2868 36.6381C13.7005 34.5222 11.7089 31.8655 10.0651 29.3254C7.63221 25.5662 5 20.7143 5 16.0878C5 7.39297 11.754 0 20.5 0C29.246 0 36 7.39297 36 16.0878C36 18.5439 35.2435 20.951 34.2956 23.0784C33.3334 25.2377 32.0544 27.3692 30.754 29.3309C29.5103 31.207 28.1802 33.0258 27.0084 34.628L26.8422 34.8553C25.5894 36.5687 24.5879 37.9509 23.9108 39.0562C23.208 40.2035 21.9754 40.9206 20.6306 40.9645Z" fill="white"/>
<path d="M20.5 4C26.8513 4 32 9.41188 32 16.0878C32 22.7637 23.6202 31.8735 20.5 36.9667C16.9618 31.9572 9 22.7637 9 16.0878C9 9.41188 14.1487 4 20.5 4ZM20.5 10.9C17.5361 10.9 15.1333 13.3027 15.1333 16.2667C15.1333 19.2306 17.5361 21.6333 20.5 21.6333C23.4639 21.6333 25.8667 19.2306 25.8667 16.2667C25.8667 13.3027 23.4639 10.9 20.5 10.9Z" fill="#74AC00"/>
</svg>
