<svg width="51" height="21" viewBox="0 0 51 21" fill="none" xmlns="http://www.w3.org/2000/svg">
<path fill-rule="evenodd" clip-rule="evenodd" d="M1 2C1 1.44771 1.44772 1 2 1H40.3325C40.6025 1 40.8609 1.10912 41.0492 1.30257L49.3213 9.80257C49.6991 10.1908 49.6991 10.8092 49.3213 11.1974L41.0492 19.6974C40.8609 19.8909 40.6025 20 40.3325 20H2C1.44771 20 1 19.5523 1 19V2Z" stroke="currentColor"/>
<line x1="34" y1="7.5" x2="34" y2="13.5" stroke="currentColor" stroke-linecap="round"/>
<line x1="31" y1="10.5" x2="37" y2="10.5" stroke="currentColor" stroke-linecap="round"/>
<circle cx="12" cy="9" r="4" stroke="currentColor" stroke-linecap="round" stroke-dasharray="0.01 2"/>
<circle cx="22" cy="9" r="4" stroke="currentColor"/>
<path fill-rule="evenodd" clip-rule="evenodd" d="M11.9949 13.5C11.7187 13.5002 11.4947 13.2765 11.4945 13.0004C11.4943 12.7242 11.718 12.5002 11.9941 12.5L12.005 12.5C12.2811 12.5002 12.5048 12.7242 12.5046 13.0003C12.5045 13.2765 12.2805 13.5002 12.0043 13.5L11.9949 13.5ZM15.1064 13.7053C15.2461 13.4672 15.5525 13.3874 15.7907 13.5272L15.7992 13.5322C16.0372 13.6722 16.1166 13.9787 15.9765 14.2167C15.8364 14.4547 15.5299 14.534 15.292 14.394L15.2846 14.3896C15.0464 14.2499 14.9666 13.9435 15.1064 13.7053ZM8.29419 14.0393C8.45651 14.2627 8.407 14.5754 8.1836 14.7377L8.17538 14.7437C7.95224 14.9064 7.63948 14.8573 7.47681 14.6342C7.31414 14.411 7.36317 14.0983 7.58632 13.9356L7.59579 13.9287C7.81919 13.7664 8.13187 13.8159 8.29419 14.0393ZM16.6466 14.7408C16.8437 14.5474 17.1603 14.5504 17.3537 14.7475L17.3571 14.7511C17.5504 14.9483 17.5472 15.2649 17.3499 15.4581C17.1527 15.6514 16.8362 15.6482 16.6429 15.451L16.6399 15.4479C16.4465 15.2508 16.4495 14.9342 16.6466 14.7408ZM6.63419 15.4768C6.85734 15.6395 6.90637 15.9522 6.7437 16.1754L6.73772 16.1836C6.5754 16.407 6.26272 16.4565 6.03932 16.2942C5.81592 16.1319 5.7664 15.8192 5.92872 15.5958L5.93562 15.5863C6.09829 15.3632 6.41105 15.3141 6.63419 15.4768ZM5.49736 17.3555C5.75993 17.441 5.90348 17.7231 5.81799 17.9857L5.81485 17.9954C5.72977 18.2581 5.44783 18.4021 5.18512 18.317C4.92242 18.2319 4.77842 17.95 4.8635 17.6873L4.86712 17.6761C4.95262 17.4135 5.23478 17.27 5.49736 17.3555ZM5.00039 19.4945C5.27653 19.4947 5.50021 19.7187 5.5 19.9949L5.5 20C5.5 20.2761 5.27614 20.5 5 20.5C4.72386 20.5 4.5 20.2761 4.5 20L4.5 19.9941C4.50021 19.718 4.72424 19.4943 5.00039 19.4945Z" fill="currentColor"/>
<path d="M29 20C29 16.134 25.866 13 22 13C18.134 13 15 16.134 15 20" stroke="currentColor"/>
</svg>
