<svg width="31" height="31" viewBox="0 0 31 31" fill="none" xmlns="http://www.w3.org/2000/svg">
<circle cx="15.5" cy="15.5" r="15.5" fill="#74AC00"/>
<path d="M23.9998 16.2495C23.9287 17.0659 24.3853 17.8807 25.177 18.0923C25.9688 18.3039 26.7923 17.8336 26.8999 17.0212C26.966 16.5225 27 16.0146 27 15.5C27 14.9854 26.966 14.4775 26.8999 13.9788C26.7923 13.1664 25.9688 12.6961 25.177 12.9077C24.3853 13.1193 23.9287 13.9341 23.9998 14.7505C24.0213 14.9975 24.0323 15.2475 24.0323 15.5C24.0323 15.7525 24.0213 16.0025 23.9998 16.2495ZM24.1748 10.4901C23.4654 10.9005 22.5664 10.6475 22.0397 10.0196C21.7182 9.63635 21.3636 9.28178 20.9804 8.96027C20.3525 8.43356 20.0995 7.53456 20.5099 6.82522C20.9204 6.11588 21.8354 5.86645 22.4861 6.36463C23.2939 6.98306 24.0169 7.70615 24.6354 8.51394C25.1336 9.16465 24.8841 10.0796 24.1748 10.4901ZM18.0923 5.82296C17.8807 6.61468 17.0659 7.07125 16.2495 7.0002C16.0025 6.97871 15.7525 6.96774 15.5 6.96774C15.2475 6.96774 14.9975 6.97871 14.7505 7.0002C13.9341 7.07125 13.1193 6.61468 12.9077 5.82296C12.6961 5.03123 13.1664 4.20769 13.9788 4.10006C14.4775 4.03399 14.9854 4 15.5 4C16.0146 4 16.5225 4.03399 17.0212 4.10006C17.8336 4.20769 18.3039 5.03123 18.0923 5.82296ZM10.4901 6.82522C10.9005 7.53456 10.6475 8.43356 10.0196 8.96027C9.63635 9.28178 9.28178 9.63635 8.96027 10.0196C8.43356 10.6475 7.53456 10.9005 6.82522 10.4901C6.11588 10.0796 5.86645 9.16465 6.36463 8.51394C6.98306 7.70615 7.70615 6.98306 8.51393 6.36463C9.16465 5.86645 10.0796 6.11588 10.4901 6.82522ZM7.0002 14.7505C7.07125 13.9341 6.61468 13.1193 5.82296 12.9077C5.03123 12.6961 4.20769 13.1664 4.10006 13.9788C4.03399 14.4775 4 14.9854 4 15.5C4 16.0146 4.03399 16.5225 4.10006 17.0212C4.20769 17.8336 5.03123 18.3039 5.82296 18.0923C6.61468 17.8807 7.07125 17.0659 7.0002 16.2495C6.97871 16.0025 6.96774 15.7525 6.96774 15.5C6.96774 15.2475 6.97871 14.9975 7.0002 14.7505ZM6.82522 20.5099C7.53456 20.0995 8.43356 20.3525 8.96027 20.9804C9.28178 21.3636 9.63635 21.7182 10.0196 22.0397C10.6475 22.5664 10.9005 23.4654 10.4901 24.1748C10.0796 24.8841 9.16465 25.1336 8.51394 24.6354C7.70615 24.0169 6.98306 23.2939 6.36463 22.4861C5.86645 21.8354 6.11588 20.9204 6.82522 20.5099ZM12.9077 25.177C13.1193 24.3853 13.9341 23.9287 14.7505 23.9998C14.9975 24.0213 15.2475 24.0323 15.5 24.0323C15.7525 24.0323 16.0025 24.0213 16.2495 23.9998C17.0659 23.9287 17.8807 24.3853 18.0923 25.177C18.3039 25.9688 17.8336 26.7923 17.0212 26.8999C16.5225 26.966 16.0146 27 15.5 27C14.9854 27 14.4775 26.966 13.9788 26.8999C13.1664 26.7923 12.6961 25.9688 12.9077 25.177ZM20.5099 24.1748C20.0995 23.4654 20.3525 22.5664 20.9804 22.0397C21.3636 21.7182 21.7182 21.3636 22.0397 20.9804C22.5664 20.3525 23.4654 20.0995 24.1748 20.5099C24.8841 20.9204 25.1336 21.8354 24.6354 22.4861C24.0169 23.2939 23.2939 24.0169 22.4861 24.6354C21.8354 25.1336 20.9204 24.8841 20.5099 24.1748ZM15.5 19.5806C17.7537 19.5806 19.5806 17.7537 19.5806 15.5C19.5806 13.2463 17.7537 11.4194 15.5 11.4194C13.2463 11.4194 11.4194 13.2463 11.4194 15.5C11.4194 17.7537 13.2463 19.5806 15.5 19.5806Z" fill="white"/>
</svg>
