<svg width="100" height="100" viewBox="0 0 100 100" fill="none" xmlns="http://www.w3.org/2000/svg">
    <path fill-rule="evenodd" clip-rule="evenodd" d="M50.0001 81.25C53.4518 81.25 56.2501 78.4518 56.2501 75C56.2501 71.5482 53.4518 68.75 50.0001 68.75C46.5483 68.75 43.7501 71.5482 43.7501 75C43.7501 78.4518 46.5483 81.25 50.0001 81.25ZM50.0001 82.1429C43.1064 82.1429 37.4293 87.3512 36.689 94.0475C39.9587 97.7008 44.7105 100 49.9992 100C55.2888 100 60.0412 97.7001 63.311 94.0458C62.5699 87.3503 56.8931 82.1429 50.0001 82.1429Z" fill="white"/>
    <path d="M66.3573 82.1428C66.3573 91.1766 59.034 98.4999 50.0002 98.4999C40.9664 98.4999 33.6431 91.1766 33.6431 82.1428C33.6431 73.109 40.9664 65.7856 50.0002 65.7856C59.034 65.7856 66.3573 73.109 66.3573 82.1428Z" stroke="white" stroke-width="3"/>
    <path fill-rule="evenodd" clip-rule="evenodd" d="M17.857 50C21.3088 50 24.107 47.2018 24.107 43.75C24.107 40.2982 21.3088 37.5 17.857 37.5C14.4052 37.5 11.607 40.2982 11.607 43.75C11.607 47.2018 14.4052 50 17.857 50ZM17.857 50.8929C10.9634 50.8929 5.28619 56.1012 4.5459 62.7975C7.81567 66.4508 12.5674 68.75 17.8561 68.75C23.1457 68.75 27.8981 66.4501 31.1679 62.7958C30.4269 56.1003 24.7501 50.8929 17.857 50.8929Z" fill="white"/>
    <circle cx="17.8571" cy="50.8928" r="16.3571" stroke="white" stroke-width="3"/>
    <path fill-rule="evenodd" clip-rule="evenodd" d="M50.0001 16.9644C53.4518 16.9644 56.2501 14.1661 56.2501 10.7144C56.2501 7.26258 53.4518 4.46436 50.0001 4.46436C46.5483 4.46436 43.7501 7.26258 43.7501 10.7144C43.7501 14.1661 46.5483 16.9644 50.0001 16.9644ZM50.0001 17.8572C43.1064 17.8572 37.4293 23.0656 36.689 29.7619C39.9587 33.4152 44.7105 35.7144 49.9992 35.7144C55.2888 35.7144 60.0412 33.4145 63.311 29.7602C62.5699 23.0647 56.8931 17.8572 50.0001 17.8572Z" fill="white"/>
    <path d="M66.3573 17.8571C66.3573 26.8909 59.034 34.2143 50.0002 34.2143C40.9664 34.2143 33.6431 26.8909 33.6431 17.8571C33.6431 8.82334 40.9664 1.5 50.0002 1.5C59.034 1.5 66.3573 8.82334 66.3573 17.8571Z" stroke="white" stroke-width="3"/>
    <path fill-rule="evenodd" clip-rule="evenodd" d="M82.1426 50C85.5944 50 88.3927 47.2018 88.3927 43.75C88.3927 40.2982 85.5944 37.5 82.1426 37.5C78.6909 37.5 75.8926 40.2982 75.8926 43.75C75.8926 47.2018 78.6909 50 82.1426 50ZM82.1426 50.8929C75.249 50.8929 69.5718 56.1012 68.8315 62.7975C72.1013 66.4508 76.8531 68.75 82.1418 68.75C87.4314 68.75 92.1838 66.4501 95.4536 62.7958C94.7125 56.1003 89.0357 50.8929 82.1426 50.8929Z" fill="white"/>
    <circle cx="82.1428" cy="50.8928" r="16.3571" stroke="white" stroke-width="3"/>
    <path fill-rule="evenodd" clip-rule="evenodd" d="M66.0586 25.6768C69.5647 27.9963 72.54 31.0535 74.7633 34.6272C75.6871 34.2074 76.6531 33.8639 77.6531 33.6049C75.0558 29.2336 71.4514 25.5306 67.1598 22.8159C66.8737 23.8077 66.5039 24.7641 66.0586 25.6768ZM76.6984 67.9048C75.7161 67.5907 74.7709 67.1939 73.8708 66.7226C71.7677 69.719 69.1148 72.3014 66.0586 74.3232C66.5039 75.236 66.8737 76.1923 67.1598 77.1842C70.9481 74.7878 74.201 71.6213 76.6984 67.9048ZM32.8405 77.1842C33.1266 76.1923 33.4963 75.236 33.9416 74.3232C30.8854 72.3014 28.2325 69.719 26.1295 66.7226C25.2294 67.1939 24.2841 67.5907 23.3019 67.9048C25.7992 71.6213 29.0521 74.7878 32.8405 77.1842ZM22.3472 33.6049C23.3471 33.8639 24.3131 34.2073 25.237 34.6272C27.4602 31.0535 30.4355 27.9963 33.9416 25.6768C33.4963 24.7641 33.1266 23.8077 32.8405 22.8159C28.5489 25.5306 24.9445 29.2336 22.3472 33.6049Z" fill="white"/>
</svg>
