<svg width="70" height="70" viewBox="0 0 70 70" fill="none" xmlns="http://www.w3.org/2000/svg">
    <path fill-rule="evenodd" clip-rule="evenodd" d="M0 35C0 15.6707 15.6707 0 35 0C54.3293 0 70 15.6707 70 35C70 54.3293 54.3293 70 35 70C15.6707 70 0 54.3293 0 35ZM35 4.66667C31.8167 4.66363 28.6528 5.16207 25.6247 6.14367L28.28 7.93333C29.61 8.84333 31.1967 9.33333 32.8067 9.33333H43.3767C43.89 9.33333 44.31 9.75333 44.31 10.2667C44.31 11.0367 44.94 11.6667 45.71 11.6667H52.4767C53.13 11.6667 53.6433 12.18 53.6433 12.8333C53.6433 13.4867 53.13 14 52.4767 14H48.79C46.3167 14 44.31 16.0067 44.31 18.48V19.8333C44.31 20.4867 43.7967 21 43.1433 21C42.49 21 41.9767 20.4867 41.9767 19.8333V18.3633C41.9767 17.2433 41.0667 16.3333 39.9467 16.3333H36.1433C35.49 16.3333 34.9767 16.8467 34.9767 17.5C34.9767 18.1533 35.49 18.6667 36.1433 18.6667H37.45C38.6633 18.6667 39.6433 19.6467 39.6433 20.86V21.14C39.6667 22.3533 38.6867 23.3333 37.4733 23.3333C36.0967 23.3333 35 24.4533 35 25.8067V29.1667C35 29.82 34.4867 30.3333 33.8333 30.3333C33.18 30.3333 32.6667 30.8467 32.6667 31.5V35.98C32.6644 36.3004 32.5486 36.6096 32.3397 36.8526C32.1309 37.0956 31.8427 37.2566 31.5263 37.307C31.2099 37.3574 30.8858 37.2939 30.6118 37.1278C30.3379 36.9617 30.1317 36.7038 30.03 36.4L28.3967 31.5233C28.14 30.8233 27.4867 30.3333 26.74 30.3333C26.417 30.3353 26.1007 30.4254 25.8252 30.594C25.5496 30.7626 25.3254 31.0033 25.1767 31.29L21.3967 38.8733C21.2499 39.1662 21.0086 39.4009 20.7118 39.5394C20.415 39.678 20.0801 39.7122 19.7614 39.6366C19.4427 39.5609 19.1589 39.3799 18.9559 39.1228C18.753 38.8657 18.6428 38.5475 18.6433 38.22V36.05C18.6433 35.4667 18.1767 35 17.5933 35C16.8933 35 16.31 34.44 16.31 33.7167V31.5C16.31 30.8467 15.7967 30.3333 15.1433 30.3333C14.49 30.3333 13.9767 30.8467 13.9767 31.5V32.8533C13.9767 34.0433 13.02 35 11.83 35H10.43C9.8 35 9.28667 34.4867 9.28667 33.8567C9.33333 33.2033 8.77333 32.6667 8.12 32.6667C7.49 32.6667 6.97667 33.18 6.97667 33.81V35C6.97667 36.2833 8.02667 37.3333 9.31 37.3333C10.5933 37.3333 11.6433 38.3833 11.6433 39.6667V41.0433C11.6433 41.58 11.2233 42 10.6867 42C9.91667 42 9.31 42.6067 9.31 43.3767V47.4833C9.30775 48.3297 9.03646 49.1533 8.53533 49.8353C13.7317 59.0847 23.6367 65.3333 35 65.3333C51.7533 65.3333 65.3333 51.7533 65.3333 35C65.3333 18.2467 51.7533 4.66667 35 4.66667ZM39.6672 41.16V38.99C39.6672 38.08 40.3906 37.3333 41.3239 37.2867C41.7622 37.2897 42.1815 37.4658 42.4906 37.7767L46.2006 41.4867C46.5272 41.79 46.6906 42.21 46.6906 42.6533C46.6906 43.5633 45.9439 44.31 45.0339 44.31H44.7072C44.4739 44.31 44.2406 44.2633 44.0306 44.17L40.6472 42.6533C40.0406 42.3967 39.6672 41.8133 39.6672 41.16ZM33.7639 39.6667H31.5472C30.8706 39.6667 30.3106 40.2267 30.3106 40.9033V43.12C30.3106 43.7967 30.8706 44.3567 31.5472 44.3567H33.7639C34.4406 44.3567 35.0006 43.7967 35.0006 43.12V40.9033C35.0006 40.2267 34.4406 39.6667 33.7639 39.6667ZM25.6672 43.1667C25.6672 43.82 26.1806 44.3333 26.8339 44.3333C27.4639 44.3333 28.0006 43.82 28.0006 43.1667V40.8333C28.0006 40.18 27.4872 39.6667 26.8339 39.6667C26.1806 39.6667 25.6672 40.18 25.6672 40.8333V43.1667ZM41.5106 23.8233L37.8006 27.5333C37.4972 27.8367 37.3106 28.2567 37.3106 28.7C37.3106 29.61 38.0572 30.3567 38.9672 30.3567C39.4106 30.3567 39.8306 30.1933 40.1339 29.8667L43.8439 26.1567C44.1472 25.8533 44.3339 25.4333 44.3339 24.99C44.3339 24.08 43.5872 23.3333 42.6772 23.3333C42.2339 23.3333 41.8139 23.4967 41.5106 23.8233ZM49.4672 57.8667L53.1772 54.1567C53.4806 53.83 53.9006 53.6667 54.3439 53.6667C55.2539 53.6667 56.0006 54.4133 56.0006 55.3233C56.0006 55.7667 55.8139 56.1867 55.5106 56.49L51.8006 60.2C51.4972 60.5267 51.0772 60.69 50.6339 60.69C49.7239 60.69 48.9772 59.9433 48.9772 59.0333C48.9772 58.59 49.1639 58.17 49.4672 57.8667ZM32.6672 50.7267V53.5967C32.6672 54.9267 33.7406 56 35.0706 56H38.6406C39.2706 56 39.8772 56.2567 40.3206 56.7L41.2772 57.6567C41.7206 58.1 42.3272 58.3567 42.9572 58.3567H45.1506C46.0606 58.3567 46.9006 57.8433 47.2972 57.0267L48.7206 54.2033C48.8839 53.8767 48.9772 53.5033 48.9772 53.13V50.5167C48.9772 49.6067 48.4639 48.7667 47.6472 48.37L44.8239 46.9467C44.4972 46.7833 44.1239 46.69 43.7506 46.69H40.0406C39.7839 46.69 39.5272 46.7367 39.2706 46.8067L34.2772 48.4633C33.3206 48.79 32.6672 49.7 32.6672 50.7267Z" fill="white"/>
</svg>
