<svg width="70" height="70" viewBox="0 0 70 70" fill="none" xmlns="http://www.w3.org/2000/svg">
    <path fill-rule="evenodd" clip-rule="evenodd" d="M18.5096 1C18.5096 0.447715 18.0619 0 17.5096 0H8.07692C3.61616 0 0 3.61616 0 8.07693V17.5096C0 18.0619 0.447716 18.5096 1 18.5096H4.38462C4.9369 18.5096 5.38462 18.0619 5.38462 17.5096V8.07693C5.38462 6.59 6.59 5.38462 8.07692 5.38462H17.5096C18.0619 5.38462 18.5096 4.9369 18.5096 4.38461V1ZM52.4904 5.38462C51.9381 5.38462 51.4904 4.9369 51.4904 4.38462V1C51.4904 0.447716 51.9381 0 52.4904 0H61.9231C66.3838 0 70 3.61616 70 8.07692V17.5096C70 18.0619 69.5523 18.5096 69 18.5096H65.6154C65.0631 18.5096 64.6154 18.0619 64.6154 17.5096V8.07692C64.6154 6.59 63.41 5.38462 61.9231 5.38462H52.4904ZM51.4904 65.6154C51.4904 65.0631 51.9381 64.6154 52.4904 64.6154H61.9231C63.41 64.6154 64.6154 63.41 64.6154 61.9231V52.4904C64.6154 51.9381 65.0631 51.4904 65.6154 51.4904H69C69.5523 51.4904 70 51.9381 70 52.4904V61.9231C70 66.3838 66.3838 70 61.9231 70H52.4904C51.9381 70 51.4904 69.5523 51.4904 69V65.6154ZM4.38461 51.4904C4.9369 51.4904 5.38462 51.9381 5.38462 52.4904V61.9231C5.38462 63.41 6.59 64.6154 8.07693 64.6154H17.5096C18.0619 64.6154 18.5096 65.0631 18.5096 65.6154V69C18.5096 69.5523 18.0619 70 17.5096 70H8.07693C3.61616 70 0 66.3838 0 61.9231V52.4904C0 51.9381 0.447715 51.4904 1 51.4904H4.38461Z" fill="white"/>
    <path fill-rule="evenodd" clip-rule="evenodd" d="M9.3335 17.5619C23.0511 18.9644 33.8634 23.9505 41.7703 32.5202L42.009 32.781C42.3185 33.1217 43.1777 34.0851 43.8343 33.8465C44.4769 33.613 45.2581 32.1776 45.6196 31.6292L45.677 31.5432C46.2618 30.663 47.9672 27.8576 51.594 26.6884C55.2577 25.5073 59.8904 26.7967 60.1479 26.8796L60.1839 26.892C60.4938 27.0012 60.7917 27.1449 60.613 27.3956C60.4286 27.6542 58.8619 28.2767 57.7974 30.3096C56.6587 32.4845 55.9894 36.6922 55.8252 37.6195C55.1784 41.4384 53.6274 44.9794 51.3842 47.9887C47.4375 53.2834 41.3481 56.9324 34.2705 57.5541C30.4014 57.8939 26.6666 57.2913 23.2909 55.9356C27.3815 55.5346 32.3324 53.5951 36.3094 48.9515C41.3273 43.0924 35.8358 46.1346 31.1203 45.3591C27.8165 44.8158 25.1275 43.1201 20.6143 37.3852C22.0621 36.981 24.9162 36.4879 27.2184 36.3896C22.9601 35.4129 17.311 32.7229 14.8116 28.5787C16.8202 27.8828 19.4634 28.1355 21.5752 28.2271C13.5319 23.3923 10.063 20.7879 9.3335 17.5619ZM28.5835 12.353L28.6199 12.3704C29.3427 12.7097 36.281 15.7885 39.6668 20.354C44.4934 26.8622 44.6722 33.1316 43.3613 31.6986C40.2807 28.3312 37.4487 26.1749 33.9464 23.7573C31.2649 21.9064 29.4729 16.6308 28.5835 12.353ZM53.5065 28.5879C52.8628 28.6443 52.3866 29.2118 52.4429 29.8555C52.4992 30.4992 53.0667 30.9754 53.7105 30.9191C54.3542 30.8628 54.8304 30.2953 54.7741 29.6515C54.7178 29.0078 54.1503 28.5316 53.5065 28.5879Z" fill="white"/>
</svg>
