<svg width="51" height="21" viewBox="0 0 51 21" fill="none" xmlns="http://www.w3.org/2000/svg">
<path fill-rule="evenodd" clip-rule="evenodd" d="M1 2C1 1.44771 1.44772 1 2 1H48.6314C49.5158 1 49.9649 2.06365 49.3481 2.69743L42.4335 9.80257C42.0557 10.1908 42.0557 10.8092 42.4335 11.1974L49.3481 18.3026C49.9649 18.9363 49.5158 20 48.6314 20H2C1.44771 20 1 19.5523 1 19V2Z" stroke="currentColor"/>
<path d="M32.939 12.2199L31.3279 10.5958C31.0827 10.3486 30.6831 10.3486 30.4379 10.5958C30.1955 10.8402 30.1955 11.2343 30.4379 11.4787L32.2291 13.2843C32.6202 13.6786 33.2578 13.6786 33.649 13.2843L38.5621 8.33146C38.8045 8.08709 38.8045 7.69296 38.5621 7.4486C38.3169 7.20143 37.9173 7.20143 37.6721 7.4486L32.939 12.2199Z" fill="#454545"/>
<circle cx="12" cy="9" r="4" stroke="currentColor"/>
<circle cx="22" cy="9" r="4" stroke="currentColor"/>
<path d="M5 20C5 16.134 8.13401 13 12 13C13.9587 13 15.7295 13.8045 17 15.101" stroke="currentColor"/>
<path d="M29 20C29 16.134 25.866 13 22 13C18.134 13 15 16.134 15 20" stroke="currentColor"/>
</svg>
